<?xml version="1.0" standalone="no"?>
<!DOCTYPE svg PUBLIC "-//W3C//DTD SVG 1.1//EN" "http://www.w3.org/Graphics/SVG/1.1/DTD/svg11.dtd" >
<svg>
<metadata>
Created by FontForge 20090914 at Mon Jul 24 18:33:21 2017
 By www-data
Copyright (c) 2012 by Brian J. Bonislawsky DBA Astigmatic (AOETI) (astigma@astigmatic.com), with ReservedFont Name "Parisienne"
</metadata>
<defs>
<font id="Parisienne-Regular" horiz-adv-x="800" >
  <font-face 
    font-family="Parisienne"
    font-weight="400"
    font-stretch="normal"
    units-per-em="2048"
    panose-1="3 2 5 7 0 0 0 2 0 2"
    ascent="1638"
    descent="-410"
    x-height="721.998"
    cap-height="1558"
    bbox="-660 -915.003 3400 1874.99"
    underline-thickness="20"
    underline-position="-113"
    unicode-range="U+0020-U+FB02"
  />
<missing-glyph horiz-adv-x="600" 
 />
    <glyph glyph-name="fi" unicode="fi" horiz-adv-x="906" 
d="M796 665l-36.9961 -68.5029l-50 -93l-55 -106c-18.667 -37 -35.334 -73 -50.001 -108s-26.834 -67.833 -36.501 -98.5s-14.5 -56.667 -14.5 -78c0 -19.333 4 -32.5 12 -39.5s19.333 -10.5 34 -10.5c27.333 0 54 9 80 27s51.833 41.5 77.5 70.5s50.834 62.167 75.501 99.5
l74 113l36 -28c-19.333 -34.667 -41.166 -71.667 -65.499 -111s-51.5 -75.833 -81.5 -109.5s-63 -61.5 -99 -83.5s-75.333 -33 -118 -33c-40 0 -70.667 12 -92 36s-32 55 -32 93c0 8.66699 0.5 17.334 1.5 26.001s2.16699 17.667 3.5 27
c-22 -25.333 -46.167 -49.666 -72.5 -72.999s-54.833 -44.166 -85.5 -62.499s-63 -33 -97 -44s-69.667 -16.5 -107 -16.5c-18.667 0 -36.834 2.16699 -54.501 6.5s-34.834 11.166 -51.501 20.499l-64.5 -159l-60 -148l-52.5 -129l-42 -102.5l-28 -69
c-6.66699 -17 -10.334 -25.833 -11.001 -26.5l-105 52l91.5 220l75 187l65 163.5l61.5 148.5c-10.667 15.333 -18.5 30.333 -23.5 45s-8.16699 26.667 -9.5 36c-1.33301 15.333 2.83398 28.166 12.501 38.499s22.167 15.5 37.5 15.5c12.667 0 24.334 -4.33301 35.001 -13
l53.5 126.5l39.5 91.5l32 75c58 136.667 111.833 254.834 161.5 354.501s95.5 184.334 137.5 254.001s80.333 126 115 169s66.167 76.5 94.5 100.5s53.833 40.167 76.5 48.5s43 12.5 61 12.5c29.333 0 54.166 -6.5 74.499 -19.5s31.833 -35.167 34.5 -66.5
c2.66699 -30.667 -2.83301 -69.334 -16.5 -116.001s-32.334 -96.167 -56.001 -148.5s-51.167 -105.166 -82.5 -158.499s-63.333 -102.333 -96 -147c-62 -84 -118.167 -153.667 -168.5 -209s-94.5 -100 -132.5 -134s-69.667 -59.167 -95 -75.5s-44 -27.5 -56 -33.5l-139 -333
c21.333 -16.667 49.666 -25 84.999 -25c54.667 0 104.834 11.833 150.501 35.5s86.5 52.167 122.5 85.5s67.167 67.833 93.5 103.5s47.166 65.5 62.499 89.5c16.667 29.333 35 58.333 55 87s40.5 56.5 61.5 83.5l63 78l59.5 70.5zM791.004 1411
c-0.666992 11.333 -3.16797 21.165 -7.50098 29.498s-13.166 12.5 -26.499 12.5c-8 0 -18.333 -1.83301 -31 -5.5s-27.5 -11.5 -44.5 -23.5s-36.167 -29.667 -57.5 -53s-45.166 -54.666 -71.499 -93.999s-55 -88 -86 -146s-64.167 -128 -99.5 -210l-81 -189.5l-101 -241.5
c31.333 22 64.166 49.5 98.499 82.5s69 69.333 104 109s69.5 81.834 103.5 126.501s66.333 90 97 136s58.834 91.667 84.501 137s47.667 88.5 66 129.5s32.166 78.667 41.499 113s13 63.5 11 87.5zM983.003 886.996c0 -13.333 -3.33203 -27.1689 -9.99902 -41.502
s-15.167 -27.166 -25.5 -38.499s-21.833 -20.666 -34.5 -27.999s-25.334 -11 -38.001 -11c-11.333 0 -20 4.16699 -26 12.5s-9 18.5 -9 30.5c0 10.667 2 23.334 6 38.001s10 28.5 18 41.5s17.667 24.167 29 33.5s24.333 14 39 14c14 0 26 -5.33301 36 -16
s15 -22.334 15 -35.001z" />
    <glyph glyph-name="fl" unicode="fl" horiz-adv-x="1096" 
d="M1258 1455c23.333 0 42.832 -5.66895 58.499 -17.002s23.5 -32 23.5 -62c0 -20.667 -4.16699 -45.334 -12.5 -74.001s-19.666 -59.834 -33.999 -93.501s-31.166 -69 -50.499 -106s-40.166 -73.833 -62.499 -110.5s-45.666 -72.334 -69.999 -107.001
s-48.5 -66.667 -72.5 -96l-124.5 -150l-90.5 -103.5c-25.333 -28.333 -46.666 -51.333 -63.999 -69l-46 -45.5l-37 -34.5c-11.333 -10.333 -23 -21.833 -35 -34.5c-5.33301 -25.333 -7.83301 -49.5 -7.5 -72.5s0.5 -44.167 0.5 -63.5c0 -58 9.33301 -101 28 -129
s45 -42 79 -42c22.667 0 45.5 5.83301 68.5 17.5s45.833 26.834 68.5 45.501s44.667 39.834 66 63.501s41.5 47.667 60.5 72s36.167 47.833 51.5 70.5l40 59l37 -28c-1.33301 -2.66699 -7.66602 -13.167 -18.999 -31.5s-26 -40.5 -44 -66.5s-39.333 -53.833 -64 -83.5
s-51.334 -57.167 -80.001 -82.5s-58.834 -46.333 -90.501 -63s-63.834 -25 -96.501 -25c-26 0 -51.167 4.83301 -75.5 14.5s-46 24.667 -65 45s-34.5 46.333 -46.5 78s-19 69.5 -21 113.5c-29.333 -27.333 -62.333 -55.166 -99 -83.499s-75.834 -54 -117.501 -77
s-85.167 -42 -130.5 -57s-91 -22.5 -137 -22.5c-10 0 -20 0.5 -30 1.5s-20 3.16699 -30 6.5l-94 -232l-80.5 -198.5l-57 -139.5c-14.333 -35.333 -21.833 -53.666 -22.5 -54.999l-105 52l91.5 220l75 187l65 163.5l61.5 148.5c-10.667 15.333 -18.5 30.333 -23.5 45
s-8.16699 26.667 -9.5 36c-1.33301 15.333 2.83398 28.166 12.501 38.499s22.167 15.5 37.5 15.5c12.667 0 24.334 -4.33301 35.001 -13l53.5 126.5l39.5 91.5l32 75c58 136.667 111.833 254.834 161.5 354.501s95.5 184.334 137.5 254.001s80.333 126 115 169
s66.167 76.5 94.5 100.5s53.833 40.167 76.5 48.5s43 12.5 61 12.5c29.333 0 54.166 -6.5 74.499 -19.5s31.833 -35.167 34.5 -66.5c2.66699 -30.667 -2.83301 -69.334 -16.5 -116.001s-32.334 -96.167 -56.001 -148.5s-51.167 -105.166 -82.5 -158.499
s-63.333 -102.333 -96 -147c-62 -84 -118.167 -153.667 -168.5 -209s-94.5 -100 -132.5 -134s-69.667 -59.167 -95 -75.5s-44 -27.5 -56 -33.5l-143 -344c10.667 -2.66699 23.667 -4 39 -4c46 0 92.167 8.66699 138.5 26s90.666 39 132.999 65s81.833 54.167 118.5 84.5
s68.667 58.5 96 84.5c5.33301 80.667 21.5 164.667 48.5 252s60.833 173.333 101.5 258s86.334 165 137.001 241s102.167 142.667 154.5 200s103.166 103 152.499 137s93.333 51 132 51zM790.999 1411c-0.666992 11.333 -3.16797 21.165 -7.50098 29.498
s-13.166 12.5 -26.499 12.5c-8 0 -18.333 -1.83301 -31 -5.5s-27.5 -11.5 -44.5 -23.5s-36.167 -29.667 -57.5 -53s-45.166 -54.666 -71.499 -93.999s-55 -88 -86 -146s-64.167 -128 -99.5 -210l-81 -189.5l-101 -241.5c31.333 22 64.166 49.5 98.499 82.5
s69 69.333 104 109s69.5 81.834 103.5 126.501s66.333 90 97 136s58.834 91.667 84.501 137s47.667 88.5 66 129.5s32.166 78.667 41.499 113s13 63.5 11 87.5zM658.998 440.997l164.501 178.5c53 60.333 102.667 120 149 179s88.833 116.333 127.5 172
s71.667 108.167 99 157.5s48.666 94.333 63.999 135s23 75.667 23 105c0 5.33301 -2.66699 12.5 -8 21.5s-11.666 13.5 -18.999 13.5c-21.333 0 -48.833 -13.667 -82.5 -41s-70.334 -64.5 -110.001 -111.5s-80.5 -101.833 -122.5 -164.5s-81.833 -129.667 -119.5 -201
s-71.167 -145 -100.5 -221s-51 -150.333 -65 -223z" />
    <glyph glyph-name=".notdef" horiz-adv-x="600" 
 />
    <glyph glyph-name="space" unicode=" " horiz-adv-x="600" 
 />
    <glyph glyph-name="exclam" unicode="!" horiz-adv-x="761" 
d="M235 243l-43 17l553 1235l116 -53zM196 63c0 -20 -7.16699 -37.167 -21.5 -51.5s-31.833 -21.5 -52.5 -21.5c-19.333 0 -36.166 7.16699 -50.499 21.5s-21.5 31.5 -21.5 51.5c0 19.333 7.16699 36.166 21.5 50.499s31.166 21.5 50.499 21.5
c20.667 0 38.167 -7.16699 52.5 -21.5s21.5 -31.166 21.5 -50.499z" />
    <glyph glyph-name="quotedbl" unicode="&#x22;" horiz-adv-x="669" 
d="M414 1068h-48l146 376h125zM583 1068h-48l146 376h125z" />
    <glyph glyph-name="numbersign" unicode="#" horiz-adv-x="1024" 
d="M153 101l138 359h-152l22 55h151l133 345h-152l21 55h152l127 329h64l-127 -329h236l127 329h64l-127 -329h159l-22 -55h-158l-133 -345h159l-22 -55h-158l-138 -359h-64l138 359h-236l-138 -359h-64zM376 515h236l133 345h-236z" />
    <glyph glyph-name="dollar" unicode="$" horiz-adv-x="843" 
d="M-34 -198l158.001 329.005c-36.667 17.333 -68.667 41.166 -96 71.499s-50 66.166 -68 107.499l50 23c18.667 -37.333 38.667 -69 60 -95s46.666 -46.333 75.999 -61l300 625c-7.33301 33.333 -13.166 65.666 -17.499 96.999s-6.5 61.333 -6.5 90
c0 71.333 8.66699 132.5 26 183.5s40.333 93 69 126s61.834 57.667 99.501 74s76.5 26.166 116.5 29.499l130 271l42 -18l-121 -253c25.333 -2 49 -7 71 -15l138 286l42 -18l-138 -287c45.333 -24.667 80.666 -55.667 105.999 -93l-44 -34
c-8 14.667 -19.333 28.834 -34 42.501s-31.334 26.167 -50.001 37.5l-291 -609c9.33301 -40.667 17.333 -79.167 24 -115.5s10 -67.166 10 -92.499c0 -63.333 -8.33301 -119.333 -25 -168s-39.5 -89.834 -68.5 -123.501s-63.5 -59.834 -103.5 -78.501
s-83.333 -29.334 -130 -32.001l-152 -319l-43 19l144 300c-27.333 2 -51.333 6.33301 -72 13l-159 -332zM488.001 620.005c-4.66699 17.333 -9 35.168 -13 53.501s-8.33301 37.166 -13 56.499l-273 -570c22 -6 46.667 -9 74 -9zM542.001 897.007
c3.33301 -18 7.16699 -36.333 11.5 -55l13.5 -57l266 555c-11.333 4 -22.833 7.16699 -34.5 9.5s-23.5 3.5 -35.5 3.5h-3zM518.002 437.007c0 15.333 -1.33301 32.1689 -4 50.502s-6 37.833 -10 58.5l-187 -391c32.667 6 61.5 17.667 86.5 35s46 38.666 63 63.999
s29.833 53.666 38.5 84.999s13 64 13 98zM522.002 1051.01c0 -22.667 2 -48 6 -76l178 372c-23.333 -5.33301 -46 -14.5 -68 -27.5s-41.5 -31.167 -58.5 -54.5s-30.833 -52.5 -41.5 -87.5s-16 -77.167 -16 -126.5z" />
    <glyph glyph-name="percent" unicode="%" horiz-adv-x="1470" 
d="M664 1444c32.667 0 61.668 -5.83398 87.001 -17.501s46.833 -27.334 64.5 -47.001s31.167 -42.667 40.5 -69s14 -54.166 14 -83.499c0 -35.333 -5.33301 -71.5 -16 -108.5s-25.5 -73 -44.5 -108s-41.5 -67.833 -67.5 -98.5s-54.167 -57.667 -84.5 -81
s-62.333 -41.666 -96 -54.999s-67.5 -20 -101.5 -20s-65 5.5 -93 16.5s-52 26.5 -72 46.5s-35.5 44.333 -46.5 73s-16.5 61 -16.5 97c0 59.333 11.5 116.5 34.5 171.5s54.167 103.5 93.5 145.5s85.166 75.5 137.499 100.5s107.833 37.5 166.5 37.5zM678.001 1385
c-44.667 0 -88.667 -12.6641 -132 -37.9971s-82 -58 -116 -98s-61.5 -84.833 -82.5 -134.5s-31.5 -98.834 -31.5 -147.501c0 -55.333 13.833 -97 41.5 -125s63.5 -42 107.5 -42c30 0 59.667 6.5 89 19.5s57.333 30.5 84 52.5s51.334 47.167 74.001 75.5
s42.167 58.166 58.5 89.499s29.166 62.666 38.499 93.999s14 61 14 89c0 32 -4.33301 58.5 -13 79.5s-19.834 37.833 -33.501 50.5s-29.167 21.667 -46.5 27s-34.666 8 -51.999 8zM200.001 -19.998l1114 1464h84l-1114 -1464h-84zM1180 668.002
c32.667 0 61.668 -5.83398 87.001 -17.501s46.833 -27.334 64.5 -47.001s31.167 -42.667 40.5 -69s14 -54.166 14 -83.499c0 -35.333 -5.33301 -71.5 -16 -108.5s-25.5 -73 -44.5 -108s-41.5 -67.833 -67.5 -98.5s-54.167 -57.667 -84.5 -81s-62.333 -41.666 -96 -54.999
s-67.5 -20 -101.5 -20s-65 5.5 -93 16.5s-52 26.5 -72 46.5s-35.5 44.333 -46.5 73s-16.5 61 -16.5 97c0 59.333 11.5 116.5 34.5 171.5s54.167 103.5 93.5 145.5s85.166 75.5 137.499 100.5s107.833 37.5 166.5 37.5zM1194 609.001
c-44.667 0 -88.667 -12.6641 -132 -37.9971s-82 -58 -116 -98s-61.5 -84.833 -82.5 -134.5s-31.5 -98.834 -31.5 -147.501c0 -55.333 13.833 -97 41.5 -125s63.5 -42 107.5 -42c30 0 59.667 6.5 89 19.5s57.333 30.5 84 52.5s51.334 47.167 74.001 75.5
s42.167 58.166 58.5 89.499s29.166 62.666 38.499 93.999s14 61 14 89c0 32 -4.33301 58.5 -13 79.5s-19.834 37.833 -33.501 50.5s-29.167 21.667 -46.5 27s-34.666 8 -51.999 8z" />
    <glyph glyph-name="ampersand" unicode="&#x26;" horiz-adv-x="1716" 
d="M1190 300c32 6 64.3301 8.99707 96.9971 8.99707c41.333 0 81.666 -6 120.999 -18s74.5 -29.167 105.5 -51.5s55.833 -49.833 74.5 -82.5s28 -69.667 28 -111c0 -36.667 -8.16699 -70 -24.5 -100s-38.833 -55.833 -67.5 -77.5s-62.667 -38.334 -102 -50.001
s-82 -17.5 -128 -17.5c-53.333 0 -104.5 5.83301 -153.5 17.5s-95.667 27.834 -140 48.501s-86.666 45.5 -126.999 74.5s-77.833 61.167 -112.5 96.5c-48.667 -22.667 -99.834 -40.5 -153.501 -53.5s-109.5 -19.5 -167.5 -19.5c-71.333 0 -132.333 7.5 -183 22.5
s-92 35.333 -124 61s-55.5 55.5 -70.5 89.5s-22.5 70.333 -22.5 109c0 50 11.5 94.5 34.5 133.5s53.833 73.667 92.5 104s83.334 57.5 134.001 81.5s103.667 46.333 159 67c-4 30.667 -6 61 -6 91c0 68.667 12.667 131 38 187s58.5 103.667 99.5 143s87 69.833 138 91.5
s102.167 32.5 153.5 32.5c32.667 0 62.334 -4.66699 89.001 -14s49.334 -22.166 68.001 -38.499s33.167 -35.5 43.5 -57.5s15.5 -45.333 15.5 -70c0 -34.667 -7.16699 -65.834 -21.5 -93.501s-34 -52.834 -59 -75.501s-54.333 -43.334 -88 -62.001s-70 -36 -109 -52
s-79.5 -31.5 -121.5 -46.5l-126 -45.5c8 -37.333 19.167 -77 33.5 -119s31.5 -84.5 51.5 -127.5s42.833 -85.833 68.5 -128.5s53.5 -83.334 83.5 -122.001c38 22.667 72.833 48.334 104.5 77.001s59 59.167 82 91.5s41 65.833 54 100.5s19.5 69.667 19.5 105
c0 26.667 -2.33301 48 -7 64s-7.33398 26.333 -8.00098 31l51 14c2.66699 -7.33301 6.16699 -20.666 10.5 -39.999s6.5 -42.666 6.5 -69.999c0 -36.667 -6.66699 -74 -20 -112s-32.166 -75 -56.499 -111s-53.666 -70.333 -87.999 -103s-72.5 -62.334 -114.5 -89.001
c29.333 -34.667 60.5 -66.667 93.5 -96s67.5 -54.666 103.5 -75.999s73.167 -38 111.5 -50s77.833 -18 118.5 -18c33.333 0 65.333 4.33301 96 13s57.667 21.834 81 39.501s42 40.334 56 68.001s21 60.5 21 98.5c0 34 -7 63.833 -21 89.5s-32.667 47.334 -56 65.001
s-49.833 31 -79.5 40s-60.5 13.5 -92.5 13.5c-14 0 -27.5 -0.666992 -40.5 -2s-25.167 -3 -36.5 -5zM467.997 581.997c-42 -18 -81.5029 -37.333 -118.503 -58s-69.167 -43.834 -96.5 -69.501s-49 -54.5 -65 -86.5s-24 -68 -24 -108c0 -34 5.5 -65.5 16.5 -94.5
s28.333 -54.333 52 -76s53.834 -38.5 90.501 -50.5s80.667 -18 132 -18c45.333 0 90.666 5 135.999 15s89 24.333 131 43c-33.333 36.667 -63.666 75.667 -90.999 117s-51.666 83.5 -72.999 126.5s-39.666 86.333 -54.999 130s-27 86.834 -35 129.501zM1042.99 996.997
c0 15.333 -3.16895 30.667 -9.50195 46s-16 29 -29 41s-29.667 21.667 -50 29s-44.166 11 -71.499 11c-37.333 0 -75.166 -7.16699 -113.499 -21.5s-73 -37 -104 -68s-56.333 -71 -76 -120s-29.5 -107.833 -29.5 -176.5c0 -10.667 0.333008 -21.667 1 -33s2 -23 4 -35
l177 63.5c57.333 21 108.333 44 153 69s80.5 53.167 107.5 84.5s40.5 68 40.5 110z" />
    <glyph glyph-name="quotesingle" unicode="'" horiz-adv-x="500" 
d="M414 1068h-48l146 376h125z" />
    <glyph glyph-name="parenleft" unicode="(" horiz-adv-x="702" 
d="M302 -473c-19.333 36 -41.1699 79.4971 -65.5029 130.497s-47.333 107.5 -69 169.5s-40 128.333 -55 199s-22.5 143.667 -22.5 219c0 132.667 21.667 259.5 65 380.5s104.333 232.833 183 335.5s173 194.834 283 276.501s231.667 149.5 365 203.5l16 -42
c-57.333 -23.333 -116.833 -55.166 -178.5 -95.499s-122.167 -88.166 -181.5 -143.499s-115.666 -117.5 -168.999 -186.5s-100.166 -144.167 -140.499 -225.5s-72.333 -168.333 -96 -261s-35.5 -190 -35.5 -292c0 -76.667 4.83301 -146.5 14.5 -209.5
s21.834 -120.667 36.501 -173s30.5 -100 47.5 -143l47.5 -119.5z" />
    <glyph glyph-name="parenright" unicode=")" horiz-adv-x="702" 
d="M340 1444c19.333 -36 41.1699 -79.6621 65.5029 -130.995s47.333 -108 69 -170s40 -128.333 55 -199s22.5 -143.334 22.5 -218.001c0 -133.333 -21.667 -260.333 -65 -381s-104.333 -232.334 -183 -335.001s-173 -194.834 -283 -276.501s-231.667 -149.5 -365 -203.5
l-16 42c57.333 23.333 116.833 55.166 178.5 95.499s122.167 88.166 181.5 143.499s115.666 117.5 168.999 186.5s100.166 144.167 140.499 225.5s72.333 168.333 96 261s35.5 190 35.5 292c0 76.667 -4.83301 146.5 -14.5 209.5s-21.834 120.667 -36.501 173
s-30.5 100 -47.5 143l-47.5 119.5z" />
    <glyph glyph-name="asterisk" unicode="*" horiz-adv-x="700" 
d="M459 1123l-151 -227l-78 64l183 180l-240 78l40 92l222 -127l-26 261h101l-28 -260l223 126l40 -92l-239 -78l183 -180l-78 -64z" />
    <glyph glyph-name="plus" unicode="+" 
d="M463 655l-131 -269h-63l131 269h-270l27 55h270l130 267h63l-130 -267h269l-27 -55h-269z" />
    <glyph glyph-name="comma" unicode="," horiz-adv-x="350" 
d="M-44 -109c26.667 13.333 51.666 29.3291 74.999 47.9961s39.666 36.667 48.999 54c-21.333 4.66699 -36.666 13.834 -45.999 27.501s-14 28.167 -14 43.5c0 20.667 7.33301 37.834 22 51.501s31.667 20.5 51 20.5c20.667 0 37.834 -7.33301 51.501 -22
s20.5 -31.667 20.5 -51c0 -21.333 -5.5 -42.166 -16.5 -62.499s-25.5 -39.5 -43.5 -57.5s-38.333 -34.167 -61 -48.5s-45.667 -26.166 -69 -35.499z" />
    <glyph glyph-name="hyphen" unicode="-" 
d="M100 385l37 75h502l-37 -75h-502z" />
    <glyph glyph-name="period" unicode="." horiz-adv-x="350" 
d="M166 63c0 -20 -7.16699 -37.167 -21.5 -51.5s-31.833 -21.5 -52.5 -21.5c-19.333 0 -36.166 7.16699 -50.499 21.5s-21.5 31.5 -21.5 51.5c0 19.333 7.16699 36.166 21.5 50.499s31.166 21.5 50.499 21.5c20.667 0 38.167 -7.16699 52.5 -21.5s21.5 -31.166 21.5 -50.499
z" />
    <glyph glyph-name="slash" unicode="/" horiz-adv-x="868" 
d="M-200 -99l1284 1543h84l-1284 -1543h-84z" />
    <glyph glyph-name="zero" unicode="0" horiz-adv-x="1410" 
d="M1217 1372c-12.667 3.33301 -30.3271 7.66113 -52.9941 12.9941s-54 8 -94 8c-52 0 -108.833 -11.667 -170.5 -35s-123.834 -56.333 -186.501 -99s-123.334 -93.834 -182.001 -153.501s-110.667 -125.667 -156 -198s-81.666 -150 -108.999 -233s-41 -168.833 -41 -257.5
c0 -62 8.5 -117 25.5 -165s40.667 -88.333 71 -121s66.666 -57.334 108.999 -74.001s88.833 -25 139.5 -25s101.167 8.33301 151.5 25s99.666 39.834 147.999 69.501s94.833 64.834 139.5 105.501s86.667 84.834 126 132.501s75.166 98 107.499 151s60 106.333 83 160
s40.833 107 53.5 160s19 103.833 19 152.5c0 51.333 -6.33301 94.833 -19 130.5s-29.834 64.834 -51.501 87.501s-46.334 39 -74.001 49s-56.5 15 -86.5 15c-52 0 -103.5 -15.167 -154.5 -45.5s-99.5 -75.5 -145.5 -135.5l-43 33c51.333 66 105.833 116 163.5 150
s116.834 51 177.501 51c40.667 0 78.5 -7.5 113.5 -22.5s65.167 -37 90.5 -66s45.166 -64.5 59.499 -106.5s21.5 -90.333 21.5 -145c0 -54 -6.83301 -109.833 -20.5 -167.5s-32.834 -115.167 -57.501 -172.5s-54.5 -113.666 -89.5 -168.999s-73.5 -107.666 -115.5 -156.999
s-87.167 -94.833 -135.5 -136.5s-98.5 -77.667 -150.5 -108s-105.167 -54 -159.5 -71s-108.5 -25.5 -162.5 -25.5c-71.333 0 -134.833 12.667 -190.5 38s-102.667 59.5 -141 102.5s-67.5 92.667 -87.5 149s-30 115.833 -30 178.5c0 85.333 11.667 169.333 35 252
s56.166 161 98.499 235s92.833 142.333 151.5 205s123.334 116.834 194.001 162.501s146.167 81.334 226.5 107.001s163.5 38.5 249.5 38.5c28.667 0 58.834 -3.16699 90.501 -9.5s58.167 -13.833 79.5 -22.5z" />
    <glyph glyph-name="one" unicode="1" horiz-adv-x="812" 
d="M952 1388l-697.003 -1400l-115 52l144.5 273l120.5 228.5l101.5 192.5l88.5 165l80.5 145l77.5 133c-45.333 -42 -91.166 -81.667 -137.499 -119s-91.166 -71.833 -134.499 -103.5s-84.166 -60.167 -122.499 -85.5l-100 -64.5l-67.5 -41
c-16.667 -9.66699 -25.334 -14.5 -26.001 -14.5l-25 46c0.666992 0.666992 13.667 8.16699 39 22.5s58.5 34.833 99.5 61.5l141.5 96c53.333 37.333 108.333 79 165 125s112.834 95.667 168.501 149s107.167 109 154.5 167z" />
    <glyph glyph-name="two" unicode="2" horiz-adv-x="1482" 
d="M871 655c-18 -8 -39.335 -15.665 -64.002 -22.998s-50.667 -13.833 -78 -19.5s-55.333 -10.167 -84 -13.5s-56 -5 -82 -5c-50 0 -97.5 4.83301 -142.5 14.5s-84.333 25.334 -118 47.001s-60.334 49.5 -80.001 83.5s-29.5 75.333 -29.5 124c0 55.333 12 109.333 36 162
s56.667 102 98 148s89.833 88.167 145.5 126.5s115 71.333 178 99s128.333 49.167 196 64.5s134.167 23 199.5 23c66 0 127.833 -6.83301 185.5 -20.5s108 -36 151 -67s77 -71.167 102 -120.5s37.5 -109.333 37.5 -180c0 -61.333 -11.667 -123.666 -35 -186.999
s-55.333 -126 -96 -188s-88.5 -122.667 -143.5 -182s-114.5 -115.833 -178.5 -169.5s-130.833 -103.334 -200.5 -149.001s-139.167 -85.834 -208.5 -120.501c56.667 -24.667 113 -46.334 169 -65.001s112.667 -28 170 -28c40.667 0 81 5.33301 121 16l14 -50
c-46 -12.667 -91.667 -19 -137 -19c-36.667 0 -72.5 3.33301 -107.5 10s-69.167 15.334 -102.5 26.001s-66.166 22.834 -98.499 36.501l-95.5 41.5c-70.667 -32 -138.5 -56.5 -203.5 -73.5s-124.833 -25.5 -179.5 -25.5c-26 0 -50.167 2.33301 -72.5 7s-42 12 -59 22
s-30.333 22.833 -40 38.5s-14.5 34.167 -14.5 55.5c0 13.333 3.5 27.833 10.5 43.5s18.833 30.167 35.5 43.5s38.667 24.5 66 33.5s61.333 13.5 102 13.5c28.667 0 57.334 -2.5 86.001 -7.5s57 -11.5 85 -19.5s55.667 -17.333 83 -28l82 -33
c64.667 33.333 130.5 72.666 197.5 117.999s132 94.666 195 147.999s122.333 109.833 178 169.5s104.167 120.5 145.5 182.5s74 124.5 98 187.5s36 124.5 36 184.5c0 58 -10.333 106.333 -31 145s-48.667 69.667 -84 93s-76.5 40 -123.5 50s-96.833 15 -149.5 15
c-58.667 0 -117.334 -8 -176.001 -24s-115 -37.667 -169 -65s-104.333 -59.333 -151 -96s-87.167 -76 -121.5 -118s-61.333 -85.333 -81 -130s-29.5 -88.334 -29.5 -131.001c0 -40.667 7.83301 -75 23.5 -103s36.334 -50.667 62.001 -68s54.334 -29.833 86.001 -37.5
s63.5 -11.5 95.5 -11.5c36.667 0 69.167 1.5 97.5 4.5s53.5 6.83301 75.5 11.5s41.667 10 59 16l49 17zM205.998 23.002c40.667 0 86.667 7.33203 138 21.999s106.333 35.667 165 63c-46 19.333 -91 35.833 -135 49.5s-88.333 20.5 -133 20.5c-29.333 0 -54 -2.66699 -74 -8
s-36.333 -12.166 -49 -20.499s-21.667 -17.5 -27 -27.5s-8 -19.333 -8 -28c0 -19.333 10 -36 30 -50s51 -21 93 -21z" />
    <glyph glyph-name="three" unicode="3" horiz-adv-x="1261" 
d="M1415 1400l-109.005 -121.493l-130 -147l-143.5 -153c-49.667 -51 -99.5 -97.833 -149.5 -140.5c38 -15.333 73.833 -34.833 107.5 -58.5s63 -52 88 -85s44.667 -70.167 59 -111.5s21.5 -87 21.5 -137c0 -64.667 -9.5 -125.834 -28.5 -183.501s-45.333 -111 -79 -160
s-73.667 -93 -120 -132s-97.166 -72.167 -152.499 -99.5s-114 -48.333 -176 -63s-125.333 -22 -190 -22c-63.333 0 -123.166 8.16699 -179.499 24.5s-105.5 40.166 -147.5 71.499s-75.167 70 -99.5 116s-36.5 98.667 -36.5 158c0 51.333 12 101 36 149s56 91 96 129l37 -38
c-34 -32.667 -61 -69.667 -81 -111s-30 -84 -30 -128c0 -47.333 8.83301 -89.166 26.5 -125.499s42.167 -66.833 73.5 -91.5s69 -43.334 113 -56.001s92.667 -19 146 -19c59.333 0 117.5 7.16699 174.5 21.5s110.833 34.666 161.5 60.999s97.334 58 140.001 95
s79.334 78.333 110.001 124s54.667 95 72 148s26 108.5 26 166.5c0 38.667 -5.16699 74.667 -15.5 108s-24.833 63.666 -43.5 90.999s-41 51.166 -67 71.499s-54.667 36.833 -86 49.5c-51.333 -40 -101.333 -72.167 -150 -96.5s-95 -36.5 -139 -36.5
c-16.667 0 -30.667 2.5 -42 7.5s-20.666 11.333 -27.999 19s-12.666 16 -15.999 25s-5 17.5 -5 25.5c0 15.333 4.33301 30.833 13 46.5s22.167 29.667 40.5 42s42 22.333 71 30s63.833 11.5 104.5 11.5c43.333 0 87.666 -5.66699 132.999 -17
c40.667 34 82.167 71.667 124.5 113l126 128l122 132l113.5 125c-59.333 -18 -120 -30.5 -182 -37.5s-123.333 -10.5 -184 -10.5c-68 0 -132.667 3 -194 9s-115.833 12.667 -163.5 20s-86.167 14.166 -115.5 20.499s-46 10.166 -50 11.499l14 56
c0.666992 0 15.167 -3.33301 43.5 -10s65.833 -14 112.5 -22s100.5 -15.167 161.5 -21.5s125.167 -9.5 192.5 -9.5c75.333 0 151 5.66699 227 17s147.667 32 215 62zM557.995 719.007c30 0 63.334 8.99805 100.001 26.998s75.334 42.667 116.001 74
c-27.333 6 -55.333 9 -84 9c-26.667 0 -50.834 -2.16699 -72.501 -6.5s-40.334 -10.166 -56.001 -17.499s-27.667 -15.666 -36 -24.999s-12.5 -19 -12.5 -29c0 -6.66699 3.5 -13.667 10.5 -21s18.5 -11 34.5 -11z" />
    <glyph glyph-name="four" unicode="4" horiz-adv-x="1344" 
d="M763 1461l-24.5 -46.9961l-65.5 -119.5l-100 -172l-127 -203.5c-46 -70.667 -95.167 -142 -147.5 -214s-106.166 -140 -161.499 -204c71.333 25.333 139 43 203 53s125.667 15 185 15c35.333 0 70.166 -1.5 104.499 -4.5s68 -6.83301 101 -11.5l95.5 -14
c30.667 -4.66699 60.334 -8.33398 89.001 -11.001l309 744l59 -18l-265 -732c42.667 0.666992 81 4.66699 115 12s63 15.166 87 23.499s42.5 16.166 55.5 23.499s19.833 11 20.5 11l28 -44c-1.33301 -1.33301 -9.66602 -6 -24.999 -14s-36.833 -16.833 -64.5 -26.5
s-61.334 -18.334 -101.001 -26.001s-84.5 -11.5 -134.5 -11.5l-202 -559l-125 29l222 536c-29.333 3.33301 -58.666 7.33301 -87.999 12s-59 9 -89 13s-60.833 7.5 -92.5 10.5s-64.5 4.5 -98.5 4.5c-71.333 0 -146.333 -7.66699 -225 -23s-162.334 -44 -251.001 -86l-30 42
c41.333 55.333 92.666 131.333 153.999 228l88.5 143.5l109.5 185l130.5 230l152.5 278.5l108 -53v0z" />
    <glyph glyph-name="five" unicode="5" horiz-adv-x="1341" 
d="M1341 1383c-40 -28.667 -78.1709 -51.667 -114.504 -69s-70.666 -30.5 -102.999 -39.5s-62.5 -15 -90.5 -18s-54 -4.5 -78 -4.5c-22 0 -46.333 2.33301 -73 7s-53.167 11.334 -79.5 20.001s-51.666 18.667 -75.999 30s-45.5 24 -63.5 38
c-13.333 -57.333 -27.833 -112.333 -43.5 -165l-48.5 -170c34 9.33301 69.167 16.666 105.5 21.999s74.5 8 114.5 8c68 0 131.333 -9.66699 190 -29s109.5 -48.166 152.5 -86.499s76.667 -86.5 101 -144.5s36.5 -126 36.5 -204c0 -72 -10.667 -143.833 -32 -215.5
s-51.166 -140.167 -89.499 -205.5s-84.333 -126.333 -138 -183s-112.5 -105.667 -176.5 -147s-132.167 -73.833 -204.5 -97.5s-146.833 -35.5 -223.5 -35.5c-60.667 0 -120.167 8.5 -178.5 25.5s-110.333 42.667 -156 77s-82.5 77.166 -110.5 128.499s-42 111.333 -42 180
c0 41.333 5.33301 79 16 113s23.667 61.333 39 82l42 -31c-12.667 -17.333 -23.167 -40.5 -31.5 -69.5s-12.5 -60.5 -12.5 -94.5c0 -52 9.83301 -99.333 29.5 -142s46.667 -79.167 81 -109.5s74.5 -53.833 120.5 -70.5s95.333 -25 148 -25c66 0 131.833 11.833 197.5 35.5
s128.5 55.834 188.5 96.501s115.833 88.667 167.5 144s96.334 114.5 134.001 177.5s67.334 128.667 89.001 197s32.5 136.166 32.5 203.499c0 70 -10.667 129 -32 177s-50.5 86.833 -87.5 116.5s-80.667 51 -131 64s-104.166 19.5 -161.499 19.5
c-32 0 -64.667 -3.33301 -98 -10s-66.333 -15.667 -99 -27c-36.667 -108.667 -79 -191.667 -127 -249s-96 -86 -144 -86c-22 0 -41.667 7.66699 -59 23s-26 35.666 -26 60.999c0 22.667 7.33301 47.334 22 74.001s35.667 53 63 79s60.166 51 98.499 75
s81.166 44.667 128.499 62l59.5 201c19.667 66 38.5 137.333 56.5 214l35 18c54 -21.333 109 -35.833 165 -43.5s109 -11.5 159 -11.5c62 0 122 4.33301 180 13s112 22.667 162 42zM287.996 667c12.667 0 26.999 4.83398 42.999 14.501s32.5 25 49.5 46s34.333 47.667 52 80
s35.167 71.5 52.5 117.5c-33.333 -15.333 -64.5 -32.333 -93.5 -51s-54.167 -37.667 -75.5 -57s-38.166 -38.833 -50.499 -58.5s-18.5 -38.167 -18.5 -55.5c0 -10.667 4 -19.334 12 -26.001s17.667 -10 29 -10z" />
    <glyph glyph-name="six" unicode="6" horiz-adv-x="1416" 
d="M1470 1064c1.33301 2 4.17383 12.9971 8.50684 32.9971s6.5 44.333 6.5 73c0 40 -6.83301 76.5 -20.5 109.5s-32.834 61.333 -57.501 85s-54 42 -88 55s-71 19.5 -111 19.5c-54.667 0 -111.5 -9.83301 -170.5 -29.5s-118 -47.167 -177 -82.5
s-117.167 -77.666 -174.5 -126.999s-111.833 -103.666 -163.5 -162.999s-99.334 -122.833 -143.001 -190.5s-81.334 -137.334 -113.001 -209.001s-56.5 -144.5 -74.5 -218.5s-27 -147.333 -27 -220c0 -66 6.5 -125.5 19.5 -178.5s32.833 -98.333 59.5 -136
s60.667 -66.5 102 -86.5s90.666 -30 147.999 -30c68.667 0 135.5 14.167 200.5 42.5s125.833 66 182.5 113s108.5 100.667 155.5 161s87.5 122.666 121.5 186.999s60.333 128.166 79 191.499s28 121.333 28 174c0 48.667 -7.5 92.834 -22.5 132.501
s-36.5 73.334 -64.5 101.001s-62 49 -102 64s-85 22.5 -135 22.5c-54 0 -109.833 -8.66699 -167.5 -26s-114.5 -44.333 -170.5 -81s-109.333 -83.667 -160 -141s-95.667 -126 -135 -206l-47 23c42 85.333 90.5 158.5 145.5 219.5s113 111.167 174 150.5
s123.167 68.166 186.5 86.499s124 27.5 182 27.5c60 0 115.167 -10 165.5 -30s93.666 -48.833 129.999 -86.5s64.666 -84 84.999 -139s30.5 -117.5 30.5 -187.5c0 -58.667 -9.83301 -120.667 -29.5 -186s-47.167 -130 -82.5 -194s-78 -125.167 -128 -183.5
s-105.5 -109.666 -166.5 -153.999s-126.5 -79.666 -196.5 -105.999s-143 -39.5 -219 -39.5c-69.333 0 -132.5 11.667 -189.5 35s-105.833 57.666 -146.5 102.999s-72.167 101.833 -94.5 169.5s-33.5 145.834 -33.5 234.501c0 102.667 15.167 204.834 45.5 306.501
s71.666 198.834 123.999 291.501s113.666 179 183.999 259s145.833 149.333 226.5 208s164.5 104.667 251.5 138s173.167 50 258.5 50c66.667 0 123.834 -9.33301 171.501 -28s86.667 -43.334 117 -74.001s52.5 -66 66.5 -106s21 -81.333 21 -124
c0 -19.333 -1.33301 -39 -4 -59s-6.66699 -40 -12 -60z" />
    <glyph glyph-name="seven" unicode="7" horiz-adv-x="1070" 
d="M1400 1391c-142 -121.333 -271.174 -239.329 -387.507 -353.996s-221.666 -226.5 -315.999 -335.5s-179 -215.5 -254 -319.5s-142.667 -205.333 -203 -304s-114.666 -195.167 -162.999 -289.5s-92.5 -186.833 -132.5 -277.5l-144 37c50 120.667 109.333 239 178 355
s142.334 227.667 221.001 335s159.834 209.333 243.501 306s165.167 186.334 244.5 269.001c186.667 193.333 382.334 373 587.001 539c-82 -20.667 -162.333 -34.334 -241 -41.001s-153.167 -8.83398 -223.5 -6.50098s-135.5 7.66602 -195.5 15.999
s-112.167 17.166 -156.5 26.499s-79.833 18 -106.5 26s-41.667 12.667 -45 14l17 49c0.666992 -0.666992 15.334 -5.16699 44.001 -13.5s67.5 -17.333 116.5 -27s106.833 -18.667 173.5 -27s138.834 -12.333 216.501 -12s159 6.16602 244 17.499s170.5 32 256.5 62z" />
    <glyph glyph-name="eight" unicode="8" horiz-adv-x="1474" 
d="M1185 786c69.333 32 128.499 68.3311 177.499 108.998s89 84.834 120 132.501s53.667 98 68 151s21.5 107.833 21.5 164.5c0 54 -8.5 101.833 -25.5 143.5s-41 76.667 -72 105s-68 49.833 -111 64.5s-90.5 22 -142.5 22c-98 0 -181.833 -22.167 -251.5 -66.5
s-126.5 -106.666 -170.5 -186.999s-75.667 -176.666 -95 -288.999s-27.666 -236.5 -24.999 -372.5c78 34 153 68.667 225 104s137.833 74.166 197.5 116.499s111.667 89.5 156 141.5s77.833 111.667 100.5 179l46 -12c-24.667 -83.333 -60.667 -156.833 -108 -220.5
s-102.666 -121 -165.999 -172s-133.5 -97.5 -210.5 -139.5s-157.833 -83.333 -242.5 -124c-6 -133.333 -23.667 -255.166 -53 -365.499s-67.5 -205 -114.5 -284s-101.5 -140.333 -163.5 -184s-128.333 -65.5 -199 -65.5c-40.667 0 -77.5 6.83301 -110.5 20.5
s-61 32.667 -84 57s-40.833 53.333 -53.5 87s-19 70.834 -19 111.501c0 86 19.5 164 58.5 234s92.333 134.333 160 193s146.667 112.334 237 161.001s186.833 95 289.5 139c-2 165.333 9.83301 310 35.5 434s64.167 227.167 115.5 309.5s114.666 144.166 189.999 185.499
s161.333 62 258 62c61.333 0 119.333 -9.66699 174 -29s102.5 -46.333 143.5 -81s73.333 -76.334 97 -125.001s35.5 -102 35.5 -160c0 -69.333 -13 -134.666 -39 -195.999s-61 -117.333 -105 -168s-94.667 -95.334 -152 -134.001s-117.333 -69.334 -180 -92.001z
M147.999 -210.002c64.667 0 124.503 20.665 179.503 61.998s103.167 98.5 144.5 171.5s74.833 159.5 100.5 259.5s42.167 208.667 49.5 326c-101.333 -48 -187.5 -94.5 -258.5 -139.5s-130.333 -88.167 -178 -129.5s-85.334 -80.333 -113.001 -117s-48.334 -71 -62.001 -103
s-22.334 -61 -26.001 -87s-5.5 -48.667 -5.5 -68c0 -18.667 2.83301 -38.167 8.5 -58.5s15 -39.166 28 -56.499s30.333 -31.666 52 -42.999s48.5 -17 80.5 -17z" />
    <glyph glyph-name="nine" unicode="9" horiz-adv-x="1406" 
d="M16 138c-1.33301 -2 -4.17285 -13 -8.50586 -33s-6.5 -44.333 -6.5 -73c0 -40 6.83301 -76.5 20.5 -109.5s32.834 -61.333 57.501 -85s54 -42 88 -55s71 -19.5 111 -19.5c54.667 0 111.5 9.83301 170.5 29.5s118 47.167 177 82.5s117.167 77.666 174.5 126.999
s111.833 103.666 163.5 162.999s99.334 122.833 143.001 190.5s81.334 137.334 113.001 209.001s56.5 144.5 74.5 218.5s27 147.333 27 220c0 66 -6.5 125.5 -19.5 178.5s-32.833 98.333 -59.5 136s-60.834 66.5 -102.501 86.5s-90.834 30 -147.501 30
c-69.333 0 -136.333 -14.167 -201 -42.5s-125.334 -66 -182.001 -113s-108.5 -100.667 -155.5 -161s-87.5 -122.666 -121.5 -186.999s-60.333 -128.166 -79 -191.499s-28 -121.333 -28 -174c0 -49.333 7.5 -93.666 22.5 -132.999s36.5 -72.833 64.5 -100.5s62 -49 102 -64
s85 -22.5 135 -22.5c54 0 109.833 8.66699 167.5 26s114.5 44.333 170.5 81s109.333 83.667 160 141s95.667 126 135 206l47 -23c-42 -85.333 -90.5 -158.5 -145.5 -219.5s-113 -111.167 -174 -150.5s-123.167 -68.166 -186.5 -86.499s-124 -27.5 -182 -27.5
c-60 0 -115.167 10 -165.5 30s-93.666 48.833 -129.999 86.5s-64.666 84 -84.999 139s-30.5 117.5 -30.5 187.5c0 58.667 9.83301 120.667 29.5 186s47.167 130 82.5 194s78 125.167 128 183.5s105.5 109.666 166.5 153.999s126.5 79.666 196.5 105.999s143 39.5 219 39.5
c69.333 0 132.5 -11.667 189.5 -35s105.833 -57.666 146.5 -102.999s72.167 -101.833 94.5 -169.5s33.5 -145.834 33.5 -234.501c0 -102.667 -15.167 -204.834 -45.5 -306.501s-71.666 -198.834 -123.999 -291.501s-113.666 -179 -183.999 -259
s-145.833 -149.333 -226.5 -208s-164.5 -104.667 -251.5 -138s-173.167 -50 -258.5 -50c-67.333 0 -124.666 9.33301 -171.999 28s-86.166 43.334 -116.499 74.001s-52.5 66 -66.5 106s-21 81.333 -21 124c0 19.333 1.33301 39 4 59s6.66699 40 12 60z" />
    <glyph glyph-name="colon" unicode=":" horiz-adv-x="440" 
d="M186 63c0 -20 -7.16699 -37.167 -21.5 -51.5s-31.833 -21.5 -52.5 -21.5c-19.333 0 -36.166 7.16699 -50.499 21.5s-21.5 31.5 -21.5 51.5c0 19.333 7.16699 36.166 21.5 50.499s31.166 21.5 50.499 21.5c20.667 0 38.167 -7.16699 52.5 -21.5s21.5 -31.166 21.5 -50.499
zM440 589c0 -20 -7.16699 -37.167 -21.5 -51.5s-31.833 -21.5 -52.5 -21.5c-19.333 0 -36.166 7.16699 -50.499 21.5s-21.5 31.5 -21.5 51.5c0 19.333 7.16699 36.166 21.5 50.499s31.166 21.5 50.499 21.5c20.667 0 38.167 -7.16699 52.5 -21.5s21.5 -31.166 21.5 -50.499z
" />
    <glyph glyph-name="semicolon" unicode=";" horiz-adv-x="440" 
d="M440 589c0 -20 -7.16699 -37.167 -21.5 -51.5s-31.833 -21.5 -52.5 -21.5c-19.333 0 -36.166 7.16699 -50.499 21.5s-21.5 31.5 -21.5 51.5c0 19.333 7.16699 36.166 21.5 50.499s31.166 21.5 50.499 21.5c20.667 0 38.167 -7.16699 52.5 -21.5
s21.5 -31.166 21.5 -50.499zM-24 -109c26.667 13.333 51.666 29.3291 74.999 47.9961s39.666 36.667 48.999 54c-21.333 4.66699 -36.666 13.834 -45.999 27.501s-14 28.167 -14 43.5c0 20.667 7.33301 37.834 22 51.501s31.667 20.5 51 20.5
c20.667 0 37.834 -7.33301 51.501 -22s20.5 -31.667 20.5 -51c0 -21.333 -5.5 -42.166 -16.5 -62.499s-25.5 -39.5 -43.5 -57.5s-38.333 -34.167 -61 -48.5s-45.667 -26.166 -69 -35.499z" />
    <glyph glyph-name="less" unicode="&#x3c;" 
d="M225 684l503 390l33 -42l-462 -357l217 -349l-49 -32z" />
    <glyph glyph-name="equal" unicode="=" 
d="M103 524l27 55h592l-27 -55h-592zM171 785l27 55h592l-27 -55h-592z" />
    <glyph glyph-name="greater" unicode="&#x3e;" 
d="M661 684l-503 -390l-34 43l465 360l-216 348l46 29z" />
    <glyph glyph-name="question" unicode="?" horiz-adv-x="1136" 
d="M469 251c-8 19.333 -14.0039 38.6621 -18.0039 57.9951s-6 37.333 -6 54c0 47.333 10.333 89.333 31 126s47.834 70 81.501 100s72 57.833 115 83.5l131.5 76.5c44.667 25.333 88.5 51.5 131.5 78.5s81.333 56.833 115 89.5s60.834 69.167 81.501 109.5s31 86.5 31 138.5
c0 44 -8.16699 80.667 -24.5 110s-37.5 52.833 -63.5 70.5s-55.167 30.334 -87.5 38.001s-64.5 11.5 -96.5 11.5c-58.667 0 -113.834 -9 -165.501 -27s-96.834 -41.667 -135.501 -71s-69.167 -63 -91.5 -101s-33.5 -77.333 -33.5 -118
c0 -23.333 3.83301 -43.666 11.5 -60.999s18 -31.666 31 -42.999s28 -19.666 45 -24.999s34.5 -8 52.5 -8c30.667 0 58.667 2.66699 84 8s46.666 11.666 63.999 18.999l9 -41c-22 -9.33301 -48.833 -18 -80.5 -26s-66.5 -12 -104.5 -12c-30 0 -58.5 3.33301 -85.5 10
s-50.5 17.334 -70.5 32.001s-36 33.5 -48 56.5s-18 50.5 -18 82.5c0 50 15.333 97.5 46 142.5s71.334 84.667 122.001 119s108.5 61.5 173.5 81.5s132.167 30 201.5 30c51.333 0 99.666 -6.5 144.999 -19.5s84.833 -32.333 118.5 -58s60.167 -57.334 79.5 -95.001
s29 -81.167 29 -130.5c0 -55.333 -11.167 -104.833 -33.5 -148.5s-51.666 -83.167 -87.999 -118.5s-77.666 -67.5 -123.999 -96.5s-93.666 -56.5 -141.999 -82.5l-142 -76c-46.333 -24.667 -87.666 -50.5 -123.999 -77.5s-65.666 -56.167 -87.999 -87.5
s-33.5 -66.333 -33.5 -105c0 -11.333 1 -23.166 3 -35.499s5.66699 -25.166 11 -38.499zM485.996 62.9961c0 -20 -7.16699 -37.167 -21.5 -51.5s-31.833 -21.5 -52.5 -21.5c-19.333 0 -36.166 7.16699 -50.499 21.5s-21.5 31.5 -21.5 51.5
c0 19.333 7.16699 36.166 21.5 50.499s31.166 21.5 50.499 21.5c20.667 0 38.167 -7.16699 52.5 -21.5s21.5 -31.166 21.5 -50.499z" />
    <glyph glyph-name="at" unicode="@" horiz-adv-x="1673" 
d="M976 377c-29.333 -34 -57.6709 -62.1738 -85.0039 -84.5068s-54 -39.833 -80 -52.5s-51.667 -21.5 -77 -26.5s-50 -7.5 -74 -7.5c-25.333 0 -49.166 4.16699 -71.499 12.5s-42 20.5 -59 36.5s-30.333 35.667 -40 59s-14.5 50.333 -14.5 81c0 46 8.66699 90.333 26 133
s40.333 82.834 69 120.501s61.334 72.167 98.001 103.5s74.5 58.166 113.5 80.499s77.333 39.666 115 51.999s72.167 18.5 103.5 18.5c61.333 0 107.666 -10.167 138.999 -30.5s50.333 -51.5 57 -93.5l42 50l45 51l32 -14c-8.66699 -17.333 -21.167 -40.166 -37.5 -68.499
l-53 -93.5l-58 -107c-19.667 -37.333 -37.5 -73.166 -53.5 -107.499s-29.167 -66.166 -39.5 -95.499s-15.5 -53.333 -15.5 -72c0 -18 2.16699 -32.667 6.5 -44s10 -20.166 17 -26.499s15 -10.833 24 -13.5s18.167 -4 27.5 -4c36 0 70.333 10.167 103 30.5s63 47 91 80
s53.333 71 76 114s42 87 58 132s28.333 89.333 37 133s13 83.167 13 118.5c0 68.667 -10.167 130.667 -30.5 186s-48.666 102.333 -84.999 141s-79.5 68.334 -129.5 89.001s-104.667 31 -164 31c-72.667 0 -146 -12.5 -220 -37.5s-145 -60 -213 -105
s-131.5 -98.667 -190.5 -161s-110.333 -130.5 -154 -204.5s-78 -152.5 -103 -235.5s-37.5 -167.833 -37.5 -254.5c0 -60.667 9.5 -116.667 28.5 -168s46.333 -95.5 82 -132.5s79.167 -66 130.5 -87s109.666 -31.5 174.999 -31.5c18 0 38.833 1.83301 62.5 5.5
s47.834 8.33398 72.501 14.001s48.667 12 72 19s43.666 14.167 60.999 21.5l27 -45c-48 -21.333 -96.667 -37.833 -146 -49.5s-99 -17.5 -149 -17.5c-71.333 0 -138.666 11.833 -201.999 35.5s-118.5 58.5 -165.5 104.5s-84.167 102.5 -111.5 169.5s-41 143.833 -41 230.5
c0 96.667 13.333 188.334 40 275.001s63.5 166.667 110.5 240s102.167 139.333 165.5 198s131.5 108.667 204.5 150s149.167 73 228.5 95s158.333 33 237 33c70.667 0 139 -10.667 205 -32s124.333 -53.166 175 -95.499s91.167 -95 121.5 -158s45.5 -135.833 45.5 -218.5
c0 -43.333 -5.83301 -89.666 -17.5 -138.999s-28 -98.333 -49 -147s-46.333 -95.334 -76 -140.001s-62.667 -84.167 -99 -118.5s-75.5 -61.833 -117.5 -82.5s-86 -31 -132 -31c-26 0 -48.5 3.66699 -67.5 11s-34.833 17.333 -47.5 30s-22.167 27.334 -28.5 44.001
s-9.5 34.667 -9.5 54c0 1.33301 0.333008 4.16602 1 8.49902s1.33398 9 2.00098 14l2 15c0.666992 5 1.33398 8.83301 2.00098 11.5zM1008 485.993l31.9961 53.499l40 67l41 66.5l35 54c0 6 -0.833008 15.667 -2.5 29s-6.16699 26.833 -13.5 40.5s-19 25.5 -35 35.5
s-38.333 15 -67 15c-31.333 0 -64.166 -6.5 -98.499 -19.5s-68.166 -30.833 -101.499 -53.5s-65.166 -49.167 -95.499 -79.5s-57.166 -62.833 -80.499 -97.5s-41.833 -70.667 -55.5 -108s-20.5 -74.333 -20.5 -111c0 -38 8.66699 -67.333 26 -88s42 -31 74 -31
c36.667 0 70 6.83301 100 20.5s57.833 31.334 83.5 53.001s49.667 46 72 73z" />
    <glyph glyph-name="A" unicode="A" horiz-adv-x="2330" 
d="M2327 1421c19.333 0 38.1641 -3.16016 56.498 -9.49316c18.333 -6.33301 34.666 -15.333 49 -27c14.333 -11.667 25.833 -26 34.5 -43s13 -36.167 13 -57.5c0 -41.333 -13.333 -88.333 -40 -141s-61.334 -114.334 -104 -185.001c-46 -75.333 -89.333 -150.5 -130 -225.5
l-113.5 -217l-96 -197l-75.5 -165.5c26.667 -3.33301 53.334 -6 80.001 -8s50.667 -2.66699 72.001 -2l2 -52c-4.66699 0 -22.167 0.166992 -52.5 0.5s-71.5 4.16602 -123.5 11.499l-47.5 -112c-11 -26.667 -16.5 -40.667 -16.5 -42l-119 37l60 137
c-44.667 10 -91.667 21.667 -141 35s-99.5 28.5 -150.5 45.5s-101.833 36.167 -152.5 57.5s-99.334 44.666 -146.001 69.999c-43.333 -50 -90.333 -99.167 -141 -147.5s-105 -91.666 -163 -129.999s-119.5 -69.333 -184.5 -93s-133.5 -35.5 -205.5 -35.5
c-64 0 -127.833 9.5 -191.5 28.5s-120.667 46.667 -171 83s-91.166 80.666 -122.499 132.999s-47 111.833 -47 178.5c0 52.667 9.83301 99 29.5 139s46.667 73.333 81 100s74.666 46.834 120.999 60.501s96.166 20.5 149.499 20.5c40.667 0 82.834 -4 126.501 -12
s86.167 -21.333 127.5 -40s80.333 -43.334 117 -74.001s68 -68.667 94 -114l-44 -28c-0.666992 1.33301 -4.5 6.5 -11.5 15.5s-17.333 20 -31 33s-31.167 26.833 -52.5 41.5s-46.833 28.167 -76.5 40.5s-64 22.666 -103 30.999s-83.167 12.5 -132.5 12.5
c-50 0 -93.667 -8.5 -131 -25.5s-68.5 -38.667 -93.5 -65s-43.667 -55.833 -56 -88.5s-18.5 -64.334 -18.5 -95.001c0 -36 6.33301 -68.833 19 -98.5s29.834 -56.5 51.501 -80.5s47 -44.833 76 -62.5s59.667 -32.5 92 -44.5s65.333 -21 99 -27s66.5 -9 98.5 -9
c66 0 129.333 10.833 190 32.5s118 50.334 172 86.001s104.833 76.167 152.5 121.5s91.834 91.666 132.501 138.999c-45.333 27.333 -87.166 56.833 -125.499 88.5s-71.5 65.667 -99.5 102s-49.833 75.333 -65.5 117s-23.5 85.834 -23.5 132.501
c0 38.667 7.16699 75 21.5 109s34 63.833 59 89.5s54.667 46 89 61s71.166 22.5 110.499 22.5c44 0 85.667 -6.83301 125 -20.5s76.666 -32.334 111.999 -56.001s68.5 -51.834 99.5 -84.501s60.167 -68 87.5 -106c74.667 83.333 149.167 161.833 223.5 235.5
s145.833 138.167 214.5 193.5s133.5 99.166 194.5 131.499s116.167 48.5 165.5 48.5zM1560 766.007c31.333 -48 60 -97.6699 86 -149.003s49.5 -101.666 70.5 -150.999s39.667 -96.166 56 -140.499l42.5 -117.5c78 170 161.333 336.667 250 500
s188.334 324.666 299.001 483.999c18 26.667 30.833 48.834 38.5 66.501s11.5 32.834 11.5 45.501c0 21.333 -9 37.5 -27 48.5s-38.667 16.5 -62 16.5c-74 0 -174.833 -50.5 -302.5 -151.5s-281.834 -251.5 -462.501 -451.5zM915.998 749.004
c0 -35.333 6.66602 -68.832 19.999 -100.499s31.666 -62 54.999 -91s51 -56.333 83 -82s66.667 -49.834 104 -72.501l153 183l158 182c-23.333 30.667 -47.5 59.167 -72.5 85.5s-51.167 49.166 -78.5 68.499s-55.666 34.333 -84.999 45s-59.666 16 -90.999 16
c-35.333 0 -68 -6 -98 -18s-56 -28.5 -78 -49.5s-39.167 -45.667 -51.5 -74s-18.5 -59.166 -18.5 -92.499zM1771 179.005c-9.33301 30 -21.834 66.333 -37.501 109s-34 88.5 -55 137.5s-44.667 99.167 -71 150.5s-55.166 100.333 -86.499 147l-143 -164l-154 -183
c46.667 -26 95.5 -49.5 146.5 -70.5s100.667 -39.667 149 -56s94.333 -30.5 138 -42.5s81.5 -21.333 113.5 -28z" />
    <glyph glyph-name="B" unicode="B" horiz-adv-x="2068" 
d="M1681 1438l-30.4932 -38.502c-9.66699 -12.333 -19.167 -25.166 -28.5 -38.499c67.333 -24.667 121.666 -55.167 162.999 -91.5s73.333 -74.333 96 -114s37.834 -78.667 45.501 -117s11.5 -71.5 11.5 -99.5c0 -39.333 -6.5 -76.833 -19.5 -112.5
s-30.333 -68.167 -52 -97.5s-46.834 -54.833 -75.501 -76.5s-58.667 -38.167 -90 -49.5c64.667 -53.333 112.834 -112.666 144.501 -177.999s47.5 -131.333 47.5 -198c0 -56 -11.5 -109 -34.5 -159s-54.167 -93.667 -93.5 -131s-85.833 -67 -139.5 -89
s-110.834 -33 -171.501 -33c-52.667 0 -101.167 8.5 -145.5 25.5s-84 40.167 -119 69.5s-65.333 64 -91 104s-45.834 82.667 -60.501 128l50 15c24.667 -80 65.334 -141.833 122.001 -185.5s125 -65.5 205 -65.5c49.333 0 96.5 9.16699 141.5 27.5s84.5 43.333 118.5 75
s61 69 81 112s30 89.5 30 139.5c0 34 -4.66699 66.333 -14 97s-21.666 59.667 -36.999 87s-32.5 52.5 -51.5 75.5s-38.5 43.5 -58.5 61.5c-18 -3.33301 -36 -6 -54 -8s-35.667 -3 -53 -3c-24 0 -48.5 1.83301 -73.5 5.5s-47.667 9.16699 -68 16.5s-37 17 -50 29
s-19.5 26.667 -19.5 44c0 4 1 9.83301 3 17.5s6.16699 15.167 12.5 22.5s15.833 13.833 28.5 19.5s30 8.5 52 8.5c20.667 0 41.5 -2.33301 62.5 -7s41.167 -10.834 60.5 -18.501s38 -16.334 56 -26.001s34.333 -19.5 49 -29.5c24 10.667 48.167 25.167 72.5 43.5
s46.5 40.833 66.5 67.5s36.333 57.334 49 92.001s19 73.667 19 117c0 76 -21 144.333 -63 205s-104.333 107 -187 139c-40 -56 -77.333 -111.667 -112 -167s-67 -110.666 -97 -165.999s-58.167 -110.666 -84.5 -165.999s-51.5 -111.333 -75.5 -168
c-55.333 -129.333 -109.333 -239.833 -162 -331.5s-108.834 -166.5 -168.501 -224.5s-124.667 -100.5 -195 -127.5s-150.833 -40.5 -241.5 -40.5c-70 0 -130.333 11.5 -181 34.5s-92.334 54.5 -125.001 94.5s-56.834 86.5 -72.501 139.5s-23.5 109.5 -23.5 169.5
c0 66.667 10.667 135.5 32 206.5s53 141.833 95 212.5c26.667 44.667 59.667 91.167 99 139.5s84.333 96 135 143s107.167 91.667 169.5 134s129.666 79.333 201.999 111s149.666 57 231.999 76s169.166 28.5 260.499 28.5c56 0 107.167 -2.83301 153.5 -8.5
s89.166 -13.834 128.499 -24.501l46.5 46l48.5 46zM1283.01 1023c35.333 58.667 72.1699 113.835 110.503 165.502s79.5 101.5 123.5 149.5c-25.333 6 -52.166 10.667 -80.499 14s-58.166 5 -89.499 5c-100.667 0 -199.834 -13.833 -297.501 -41.5
s-190.667 -66.167 -279 -115.5s-170.166 -108 -245.499 -176s-140.5 -141.833 -195.5 -221.5s-98 -163.834 -129 -252.501s-46.5 -178.667 -46.5 -270c0 -45.333 6.16699 -86.5 18.5 -123.5s30.833 -68.667 55.5 -95s55.167 -46.666 91.5 -60.999
s78.166 -21.5 125.499 -21.5c79.333 0 148.666 14.833 207.999 44.5s112.166 70.167 158.499 121.5s88.166 111.166 125.499 179.499s73.833 141.166 109.5 218.499l109.5 239c37.333 82 79.666 162.333 126.999 241zM1563.01 631.999
c-10 7.33301 -21.8301 14.168 -35.4971 20.501s-27.834 11.666 -42.501 15.999s-29.334 7.83301 -44.001 10.5s-27.334 4 -38.001 4c-18.667 0 -30.5 -2.16699 -35.5 -6.5s-7.5 -8.16602 -7.5 -11.499c0 -6 4.5 -11.333 13.5 -16s20.333 -8.83398 34 -12.501
s28.834 -6.5 45.501 -8.5s33 -3 49 -3c7.33301 0 15.666 0.333008 24.999 1s21.333 2.66699 36 6z" />
    <glyph glyph-name="C" unicode="C" horiz-adv-x="1316" 
d="M640 689c0.666992 -1.33301 5.66016 -5.83203 14.9932 -13.499s22.5 -16.167 39.5 -25.5s37.833 -17.666 62.5 -24.999s52.667 -11 84 -11c52.667 0 102.334 10 149.001 30s89.834 46.333 129.501 79s75.334 70 107.001 112s58.5 85 80.5 129s39 87.333 51 130
s18 81 18 115c0 40.667 -6 76 -18 106s-28.167 54.667 -48.5 74s-44.333 33.666 -72 42.999s-57.5 14 -89.5 14c-63.333 0 -126.166 -11.167 -188.499 -33.5s-122.833 -52.833 -181.5 -91.5s-115 -84.167 -169 -136.5s-104.333 -108.5 -151 -168.5s-89 -122.5 -127 -187.5
s-70.5 -129.5 -97.5 -193.5s-47.833 -126.167 -62.5 -186.5s-22 -115.833 -22 -166.5c0 -58.667 8.5 -114 25.5 -166s42.5 -97.333 76.5 -136s76.5 -69.167 127.5 -91.5s110.5 -33.5 178.5 -33.5c60.667 0 123.667 9.33301 189 28s130.5 48.667 195.5 90
s129.167 94.833 192.5 160.5s124 145.5 182 239.5l36 -28c-62.667 -102 -128 -187.667 -196 -257s-136 -125.166 -204 -167.499s-135 -72.666 -201 -90.999s-128.667 -27.5 -188 -27.5c-85.333 0 -160.666 15.167 -225.999 45.5s-120 70.166 -164 119.499
s-77.167 105.5 -99.5 168.5s-33.5 127.167 -33.5 192.5c0 56 7.83301 115.667 23.5 179s37.834 127.666 66.501 192.999s63.167 130.666 103.5 195.999s85.333 127.833 135 187.5s103.5 115.167 161.5 166.5s118.833 95.833 182.5 133.5s129.334 67.334 197.001 89.001
s136.5 32.5 206.5 32.5c44 0 86.167 -6.16699 126.5 -18.5s75.833 -31.833 106.5 -58.5s55 -60.834 73 -102.501s27 -91.834 27 -150.501c0 -39.333 -6 -82 -18 -128s-29.5 -92.167 -52.5 -138.5s-51 -91.166 -84 -134.499s-70.333 -81.5 -112 -114.5
s-87.667 -59.5 -138 -79.5s-103.833 -30 -160.5 -30c-60.667 0 -113.5 10.167 -158.5 30.5s-83.5 45.5 -115.5 75.5l30 33v0z" />
    <glyph glyph-name="D" unicode="D" horiz-adv-x="2000" 
d="M1598 1438c-33.333 -35.333 -64.332 -72.335 -92.999 -111.002c62.667 -34.667 118.5 -76.167 167.5 -124.5s90.333 -101.5 124 -159.5s59.334 -120.167 77.001 -186.5s26.5 -134.833 26.5 -205.5c0 -62.667 -6.16699 -125 -18.5 -187s-31.666 -121.167 -57.999 -177.5
s-59.833 -108.666 -100.5 -156.999s-89.334 -90.333 -146.001 -126s-121.334 -63.667 -194.001 -84s-154.334 -30.5 -245.001 -30.5c-80.667 0 -157.334 7.5 -230.001 22.5s-142.334 31.5 -209.001 49.5c-51.333 -34.667 -107.5 -61.667 -168.5 -81s-129.833 -29 -206.5 -29
c-31.333 0 -58.333 2.83301 -81 8.5s-41.167 13.5 -55.5 23.5s-25 21.5 -32 34.5s-10.5 26.5 -10.5 40.5c0 16.667 4.16699 32.5 12.5 47.5s21 28.167 38 39.5s38.667 20.333 65 27s57.166 10 92.499 10c48.667 0 97.167 -5.16699 145.5 -15.5s97.5 -22.166 147.5 -35.499
c48.667 44 93.167 96.833 133.5 158.5s79 129 116 202s73.333 149.5 109 229.5s73.667 160.333 114 241s84 159.667 131 237s99.833 150 158.5 218c-50 21.333 -104.167 37.833 -162.5 49.5s-120.833 17.5 -187.5 17.5c-81.333 0 -159.666 -8.33301 -234.999 -25
s-145.666 -39.667 -210.999 -69s-125 -63.666 -179 -102.999s-100.167 -81.833 -138.5 -127.5s-68 -93.334 -89 -143.001s-31.5 -99.167 -31.5 -148.5c0 -32 6.33301 -62.333 19 -91s30 -53.834 52 -75.501s48 -38.834 78 -51.501s62.667 -19 98 -19
c27.333 0 54.5 3.16699 81.5 9.5s52.833 14.166 77.5 23.499s47.667 19.5 69 30.5s40 21.333 56 31s28.5 17.667 37.5 24s13.833 9.83301 14.5 10.5l32 -42c-31.333 -20.667 -63.833 -40.5 -97.5 -59.5s-68.5 -36 -104.5 -51s-73.333 -27 -112 -36s-78 -13.5 -118 -13.5
s-78 6.83301 -114 20.5s-67.5 33 -94.5 58s-48.5 54.833 -64.5 89.5s-24 73 -24 115c0 48 10.833 98.333 32.5 151s52.667 104.834 93 156.501s89.833 100.834 148.5 147.501s124.834 87.834 198.501 123.501s154.667 64 243 85s182.5 31.5 282.5 31.5
c72.667 0 141.167 -6.83301 205.5 -20.5s124.5 -33.167 180.5 -58.5c38 40.667 79 78.667 123 114zM1791 718.998c0 62 -6.99805 121.002 -20.998 177.002s-34.5 108 -61.5 156s-60.167 91.667 -99.5 131s-84.333 73 -135 101c-48.667 -70 -93 -144 -133 -222
s-77.667 -157 -113 -237l-104 -238c-34 -78.667 -69.5 -153.834 -106.5 -225.501s-77.167 -138.334 -120.5 -200.001s-92 -115.167 -146 -160.5c53.333 -14.667 106.666 -27.5 159.999 -38.5s108.333 -16.5 165 -16.5c117.333 0 220.666 20.167 309.999 60.5
s164 95.333 224 165s105.167 151.5 135.5 245.5s45.5 194.667 45.5 302zM320.003 -97c54 0 103.5 7.49902 148.5 22.499s86.833 36.5 125.5 64.5c-44 11.333 -86 20.833 -126 28.5s-78.333 11.5 -115 11.5c-52 0 -90.833 -6.83301 -116.5 -20.5s-38.5 -30.167 -38.5 -49.5
c0 -15.333 9.16699 -28.666 27.5 -39.999s49.833 -17 94.5 -17z" />
    <glyph glyph-name="E" unicode="E" horiz-adv-x="1337" 
d="M972 933c2 -0.666992 4.66406 -1.00586 7.99707 -1.00586h24c52 0 104.333 7 157 21s100.334 33.5 143.001 58.5s77.334 55 104.001 90s40 73.5 40 115.5c0 22.667 -5 42.834 -15 60.501s-23.833 32.5 -41.5 44.5s-39 21.167 -64 27.5s-52.5 9.5 -82.5 9.5
c-52.667 0 -104 -6.66699 -154 -20s-97 -31.5 -141 -54.5s-84.333 -50 -121 -81s-68.334 -64.667 -95.001 -101s-47.334 -74.166 -62.001 -113.499s-22 -78.666 -22 -117.999s7.33301 -76.666 22 -111.999c46 -1.33301 89 -4.66602 129 -9.99902s74.667 -13.5 104 -24.5
s52.333 -25.167 69 -42.5s25 -38.333 25 -63c0 -26.667 -10 -47 -30 -61s-45 -21 -75 -21c-24 0 -48.667 4 -74 12s-49.833 19.167 -73.5 33.5s-46.334 31.666 -68.001 51.999s-41.167 42.833 -58.5 67.5c-74 -6 -142.5 -23.167 -205.5 -51.5s-117.333 -65 -163 -110
s-81.5 -96.667 -107.5 -155s-39 -119.833 -39 -184.5c0 -52.667 8.83301 -100.167 26.5 -142.5s44 -78.5 79 -108.5s78.667 -53 131 -69s112.833 -24 181.5 -24c76 0 148.167 11.5 216.5 34.5s131.5 52.167 189.5 87.5s110.667 74.166 158 116.499s88.5 82.5 123.5 120.5
s63.167 71.5 84.5 100.5l42 56.5l36 -28l-62 -86.5c-26 -35.667 -57.5 -73.5 -94.5 -113.5s-79.667 -80.167 -128 -120.5s-102.333 -76.833 -162 -109.5s-124.834 -59.167 -195.501 -79.5s-147 -30.5 -229 -30.5c-90 0 -167.667 11.333 -233 34s-119.5 53.167 -162.5 91.5
s-74.833 82.666 -95.5 132.999s-31 103.5 -31 159.5c0 39.333 5 79.333 15 120s25.333 80.334 46 119.001s47.334 75.334 80.001 110.001s71.334 65.334 116.001 92.001s96 48.334 154 65.001s123 26.667 195 30c-12 24 -21.333 49.167 -28 75.5s-10 53.5 -10 81.5
c0 51.333 8.66699 99.833 26 145.5s41.166 87.667 71.499 126s66 72.5 107 102.5s84.833 55.5 131.5 76.5s95.167 37 145.5 48s100.166 16.5 149.499 16.5c50.667 0 95.834 -5.16699 135.501 -15.5s73.167 -24.833 100.5 -43.5s48.333 -41.167 63 -67.5
s22 -55.166 22 -86.499c0 -34.667 -7.16699 -67.334 -21.5 -98.001s-33.666 -58.5 -57.999 -83.5s-52.666 -47.333 -84.999 -67s-66.666 -36.167 -102.999 -49.5s-73.833 -23.5 -112.5 -30.5s-76 -10.5 -112 -10.5c-12 0 -21.667 0.333008 -29 1s-11.666 1 -12.999 1z
M945.997 620.994c0 16 -7.16895 29.167 -21.502 39.5s-33 18.5 -56 24.5s-49 10.5 -78 13.5s-58.5 4.83301 -88.5 5.5c12.667 -18.667 26.834 -35.167 42.501 -49.5s31.834 -26.5 48.501 -36.5s33.5 -17.667 50.5 -23s33.167 -8 48.5 -8c18 0 31.5 3.33301 40.5 10
s13.5 14.667 13.5 24z" />
    <glyph glyph-name="F" unicode="F" horiz-adv-x="1622" 
d="M1665 1184c-0.666992 0 -13.001 -11.8271 -37.001 -35.4941s-56 -59.667 -96 -108s-86.167 -109.333 -138.5 -183s-107.166 -160.5 -164.499 -260.5l-39 -68c22 5.33301 44.333 10.333 67 15s45.667 9 69 13l45 9c21.333 38.667 40.833 70.334 58.5 95.001
s34 44.167 49 58.5s28.833 24.166 41.5 29.499s24 8 34 8c12.667 0 25 -4.33301 37 -13s18 -24.334 18 -47.001c0 -18 -4.33301 -35.333 -13 -52s-21 -32.334 -37 -47.001s-35 -27.667 -57 -39s-46.333 -20.333 -73 -27l-39 -81.5l-42 -85.5l-45 -84.5
c-15.333 -27.667 -31.333 -53.834 -48 -78.501l-71 67l27.5 35l40 54c14.333 20 28.5 41.167 42.5 63.5s26 43.5 36 63.5l14 30l-92.5 -20.5c-31 -7 -62.833 -14.833 -95.5 -23.5c-51.333 -88 -101.5 -167.833 -150.5 -239.5s-101.167 -133 -156.5 -184
s-116 -90.333 -182 -118s-142 -41.5 -228 -41.5c-56 0 -112.5 7.83301 -169.5 23.5s-108.333 38.5 -154 68.5s-83 66.667 -112 110s-43.5 92.666 -43.5 147.999c0 43.333 8.5 81.833 25.5 115.5s40.167 62 69.5 85s63.5 40.333 102.5 52s80.167 17.5 123.5 17.5
c36 0 72.167 -4.33301 108.5 -13s71.5 -21 105.5 -37s66.167 -35.5 96.5 -58.5s57.5 -48.833 81.5 -77.5l-38 -29c-20 20 -42.333 37.833 -67 53.5s-51 29 -79 40s-56.667 19.333 -86 25s-58.333 8.5 -87 8.5c-31.333 0 -62 -4 -92 -12s-56.667 -20.833 -80 -38.5
s-42.333 -40.334 -57 -68.001s-22 -61.5 -22 -101.5c0 -36 9 -69.667 27 -101s42.5 -58.5 73.5 -81.5s67.333 -41.167 109 -54.5s86.167 -20 133.5 -20c67.333 0 128 12.5 182 37.5s103.833 59.167 149.5 102.5s88.667 94.166 129 152.499s80.5 120.5 120.5 186.5l-57 -19
l-58 -21l-19 49l88 28l84 26l118.5 194.5c41 66.333 85.833 131.333 134.5 195s102.167 124.5 160.5 182.5s123.5 110.667 195.5 158zM989.999 640.006c-61.333 -28 -122.335 -48.332 -183.002 -60.999s-117.667 -19 -171 -19c-62 0 -118.667 8.33301 -170 25
s-95.666 40 -132.999 70s-66.333 66 -87 108s-31 88.333 -31 139c0 63.333 10.833 119.666 32.5 168.999s51.167 92.833 88.5 130.5s81.333 69.5 132 95.5s105 47.333 163 64s118.333 28.667 181 36s124.667 11 186 11c70.667 0 139.334 -4.33301 206.001 -13
s131.5 -18.167 194.5 -28.5s124.167 -19.833 183.5 -28.5s117.333 -13 174 -13c64.667 0 124.334 5 179.001 15s101.667 21.167 141 33.5s70.166 23.666 92.499 33.999s33.833 15.5 34.5 15.5l25 -46c-2 -1.33301 -15 -7.5 -39 -18.5s-56.5 -23 -97.5 -36
s-89.833 -24.667 -146.5 -35s-119 -15.5 -187 -15.5c-63.333 0 -124.333 4.16699 -183 12.5s-117.834 17.5 -177.501 27.5s-121.5 19.167 -185.5 27.5s-133 12.5 -207 12.5c-109.333 0 -205.833 -10.5 -289.5 -31.5s-153.667 -51 -210 -90s-98.833 -86.333 -127.5 -142
s-43 -117.834 -43 -186.501c0 -47.333 9.16699 -88.666 27.5 -123.999s43 -64.666 74 -87.999s66.667 -40.833 107 -52.5s82.5 -17.5 126.5 -17.5c38.667 0 76 3.33301 112 10s67.667 14.167 95 22.5s49.333 16 66 23s25.334 10.5 26.001 10.5zM1544 705.007
c-11.333 0 -24.1689 -10.5029 -38.502 -31.5029s-30.166 -48.5 -47.499 -82.5c20.667 8 37.334 16.333 50.001 25s22.667 17.334 30 26.001s12.333 17.334 15 26.001s4 17 4 25c0 4.66699 -1.33301 7.83398 -4 9.50098s-5.66699 2.5 -9 2.5z" />
    <glyph glyph-name="G" unicode="G" horiz-adv-x="1452" 
d="M153 565c46 5.33301 90.6709 11.3301 134.004 17.9971s85.333 14.334 126 23.001c3.33301 82 17 160.667 41 236s55.333 145.5 94 210.5s83 124 133 177s102.5 98.333 157.5 136s111 66.834 168 87.501s111.833 31 164.5 31c70.667 0 124.5 -14.833 161.5 -44.5
s55.5 -73.834 55.5 -132.501c0 -68.667 -20 -138.334 -60 -209.001s-96.833 -138.5 -170.5 -203.5s-162.667 -124.667 -267 -179s-220.833 -99.166 -349.5 -134.499c0 -42 5.16699 -82.167 15.5 -120.5s25.833 -72.333 46.5 -102s46.167 -53.167 76.5 -70.5
s65.5 -26 105.5 -26c46.667 0 95.334 11 146.001 33s100.334 50 149.001 84s94.334 71.833 137.001 113.5s79.667 82.5 111 122.5c58.667 75.333 106 131.666 142 168.999l58 60l36 -38c-61.333 -59.333 -115.5 -122.666 -162.5 -189.999s-90.167 -135.5 -129.5 -204.5
s-76.333 -137.833 -111 -206.5s-70.334 -134.334 -107.001 -197.001s-75.834 -120.834 -117.501 -174.501s-89.167 -100.167 -142.5 -139.5s-113.833 -70.166 -181.5 -92.499s-145.834 -33.5 -234.501 -33.5c-82.667 0 -157.167 9.83301 -223.5 29.5s-122.833 47 -169.5 82
s-82.5 76.333 -107.5 124s-37.5 99.5 -37.5 155.5c0 59.333 10.167 110.5 30.5 153.5s46.666 78.333 78.999 106s69 48 110 61s82.167 19.5 123.5 19.5c50.667 0 94 -8 130 -24s67 -35 93 -57l-29 -41c-8 6.66699 -17.5 14 -28.5 22s-23.667 15.5 -38 22.5
s-30 12.833 -47 17.5s-35.167 7 -54.5 7c-38 0 -72.667 -7 -104 -21s-58.166 -33.833 -80.499 -59.5s-39.5 -56 -51.5 -91s-18 -73.5 -18 -115.5c0 -55.333 11.833 -104.166 35.5 -146.499s54.667 -77.666 93 -105.999s81.666 -49.833 129.999 -64.5s97.5 -22 147.5 -22
c75.333 0 140.833 10.833 196.5 32.5s105.334 50.834 149.001 87.501s83 79.667 118 129s69.167 101.833 102.5 157.5l103 171c35.333 58.333 75.666 115.5 120.999 171.5c-72.667 -60 -143.834 -105.833 -213.501 -137.5s-137.167 -47.5 -202.5 -47.5
c-40.667 0 -80 7.5 -118 22.5s-71.833 37.667 -101.5 68s-53.834 68.333 -72.501 114s-29 99.5 -31 161.5c-40.667 -8.66699 -82.334 -16 -125.001 -22s-86 -11 -130 -15zM1203 1427c-51.333 0 -102.666 -10.001 -153.999 -30.001s-100.5 -48 -147.5 -84
s-91.167 -78.667 -132.5 -128s-77.833 -103.166 -109.5 -161.499s-57.667 -120.166 -78 -185.499s-33.166 -131.666 -38.499 -198.999c135.333 38 252.666 84.833 351.999 140.5s181.666 114.167 246.999 175.5s114 122.666 146 183.999s48 117.333 48 168
c0 39.333 -11.167 69.166 -33.5 89.499s-55.5 30.5 -99.5 30.5z" />
    <glyph glyph-name="H" unicode="H" horiz-adv-x="2205" 
d="M1769 583c9.33301 -1.33301 22.334 -3.50195 39.001 -6.50195s34.834 -8.16699 54.501 -15.5s39.667 -17.5 60 -30.5s38.833 -30.5 55.5 -52.5s30.167 -49 40.5 -81s15.5 -70.333 15.5 -115c0 -48.667 -9 -96.334 -27 -143.001s-43 -88.167 -75 -124.5
s-70 -65.666 -114 -87.999s-91.667 -33.5 -143 -33.5c-53.333 0 -99.5 8.16699 -138.5 24.5s-71 39.333 -96 69s-43.5 65.334 -55.5 107.001s-18 87.834 -18 138.501c0 54 9 123.667 27 209s51.333 183.333 100 294c-76.667 -31.333 -152.5 -59.5 -227.5 -84.5
s-149.833 -48.5 -224.5 -70.5c-39.333 -60.667 -83 -120.167 -131 -178.5s-98.167 -113.166 -150.5 -164.499s-106.166 -98.5 -161.499 -141.5s-110 -80.167 -164 -111.5s-106.5 -55.666 -157.5 -72.999s-98.5 -26 -142.5 -26c-39.333 0 -71.333 5.66699 -96 17
s-44 25.166 -58 41.499s-23.667 34.166 -29 53.499s-8 37 -8 53c0 20 4.83301 42.167 14.5 66.5s24.5 49.166 44.5 74.499s45.333 50.166 76 74.499s66.667 47.166 108 68.499c64 32.667 127.667 62 191 88s126.166 49.833 188.499 71.5s124.166 41.834 185.499 60.501
l184 55c32.667 57.333 62.834 115.5 90.501 174.5s51.667 116.5 72 172.5s36.333 109.5 48 160.5s17.5 97.5 17.5 139.5c0 32 -5.16699 61.333 -15.5 88s-25 49.5 -44 68.5s-42.167 33.833 -69.5 44.5s-58 16 -92 16c-62.667 0 -122.5 -7.5 -179.5 -22.5
s-110.167 -35.167 -159.5 -60.5s-93.833 -55 -133.5 -89s-73.667 -70 -102 -108s-50.166 -76.833 -65.499 -116.5s-23 -78.167 -23 -115.5s7.83301 -68.166 23.5 -92.499s35.5 -43.666 59.5 -57.999s49.833 -24.333 77.5 -30s53.5 -8.5 77.5 -8.5
c27.333 0 53.5 2.33301 78.5 7s47 9.66699 66 15s34.333 10.5 46 15.5l17.5 7.5l22 -48c-3.33301 -2 -12.833 -5.83301 -28.5 -11.5s-36.167 -11.834 -61.5 -18.501s-54.833 -12.5 -88.5 -17.5s-70.167 -7.5 -109.5 -7.5c-40.667 0 -79.167 4.66699 -115.5 14s-68 24 -95 44
s-48.333 45.833 -64 77.5s-23.5 70.167 -23.5 115.5c0 51.333 11.833 100.666 35.5 147.999s55.5 91.833 95.5 133.5s86.167 79.5 138.5 113.5s107.333 63.333 165 88s116 43.667 175 57s115.167 20 168.5 20c48.667 0 93.167 -6.66699 133.5 -20
s75.166 -33.166 104.499 -59.499s52.166 -59.166 68.499 -98.499s24.5 -85 24.5 -137c0 -44 -5.33301 -91 -16 -141s-24.667 -99.667 -42 -149s-37 -97 -59 -143s-44.667 -87.333 -68 -124c74.667 22 148.334 45.167 221.001 69.5s146 52.5 220 84.5
c74 144 144.333 262.5 211 355.5s128.5 166.333 185.5 220s108.833 90.834 155.5 111.501s87 31 121 31c39.333 0 70 -10.667 92 -32s33 -51 33 -89c0 -43.333 -16.167 -89.5 -48.5 -138.5s-76.166 -96.5 -131.5 -142.5c-82.667 -68.667 -164.667 -128.667 -246 -180
s-163.333 -97 -246 -137c-38 -80.667 -69.333 -153.334 -94 -218.001s-44.167 -122.667 -58.5 -174s-24.5 -97 -30.5 -137s-9 -75.333 -9 -106c0 -38.667 5.33301 -72.167 16 -100.5s25.5 -51.833 44.5 -70.5s41.5 -32.5 67.5 -41.5s54.667 -13.5 86 -13.5
c41.333 0 80.5 8.83301 117.5 26.5s69.5 41.834 97.5 72.501s50.167 66.5 66.5 107.5s24.5 84.833 24.5 131.5c0 40 -4.83301 74 -14.5 102s-22 51.167 -37 69.5s-31.5 32.666 -49.5 42.999s-34.833 18 -50.5 23s-29.334 8 -41.001 9s-18.834 1.5 -21.501 1.5z
M180.001 -44.002c54.667 0 112.67 14.6631 174.003 43.9961s123.166 69.833 185.499 121.5s123.666 112.834 183.999 183.501s116.5 147.334 168.5 230.001l-62 -18c-42.667 -12.667 -91 -28.167 -145 -46.5s-109 -39.166 -165 -62.499s-110.833 -48.833 -164.5 -76.5
s-101.334 -57.167 -143.001 -88.5s-75.167 -64.5 -100.5 -99.5s-38 -71.5 -38 -109.5c0 -25.333 9.83301 -44.666 29.5 -57.999s45.167 -20 76.5 -20zM1690 883.994c70 36 140 76.8359 210 122.503s141 98.167 213 157.5c29.333 24 54.166 47.667 74.5 71
c20.333 23.333 36.833 45.333 49.5 66s21.834 39.834 27.501 57.501s8.5 33.167 8.5 46.5c0 19.333 -5.83301 35.666 -17.5 48.999s-30.167 20 -55.5 20c-27.333 0 -55.5 -7.83301 -84.5 -23.5s-58.5 -37.334 -88.5 -65.001s-59.833 -60.334 -89.5 -98.001
s-58.834 -78.334 -87.501 -122.001s-56.5 -89.5 -83.5 -137.5s-52.5 -96 -76.5 -144z" />
    <glyph glyph-name="I" unicode="I" horiz-adv-x="1516" 
d="M1074 295c-70.667 48.667 -126.331 100.176 -166.998 154.509s-71.334 108.833 -92.001 163.5s-33.834 107.667 -39.501 159s-8.5 98.666 -8.5 141.999c0 73.333 7.16699 140.166 21.5 200.499s33.333 114.333 57 162s51 89.167 82 124.5s63.5 64.666 97.5 87.999
s68.167 40.666 102.5 51.999s66.5 17 96.5 17c45.333 0 87 -12.167 125 -36.5s70.833 -58.666 98.5 -102.999s49.334 -97.333 65.001 -159s23.5 -129.5 23.5 -203.5c0 -98 -10.333 -193.833 -31 -287.5s-50.834 -182.334 -90.501 -266.001s-88.167 -160.5 -145.5 -230.5
s-122.5 -130.5 -195.5 -181.5s-153.333 -90.667 -241 -119s-181.834 -42.5 -282.501 -42.5c-88 0 -169.333 11.667 -244 35s-139 54.333 -193 93s-96.333 83.167 -127 133.5s-46 102.5 -46 156.5c0 50.667 8.33301 93 25 127s38.834 61.333 66.501 82s59.167 35.5 94.5 44.5
s71.666 13.5 108.999 13.5c70 0 137.5 -9.66699 202.5 -29s127 -46.666 186 -81.999s114.167 -78 165.5 -128s98.666 -105.667 141.999 -167l-43 -30c-48 68.667 -98.333 126.667 -151 174s-105 85.666 -157 114.999s-102.667 50.333 -152 63s-94.666 19 -135.999 19
c-42 0 -78 -5 -108 -15s-54.833 -23.667 -74.5 -41s-34.167 -38.333 -43.5 -63s-14 -51.334 -14 -80.001c0 -52.667 13.667 -101.5 41 -146.5s64 -84 110 -117s99 -58.833 159 -77.5s122.667 -28 188 -28c80 0 153.833 10.667 221.5 32s129.5 50.666 185.5 87.999
s106.333 81.166 151 131.499s84.5 104.666 119.5 162.999s64.833 119 89.5 182s45 125.667 61 188s27.833 123 35.5 182s11.5 113.5 11.5 163.5c0 64.667 -5.83301 121.5 -17.5 170.5s-26.834 90 -45.501 123s-40.167 58 -64.5 75s-48.833 25.5 -73.5 25.5
c-39.333 0 -79.333 -14.333 -120 -43s-77.5 -70.334 -110.5 -125.001s-59.833 -121.667 -80.5 -201s-31 -169.333 -31 -270c0 -74.667 6.83301 -141.5 20.5 -200.5s31.334 -110.5 53.001 -154.5s45.334 -81 71.001 -111s50.5 -53.333 74.5 -70z" />
    <glyph glyph-name="J" unicode="J" horiz-adv-x="1274" 
d="M1153 160l-83.499 21.499c-27.667 7 -55.834 13.5 -84.501 19.5c-34 -69.333 -70 -137.333 -108 -204s-78.333 -132.334 -121 -197.001c-32.667 -49.333 -69.167 -97.666 -109.5 -144.999s-83 -91.833 -128 -133.5s-91.667 -80 -140 -115s-97 -65.333 -146 -91
s-97.667 -45.5 -146 -59.5s-95.166 -21 -140.499 -21c-40.667 0 -81.667 7.16699 -123 21.5s-78.5 35.833 -111.5 64.5s-59.833 64.5 -80.5 107.5s-31 93.5 -31 151.5c0 30 3.5 61.667 10.5 95s18.5 67.666 34.5 102.999s36.667 71.5 62 108.5s56.333 74.833 93 113.5
c48.667 51.333 103.167 95.666 163.5 132.999s124.5 68.166 192.5 92.499s139 42.333 213 54s149 17.5 225 17.5c50 0 99.833 -2.33301 149.5 -7s99.5 -11.334 149.5 -20.001c35.333 73.333 67.333 146.333 96 219s53.667 144.334 75 215.001c32 108 55 201.667 69 281
s21 148 21 206c0 49.333 -4 91.833 -12 127.5s-18.333 66 -31 91s-27.334 45.333 -44.001 61s-33.5 27.667 -50.5 36s-33.667 14 -50 17s-30.833 4.5 -43.5 4.5c-53.333 0 -101 -12.667 -143 -38s-77.5 -61 -106.5 -107s-51.167 -101.5 -66.5 -166.5
s-23 -137.167 -23 -216.5c0 -62 5.33301 -119.333 16 -172s24 -100.667 40 -144s33.5 -81.666 52.5 -114.999s36.667 -61.333 53 -84s29.833 -40 40.5 -52s16.334 -18 17.001 -18l-31 -32c-42.667 36.667 -82.667 77.334 -120 122.001s-69.666 92.667 -96.999 144
s-49 105.833 -65 163.5s-24 118.167 -24 181.5c0 72 10.333 143 31 213s50.667 132.833 90 188.5s87.666 100.5 144.999 134.5s122.666 51 195.999 51c16.667 0 36 -1.66699 58 -5s44.667 -10.166 68 -20.499s46.5 -24.833 69.5 -43.5s43.333 -43.5 61 -74.5s32 -69 43 -114
s16.5 -98.833 16.5 -161.5c0 -28.667 -1.33301 -59.167 -4 -91.5s-6.66699 -67.166 -12 -104.499c-18.667 -124 -46.667 -245.833 -84 -365.5s-83 -237.5 -137 -353.5c28 -6 55.333 -12.333 82 -19s53 -13.667 79 -21zM-54.999 -713.001
c50 -2.66699 101.993 6.99414 155.993 28.9941s108.333 53.833 163 95.5s109.167 91.834 163.5 150.501s107.333 123 159 193s101.334 144.333 149.001 223s92.167 159.334 133.5 242.001c-34 4.66699 -67.833 8.33398 -101.5 11.001s-68.167 4 -103.5 4
c-104 0 -200.167 -11.667 -288.5 -35s-168.666 -54.333 -240.999 -93s-136.166 -83 -191.499 -133s-101.666 -101.5 -138.999 -154.5s-65.666 -105.667 -84.999 -158s-29 -100.166 -29 -143.499c0 -34 5.83301 -65.167 17.5 -93.5s28.334 -52.666 50.001 -72.999
s48.334 -36.166 80.001 -47.499s67.5 -17 107.5 -17z" />
    <glyph glyph-name="K" unicode="K" horiz-adv-x="2369" 
d="M1679 1352c-39.333 -14.667 -75.5029 -26.668 -108.503 -36.001s-64 -16.666 -93 -21.999s-57 -9 -84 -11s-54.5 -3 -82.5 -3c-45.333 0 -92.333 3.16699 -141 9.5s-95.667 9.5 -141 9.5c-60.667 0 -118.834 -7.83301 -174.501 -23.5s-104.834 -39 -147.501 -70
s-76.667 -69.833 -102 -116.5s-38 -101.334 -38 -164.001c0 -38 6 -72.5 18 -103.5s29.333 -57.5 52 -79.5s50.334 -39 83.001 -51s69.334 -18 110.001 -18c46 0 86 5.66699 120 17s62.167 24 84.5 38s39.166 27 50.499 39l19 20l42 -31c-2 -2.66699 -11.333 -12 -28 -28
s-40.167 -33 -70.5 -51s-67.666 -34.333 -111.999 -49s-95.166 -22 -152.499 -22c-37.333 0 -75.5 5 -114.5 15s-74.5 27 -106.5 51s-58.333 55.667 -79 95s-31 88 -31 146c0 47.333 7.33301 91 22 131s34.834 76.333 60.501 109s56.334 61.5 92.001 86.5
s74.334 45.833 116.001 62.5s85.834 29.334 132.501 38.001s94 13 142 13c20.667 0 44.834 -1.16699 72.501 -3.5l85 -7l85.5 -7c28 -2.33301 53 -3.5 75 -3.5c24.667 0 51.167 1.5 79.5 4.5s59.666 8.5 93.999 16.5s72.166 19.167 113.499 33.5s87.666 32.833 138.999 55.5
l25 -45l-21 -21c-14 -14 -33.333 -38.667 -58 -74s-53.667 -83.666 -87 -144.999s-70 -139.666 -110 -234.999l-121.5 -285.5c-41 -94.333 -85.167 -183.833 -132.5 -268.5s-99.166 -163.167 -155.499 -235.5s-120 -134.833 -191 -187.5s-150.333 -93.834 -238 -123.501
s-186.834 -44.5 -297.501 -44.5c-66 0 -126.833 7.66699 -182.5 23s-103.5 37.5 -143.5 66.5s-71.333 64.167 -94 105.5s-34 88 -34 140c0 64.667 13.667 121.167 41 169.5s63.666 88.833 108.999 121.5s97.833 57.167 157.5 73.5s121.5 24.5 185.5 24.5
c61.333 0 123 -6 185 -18s121.667 -29 179 -51l-19 -49c-42.667 16 -89.667 28.167 -141 36.5s-99.333 12.5 -144 12.5c-68.667 0 -130 -7.33301 -184 -22s-99.833 -35.834 -137.5 -63.501s-66.334 -61.167 -86.001 -100.5s-29.5 -83.333 -29.5 -132s11.5 -90.5 34.5 -125.5
s52.833 -63.667 89.5 -86s77.5 -38.833 122.5 -49.5s89.167 -16 132.5 -16c80.667 0 153.5 10.833 218.5 32.5s123.833 51.167 176.5 88.5s99.834 81 141.501 131s80 103.5 115 160.5s67.167 115.833 96.5 176.5l85 179c47.333 109.333 95.666 212.333 144.999 309
c20.667 41.333 42.834 83.333 66.501 126s47.834 83.5 72.501 122.5s49.5 75 74.5 108s49.167 60.167 72.5 81.5zM2696 1109c0 0.666992 2.66797 6.33398 8.00098 17.001s11.166 24.5 17.5 41.5c6.33301 17 12 36.167 17 57.5s7.5 43 7.5 65
c0 22.667 -4.16699 43.5 -12.5 62.5s-19.666 35.333 -34 49c-14.333 13.667 -31.5 24.334 -51.5 32.001s-41.333 11.5 -64 11.5c-30 0 -59.167 -8 -87.5 -24s-58 -42.167 -89 -78.5s-64.5 -83.666 -100.5 -141.999s-77 -129.833 -123 -214.5
c-25.333 -47.333 -50.833 -89.166 -76.5 -125.499s-51.167 -68.166 -76.5 -95.499s-50.333 -50.833 -75 -70.5s-48.667 -36.167 -72 -49.5c22 -26 40.5 -58.167 55.5 -96.5s22.5 -85.5 22.5 -141.5c0 -30 -3.83301 -63 -11.5 -99s-16 -72.333 -25 -109
s-17.167 -72.334 -24.5 -107.001s-11 -65.334 -11 -92.001c0 -36 5.33301 -65 16 -87s24.334 -39.167 41.001 -51.5s34.834 -20.5 54.501 -24.5s38.167 -6 55.5 -6c28.667 0 56.167 4.5 82.5 13.5s49.833 19.167 70.5 30.5c24 12.667 46.333 27.667 67 45l33 -41
c-2 -1.33301 -10.833 -7.83301 -26.5 -19.5s-36.334 -24.167 -62 -37.5c-25.667 -13.333 -54.834 -25.333 -87.501 -36s-66.667 -16 -102 -16c-36.667 0 -70.834 6.33301 -102.501 19s-59 30.667 -82 54s-41.167 51 -54.5 83s-20 67.667 -20 107
c0 37.333 4.66699 74.333 14 111s19.666 72.667 30.999 108s21.666 69.666 30.999 102.999s14 65.333 14 96c0 26.667 -3.16699 54 -9.5 82s-18.5 54.667 -36.5 80c-30.667 -9.33301 -60 -17 -88 -23s-60 -9 -96 -9c-30 0 -53.667 3.5 -71 10.5s-30.166 15 -38.499 24
s-13.666 18 -15.999 27s-3.5 15.833 -3.5 20.5c0 28 12.5 51.833 37.5 71.5s59.167 29.5 102.5 29.5c23.333 0 51 -5.16699 83 -15.5s65.333 -27.5 100 -51.5c36.667 26 70.5 58.667 101.5 98s60.5 82.5 88.5 129.5s55.333 96.333 82 148l82 154.5
c50 91.333 106.667 161.166 170 209.499s130.333 72.5 201 72.5c30.667 0 60.834 -4.83301 90.5 -14.5c29.667 -9.66699 56.167 -23.834 79.5 -42.501s42.166 -41.5 56.499 -68.5s21.5 -57.833 21.5 -92.5c0 -25.333 -2.83301 -50 -8.5 -74s-12 -45.5 -19 -64.5
s-13.667 -34.667 -20 -47s-9.83301 -19.5 -10.5 -21.5zM1771 663.999c-17.333 13.333 -37.501 24.666 -60.501 33.999s-45.833 14 -68.5 14c-26 0 -46.167 -4.5 -60.5 -13.5s-21.5 -19.5 -21.5 -31.5c0 -7.33301 4.83301 -14.666 14.5 -21.999s28.834 -11 57.501 -11
c20.667 0 43.5 2.5 68.5 7.5s48.5 12.5 70.5 22.5z" />
    <glyph glyph-name="L" unicode="L" horiz-adv-x="1708" 
d="M1133 -129c-43.333 0 -87.1699 3.84082 -131.503 11.5078s-89.166 17.667 -134.499 30s-90.666 25.833 -135.999 40.5l-134 43c-52.667 -32 -107.667 -57.167 -165 -75.5s-117.666 -27.5 -180.999 -27.5c-54 0 -95.333 9.66699 -124 29s-43 45 -43 77
c0 42 23.333 74.333 70 97s117.334 34 212.001 34c41.333 0 83 -3 125 -9s84.667 -13.667 128 -23c42 36.667 82 78 120 124s75 95.333 111 148c-27.333 -3.33301 -55 -5.83301 -83 -7.5s-56.333 -2.5 -85 -2.5c-104.667 0 -198 12.5 -280 37.5s-151.333 59.333 -208 103
s-99.834 95 -129.501 154s-44.5 122.5 -44.5 190.5c0 80 15.333 151 46 213s72.834 114.167 126.501 156.5s116.834 74.666 189.501 96.999s150.667 33.5 234 33.5c52.667 0 100.667 -4 144 -12s80.833 -16.667 112.5 -26s56.5 -18.333 74.5 -27s28 -13.334 30 -14.001
l-26 -45c-0.666992 0 -9 3.83301 -25 11.5s-38 15.834 -66 24.501s-61.333 16.667 -100 24s-80.334 11 -125.001 11c-78.667 0 -149.167 -11.5 -211.5 -34.5s-115 -54.5 -158 -94.5s-76 -86.833 -99 -140.5s-34.5 -110.834 -34.5 -171.501c0 -68 15.667 -128.833 47 -182.5
s73.333 -99 126 -136s113.834 -65.167 183.501 -84.5s142.834 -29 219.501 -29c31.333 0 62.166 1 92.499 3s60.5 5.33301 90.5 10c47.333 74 93.166 150.667 137.499 230l132.5 233c44 76 88.333 148.167 133 216.5s91.167 128.166 139.5 179.499
s99.166 92.166 152.499 122.499s110.666 45.5 171.999 45.5c24 0 46.333 -3.83301 67 -11.5s38.667 -19.334 54 -35.001s27.333 -35.5 36 -59.5s13 -52 13 -84c0 -52 -10 -106.833 -30 -164.5s-49 -115.334 -87 -173.001s-84.333 -114.334 -139 -170.001
s-116.667 -107.167 -186 -154.5s-145.333 -89.5 -228 -126.5s-170.667 -65.833 -264 -86.5c-44 -60.667 -89.333 -117.834 -136 -171.501s-96 -102.167 -148 -145.5c50.667 -13.333 100.334 -27.5 149.001 -42.5l138.5 -41c43.667 -12.333 84.167 -22.666 121.5 -30.999
s70.333 -12.5 99 -12.5c42.667 0 83.834 7.33301 123.501 22s79.167 40.667 118.5 78l41 -32c-0.666992 -0.666992 -4.33398 -4.83398 -11.001 -12.501s-16.667 -17 -30 -28s-30 -22.667 -50 -35s-43.5 -23.833 -70.5 -34.5s-57.667 -19.5 -92 -26.5
s-72.5 -10.5 -114.5 -10.5zM1762 1404.01c-37.333 0 -74.335 -13.333 -111.002 -40s-73.667 -62.834 -111 -108.501s-75.166 -99.334 -113.499 -161.001l-118.5 -197l-127 -215.5c-44 -74 -90 -146.667 -138 -218c80 22 156.167 50.667 228.5 86s139.333 75 201 119
s117.334 91.167 167.001 141.5s92 101.833 127 154.5s61.833 104.834 80.5 156.501s28 101.167 28 148.5c0 24.667 -3 45.5 -9 62.5s-14.167 30.833 -24.5 41.5s-22.333 18.334 -36 23.001s-28.167 7 -43.5 7zM244.994 -54.9922c49.333 0 96 6.83008 140 20.4971
s86.667 32.5 128 56.5c-44 12.667 -86.5 23 -127.5 31s-80.5 12 -118.5 12c-45.333 0 -78.5 -6.66699 -99.5 -20s-31.5 -28.666 -31.5 -45.999c0 -5.33301 1.5 -11.166 4.5 -17.499s8.5 -12.166 16.5 -17.499s19 -9.83301 33 -13.5s32.333 -5.5 55 -5.5z" />
    <glyph glyph-name="M" unicode="M" horiz-adv-x="2475" 
d="M2645 -345c-2 -1.33301 -10.998 -6.00293 -26.998 -14.0029s-37 -16.667 -63 -26s-55.667 -17.833 -89 -25.5s-68 -11.5 -104 -11.5c-58.667 0 -111.334 10.333 -158 31c-46.667 20.667 -86.167 49.834 -118.5 87.501s-57.166 83 -74.499 136s-26 111.833 -26 176.5
c0 62 7.66699 130.167 23 204.5s35.333 150.833 60 229.5s52.5 157.334 83.5 236.001s62.333 153.5 94 224.5l90.5 195l74 147.5l-128 -147.5l-153.5 -183l-169.5 -212l-177.5 -234l-177.5 -249c-58.667 -85 -114.667 -170.5 -168 -256.5l-48 16
c10 108.667 26.5 216.5 49.5 323.5s49 210 78 309s59.667 192 92 279s63.166 164.833 92.499 233.5c-44.667 -61.333 -89.167 -127.833 -133.5 -199.5l-134.5 -221l-140 -228c-48 -76.333 -98 -149.666 -150 -219.999s-106.833 -136 -164.5 -197s-119 -114 -184 -159
s-134.333 -80.5 -208 -106.5s-152.5 -39 -236.5 -39c-64.667 0 -123.334 9.66699 -176.001 29s-97.834 45.833 -135.501 79.5s-66.667 73.167 -87 118.5s-30.5 94.333 -30.5 147c0 51.333 8.16699 97.833 24.5 139.5s38.166 78.667 65.499 111s59.166 60.333 95.499 84
s74.5 43.167 114.5 58.5s80.5 26.666 121.5 33.999s80.167 11 117.5 11c77.333 0 151.333 -9.16699 222 -27.5s138.667 -50.833 204 -97.5l-35 -39c-0.666992 0.666992 -9.33398 6.83398 -26.001 18.501s-40.667 24.5 -72 38.5s-70.166 26.667 -116.499 38
s-99.166 17 -158.499 17c-57.333 0 -112.833 -7.66699 -166.5 -23s-101 -38.5 -142 -69.5s-73.833 -70 -98.5 -117s-37 -102.167 -37 -165.5c0 -45.333 8.83301 -87.333 26.5 -126s42.167 -72.167 73.5 -100.5s69 -50.5 113 -66.5s92.667 -24 146 -24
c80 0 156.667 17 230 51s144 80 212 138s133.5 125.667 196.5 203s123.667 159 182 245s114.833 174.333 169.5 265l159 262.5l150 237c48.667 73.667 96.334 137.167 143.001 190.5l45 -27l-76 -235.5l-55.5 -178.5l-40 -133l-28.5 -100l-21.5 -79.5l-19 -70.5
c-6.33301 -23.333 -13.5 -48 -21.5 -74l-29 -90.5l-40 -119l-56 -159.5l172.5 250l176.5 238l172.5 220l160 195l139 163.5l110.5 125.5l73.5 81c17.667 19.333 26.834 29.333 27.5 30l42 -31l-117 -292.5l-111.5 -285.5l-99.5 -268c-30.667 -86 -57.334 -166.5 -80 -241.5
c-22.667 -75 -40.5 -143.333 -53.5 -205s-19.5 -114.5 -19.5 -158.5c0 -52 6.16699 -99 18.5 -141s30.166 -77.667 53.5 -107c23.333 -29.333 52.166 -51.833 86.5 -67.5c34.333 -15.667 73.166 -23.5 116.5 -23.5c32.667 0 64.5 3.66699 95.5 11s58.5 15.333 82.5 24
s43.333 16.667 58 24s22.334 11 23 11z" />
    <glyph glyph-name="N" unicode="N" horiz-adv-x="2090" 
d="M2873 1293c1.33301 8 2.49219 15.8281 3.49219 23.4951s1.5 15.167 1.5 22.5c0 28 -5.5 54.833 -16.5 80.5s-27 48.334 -48 68.001s-46.5 35.334 -76.5 47.001s-63.667 17.5 -101 17.5c-39.333 0 -81 -8.5 -125 -25.5s-88 -46.833 -132 -89.5
c-42.667 -41.333 -86.5 -94.5 -131.5 -159.5s-89.667 -136.667 -134 -215s-87.666 -160.833 -129.999 -247.5l-120.5 -256l-105 -241l-83 -202.5c-23.333 -58.333 -41.5 -105.166 -54.5 -140.499s-19.833 -53.666 -20.5 -54.999l-51 13l-21.5 139
c-6.33301 41.333 -11.666 81 -15.999 119s-7.5 75.667 -9.5 113s-3 77.333 -3 120c0 34.667 1.5 74.334 4.5 119.001s7.33301 92 13 142s12.334 101.333 20.001 154s16 104.334 25 155.001s18.5 98.834 28.5 144.501s20.333 86.834 31 123.501
c-56.667 -84.667 -108.5 -170 -155.5 -256l-133.5 -253l-122 -240.5c-39.333 -77.667 -79.666 -150.5 -120.999 -218.5s-85 -130.333 -131 -187s-96.5 -105.167 -151.5 -145.5s-115.833 -71.666 -182.5 -93.999s-141.334 -33.5 -224.001 -33.5
c-62.667 0 -121.834 8.66699 -177.501 26s-104.5 41.666 -146.5 72.999s-75.167 69.333 -99.5 114s-36.5 94 -36.5 148c0 61.333 13.167 116.166 39.5 164.499s61.166 89 104.499 122s93.333 58.167 150 75.5s115.334 26 176.001 26c34.667 0 69.834 -2.33301 105.501 -7
s70.667 -12.334 105 -23.001s67.5 -24.834 99.5 -42.501s61.667 -39.5 89 -65.5l-39 -35l-21.5 18.5c-14.333 12.333 -35.666 25.833 -63.999 40.5s-64.166 28.167 -107.499 40.5s-94 18.5 -152 18.5c-46.667 0 -92 -6.66699 -136 -20s-83.167 -33 -117.5 -59
s-61.833 -58 -82.5 -96s-31 -82 -31 -132c0 -51.333 11 -97.166 33 -137.499s51.333 -74.333 88 -102s78.334 -48.667 125.001 -63s94.667 -21.5 144 -21.5c73.333 0 139.833 12.167 199.5 36.5s115 58.5 166 102.5s98.667 96.667 143 158s87.5 129 129.5 203
s84.333 153.167 127 237.5l135 261.5c47.333 90 98.333 181.667 153 275s115 186 181 278l46 -24c-22 -64.667 -39.667 -132.834 -53 -204.501s-23.5 -145.334 -30.5 -221.001s-11.667 -152.167 -14 -229.5s-3.83301 -153.666 -4.5 -228.999s-1.16699 -148.833 -1.5 -220.5
s-2.16602 -139.5 -5.49902 -203.5l82 203l106 245l123.5 262.5c43.667 89 88.334 174.167 134.001 255.5s92 155.833 139 223.5s93.167 123.5 138.5 167.5c50 48 100.167 81.833 150.5 101.5s98.5 29.5 144.5 29.5c45.333 0 86.166 -7.5 122.5 -22.5
c36.333 -15 67.166 -34.667 92.5 -59c25.333 -24.333 44.666 -52.5 58 -84.5c13.333 -32 20 -65 20 -99c0 -18.667 -2 -38 -6 -58z" />
    <glyph glyph-name="O" unicode="O" horiz-adv-x="1573" 
d="M1395 1259c-0.666992 1.33301 -5.34082 8.67285 -14.0078 22.0059s-23.334 27.666 -44.001 42.999s-48.334 29.166 -83.001 41.499s-78 18.5 -130 18.5c-82.667 0 -164.167 -16.167 -244.5 -48.5s-156.833 -76.5 -229.5 -132.5s-139.834 -121.5 -201.501 -196.5
s-115.167 -155 -160.5 -240s-80.666 -172.667 -105.999 -263s-38 -178.833 -38 -265.5c0 -60.667 9.5 -116.667 28.5 -168s46.333 -95.5 82 -132.5s79.167 -66 130.5 -87s109.666 -31.5 174.999 -31.5c57.333 0 114.5 8.33301 171.5 25s112.5 40 166.5 70
s105.833 65.833 155.5 107.5s96.167 87 139.5 136s82.666 101 117.999 156s65.666 111.167 90.999 168.5s44.833 115 58.5 173s20.5 114.333 20.5 169c0 57.333 -7.66699 108 -23 152s-36.666 80.833 -63.999 110.5s-59.833 52 -97.5 67s-78.834 22.5 -123.501 22.5
c-43.333 0 -86.666 -7.83301 -129.999 -23.5s-84.833 -37.667 -124.5 -66s-76.667 -61.833 -111 -100.5s-64.166 -80.834 -89.499 -126.501s-45.166 -94.334 -59.499 -146.001s-21.5 -104.167 -21.5 -157.5c0 -40.667 5 -78.167 15 -112.5s23.333 -64.833 40 -91.5
s35.834 -48.834 57.501 -66.501s44.167 -29.834 67.5 -36.501l-9 -42c-33.333 4.66699 -67.166 15.667 -101.499 33s-65.333 41.166 -93 71.499s-50.334 67.666 -68.001 111.999s-26.5 95.5 -26.5 153.5c0 54.667 8 108.834 24 162.501s38.5 104.667 67.5 153
s63.5 93 103.5 134s84.167 76.333 132.5 106s100 53 155 70s111.5 25.5 169.5 25.5c55.333 0 105.333 -9.5 150 -28.5s82.667 -46 114 -81s55.5 -77.5 72.5 -127.5s25.5 -106 25.5 -168c0 -58.667 -7.16699 -118.834 -21.5 -180.501s-34.666 -122.667 -60.999 -183
s-58.166 -119.333 -95.499 -177s-78.666 -112.167 -123.999 -163.5s-94.166 -98.5 -146.499 -141.5s-107.166 -80.167 -164.499 -111.5s-116.333 -55.666 -177 -72.999s-121.667 -26 -183 -26c-71.333 0 -138.666 11.833 -201.999 35.5s-118.5 58.5 -165.5 104.5
s-84.167 102.5 -111.5 169.5s-41 143.833 -41 230.5c0 96.667 12.5 191.667 37.5 285s60.333 181.833 106 265.5s100.5 160.834 164.5 231.501s135 131.667 213 183s162 91.5 252 120.5s183.667 43.5 281 43.5c45.333 0 85.333 -3.66699 120 -11s64.834 -16.5 90.501 -27.5
s47.167 -23 64.5 -36s31.333 -25.333 42 -37s18.334 -21.5 23.001 -29.5s7.33398 -12.667 8.00098 -14z" />
    <glyph glyph-name="P" unicode="P" horiz-adv-x="1795" 
d="M1862 1461c-48 -36 -92.998 -79 -134.998 -129c40.667 -25.333 75 -53.166 103 -83.499s50.5 -61.166 67.5 -92.499s29.167 -62.333 36.5 -93s11 -59 11 -85c0 -65.333 -12.333 -122.166 -37 -170.499s-57.167 -88.5 -97.5 -120.5s-86.666 -55.833 -138.999 -71.5
s-106.5 -23.5 -162.5 -23.5c-62.667 0 -124.334 7 -185.001 21c-28 -59.333 -58.333 -118.333 -91 -177s-68.167 -114.834 -106.5 -168.501s-80 -103.667 -125 -150s-93.333 -86.333 -145 -120s-107.5 -60.167 -167.5 -79.5s-124 -29 -192 -29c-66 0 -127 10.667 -183 32
s-104.333 52.5 -145 93.5s-72.334 91 -95.001 150s-34 126.5 -34 202.5c0 98.667 16.833 193.667 50.5 285s80 176.666 139 255.999s128.5 151.333 208.5 216s166.333 120 259 166s189.667 81.667 291 107s202.666 38 303.999 38c79.333 0 149.833 -6.5 211.5 -19.5
s116.167 -30.167 163.5 -51.5c26.667 23.333 54.667 45.166 84 65.499s61 38.5 95 54.5zM1240 696l91.002 184.498c30 59 60.5 115 91.5 168s63.167 102.667 96.5 149s69.333 89.166 108 128.499c-44 17.333 -91.833 30 -143.5 38s-106.834 12 -165.501 12
c-80.667 0 -159.667 -9.66699 -237 -29s-151.833 -45.833 -223.5 -79.5s-140 -73.5 -205 -119.5s-125.333 -96 -181 -150s-106 -110.5 -151 -169.5s-83.333 -118.5 -115 -178.5s-56 -119.167 -73 -177.5s-25.5 -113.833 -25.5 -166.5c0 -51.333 9.33301 -99.166 28 -143.499
s44.5 -82.833 77.5 -115.5s72.333 -58.334 118 -77.001s95.834 -28 150.501 -28c84.667 0 160.667 16.667 228 50s129.666 80.833 186.999 142.5s111.666 135.834 162.999 222.501s103.666 183.334 156.999 290.001c-69.333 27.333 -133.666 62.333 -192.999 105l16 28
c32 -16 64.5 -31.167 97.5 -45.5s67.5 -27.166 103.5 -38.499zM1840 1035c0 59.333 -12.832 110 -38.499 152s-61.5 77 -107.5 105c-60.667 -78.667 -118.5 -170.167 -173.5 -274.5s-111.833 -220.5 -170.5 -348.5c19.333 -3.33301 38.666 -5.83301 57.999 -7.5
s39 -2.5 59 -2.5c50.667 0 98.5 9 143.5 27s84.5 43.5 118.5 76.5s61 72.5 81 118.5s30 97.333 30 154z" />
    <glyph glyph-name="Q" unicode="Q" horiz-adv-x="1518" 
d="M1516 -420c-51.333 -28 -101.163 -47.835 -149.496 -59.502s-91.833 -17.5 -130.5 -17.5c-58.667 0 -108.5 10.667 -149.5 32s-76.167 49 -105.5 83s-54.166 72.333 -74.499 115s-38.833 85.667 -55.5 129c-48 -22.667 -97.167 -40.167 -147.5 -52.5
s-102.166 -18.5 -155.499 -18.5c-69.333 0 -134.833 11 -196.5 33s-115.5 55.333 -161.5 100s-82.5 100.834 -109.5 168.501s-40.5 146.834 -40.5 237.501c0 97.333 12.667 193.833 38 289.5s61.166 187 107.499 274s102 167.667 167 242s137.333 138.666 217 192.999
s165.334 97 257.001 128s187.5 46.5 287.5 46.5c60 0 111.833 -7.83301 155.5 -23.5s81 -35.5 112 -59.5s56.333 -50.167 76 -78.5s35 -54.833 46 -79.5s18.5 -45.667 22.5 -63s6.33301 -27.333 7 -30l-51 -10c-0.666992 1.33301 -2.66699 9.5 -6 24.5
s-9.33301 33.333 -18 55s-20.834 45 -36.501 70s-36.334 48.167 -62.001 69.5s-57 39 -94 53s-80.833 21 -131.5 21c-76.667 0 -154.334 -15.667 -233.001 -47s-154.5 -74.5 -227.5 -129.5s-141.333 -119.333 -205 -193s-119.334 -153 -167.001 -238
s-85.167 -173.167 -112.5 -264.5s-41 -182 -41 -272c0 -79.333 10.667 -148.166 32 -206.499s50.166 -106.666 86.499 -144.999s79 -66.833 128 -85.5s101.167 -28 156.5 -28c48.667 0 96.5 6 143.5 18s92.833 28.667 137.5 50c-12.667 32 -25.5 62.5 -38.5 91.5
s-27.667 54.5 -44 76.5s-34.666 39.5 -54.999 52.5s-44.166 19.5 -71.499 19.5c-19.333 0 -37.5 -1.5 -54.5 -4.5s-32 -6.5 -45 -10.5s-23.333 -7.5 -31 -10.5l-11.5 -4.5l-20 48c1.33301 0.666992 7.33301 2.83398 18 6.50098s24.334 7.66699 41.001 12
s35.834 8.33301 57.501 12s44.5 5.5 68.5 5.5c42 0 78.333 -6.33301 109 -19s57 -29.834 79 -51.501s40.833 -46.834 56.5 -75.501s30.167 -59 43.5 -91c47.333 31.333 92.333 67.333 135 108s82.167 84.334 118.5 131.001s69 96 98 148s53.833 105 74.5 159
s36.5 108.167 47.5 162.5s16.5 107.833 16.5 160.5c0 57.333 -7.33301 111 -22 161s-35.334 93.5 -62.001 130.5s-58.834 66 -96.501 87s-79.834 31.5 -126.501 31.5c-48 0 -94.667 -10.667 -140 -32s-85.5 -51 -120.5 -89s-63 -83.167 -84 -135.5
s-31.5 -109.166 -31.5 -170.499c0 -57.333 12 -112.333 36 -165s62.333 -97.667 115 -135l-25 -34c-30 10.667 -59 25.834 -87 45.501s-52.667 43.5 -74 71.5s-38.5 60 -51.5 96s-19.5 76 -19.5 120c0 72.667 13 138.5 39 197.5s61 109.5 105 151.5s94.667 74.5 152 97.5
s117 34.5 179 34.5c57.333 0 108.666 -11.833 153.999 -35.5s83.666 -56.167 114.999 -97.5s55.333 -89.833 72 -145.5s25 -115.834 25 -180.501c0 -54.667 -5.83301 -111 -17.5 -169s-28.334 -115.667 -50.001 -173s-47.834 -113.5 -78.501 -168.5
s-65.5 -107.5 -104.5 -157.5s-81.333 -96.667 -127 -140s-94.167 -81.333 -145.5 -114l31 -83.5c10.667 -27.667 22.334 -54.334 35.001 -80.001s27.167 -49.5 43.5 -71.5s35.333 -41 57 -57s46.834 -28.667 75.501 -38s61.667 -14 99 -14c26.667 0 52 2.5 76 7.5
s44.833 10.667 62.5 17s31.667 12.166 42 17.499l15.5 8z" />
    <glyph glyph-name="R" unicode="R" horiz-adv-x="2167" 
d="M1813 1437c-43.333 -24.667 -84 -55.0068 -122 -91.0068c41.333 -18 79.5 -40.333 114.5 -67s65.333 -57.667 91 -93s45.667 -75.166 60 -119.499s21.5 -93.166 21.5 -146.499c0 -45.333 -7.83301 -88.166 -23.5 -128.499s-37.334 -76.666 -65.001 -108.999
s-60.667 -59.666 -99 -81.999s-80.166 -37.833 -125.499 -46.5c22 -30 39.833 -63.167 53.5 -99.5s20.5 -75.833 20.5 -118.5c0 -17.333 -2.33301 -37.833 -7 -61.5s-10.5 -48.5 -17.5 -74.5s-14.667 -52.167 -23 -78.5l-23 -73.5c-7 -22.667 -12.833 -42.667 -17.5 -60
s-7 -30 -7 -38c0 -19.333 5.5 -34.5 16.5 -45.5s26.167 -16.5 45.5 -16.5c35.333 0 68.666 7.5 99.999 22.5s60.833 35 88.5 60s53.834 54 78.501 87s48.167 67.5 70.5 103.5s43.666 72.167 63.999 108.5l59.5 103.5l37 -28l-118.5 -205.5
c-37 -62.333 -74.833 -116 -113.5 -161s-79.667 -80.167 -123 -105.5s-92.666 -38 -147.999 -38c-51.333 0 -91.166 14.167 -119.499 42.5s-42.5 68.5 -42.5 120.5c0 36 5.33301 70.333 16 103s22.5 64.667 35.5 96s24.833 62.666 35.5 93.999s16 64 16 98
c0 30 -4.83301 58 -14.5 84s-23.167 50.667 -40.5 74c-20.667 0 -44.167 1 -70.5 3s-51.333 6 -75 12s-43.5 14.667 -59.5 26s-24 26.333 -24 45c0 16.667 6.66699 30.167 20 40.5s33 15.5 59 15.5c30 0 59 -6.83301 87 -20.5s55.667 -31.5 83 -53.5
c38.667 8.66699 74.667 24.334 108 47.001s62.166 49.834 86.499 81.501s43.333 66.834 57 105.501s20.5 78.334 20.5 119.001c0 42 -5.66699 80.5 -17 115.5s-27.333 66.5 -48 94.5s-45 52.5 -73 73.5s-58.667 38.5 -92 52.5c-50.667 -55.333 -97 -118.833 -139 -190.5
s-82.167 -147.334 -120.5 -227.001s-75.5 -161 -111.5 -244s-73.5 -163.667 -112.5 -242s-80.667 -152.166 -125 -221.499s-93.333 -130 -147 -182s-113.334 -93 -179.001 -123s-139.5 -45 -221.5 -45c-64 0 -124 10 -180 30s-105 49.5 -147 88.5
s-75.167 87.167 -99.5 144.5s-36.5 123.333 -36.5 198c0 45.333 5.5 96 16.5 152s28.5 114.5 52.5 175.5s54.833 122.667 92.5 185s83 122.833 136 181.5s114.333 113.667 184 165s148.334 96.166 236.001 134.499s184.834 68.5 291.501 90.5s223.667 33 351 33
c43.333 0 86.333 -3.5 129 -10.5s84 -17.167 124 -30.5c23.333 18 47.666 35.167 72.999 51.5s52 31.833 80 46.5zM468 -118.007c72 0 135.998 14.333 191.998 43s106.667 67.5 152 116.5s86.833 106.667 124.5 173s74.334 137 110.001 212l108 234
c36.333 81 75.833 160.833 118.5 239.5s90 154.334 142 227.001s111.667 138.667 179 198c-61.333 18 -125.666 27 -192.999 27c-124 0 -241.833 -16.667 -353.5 -50s-215.334 -78.333 -311.001 -135s-182 -122.334 -259 -197.001s-142.667 -153.167 -197 -235.5
s-96.166 -166.333 -125.499 -252s-44 -167.5 -44 -245.5c0 -48.667 8.5 -94.667 25.5 -138s41.167 -81 72.5 -113s69 -57.333 113 -76s92.667 -28 146 -28zM1536 601.993c-16.667 11.333 -34.334 21 -53.001 29s-35 12 -49 12c-9.33301 0 -15.666 -1.33301 -18.999 -4
s-5 -5.66699 -5 -9c0 -6 4.33301 -10.833 13 -14.5s19.5 -6.66699 32.5 -9s26.667 -3.83301 41 -4.5s27.5 -0.666992 39.5 0z" />
    <glyph glyph-name="S" unicode="S" horiz-adv-x="1752" 
d="M2112 1248c0 -42.667 -8.33008 -86.9971 -24.9971 -132.997s-41 -91.333 -73 -136s-71.5 -87.667 -118.5 -129s-101 -78.833 -162 -112.5s-128.5 -62.5 -202.5 -86.5s-154 -41 -240 -51l-110 -192.5c-38 -63.667 -78.333 -124.334 -121 -182.001
s-87.834 -111 -135.501 -160s-98.667 -91.5 -153 -127.5s-112.666 -64.167 -174.999 -84.5s-129.166 -30.5 -200.499 -30.5c-58.667 0 -115.5 8.5 -170.5 25.5s-103.667 41.667 -146 74s-76.166 71.833 -101.499 118.5s-38 100 -38 160c0 64.667 11.833 121 35.5 169
s55 88 94 120s83.167 55.833 132.5 71.5s99.666 23.5 150.999 23.5c39.333 0 78.166 -3.83301 116.499 -11.5s75 -18.5 110 -32.5s67.667 -30.667 98 -50s57.166 -40.666 80.499 -63.999l-30 -32c-16 15.333 -34.833 30 -56.5 44s-46.5 26.5 -74.5 37.5
s-58.667 19.667 -92 26s-69.333 9.5 -108 9.5c-44.667 0 -88 -7.5 -130 -22.5s-79.333 -36.667 -112 -65s-59 -63 -79 -104s-30 -87.833 -30 -140.5c0 -42.667 8.5 -82.5 25.5 -119.5s41 -69 72 -96s67.667 -48.167 110 -63.5s89.166 -23 140.499 -23
c58.667 0 113.834 9.16699 165.501 27.5s100 43.666 145 75.999s87.667 70.833 128 115.5s78.666 93.5 114.999 146.5s71.166 108.833 104.499 167.5l99 180h-27c-112 0 -212.833 11.5 -302.5 34.5s-166 54.5 -229 94.5s-111.333 86.833 -145 140.5s-50.5 111.5 -50.5 173.5
s12 116.667 36 164s56.667 87 98 119s89.333 56.167 144 72.5s112.667 24.5 174 24.5c52.667 0 101 -4.16699 145 -12.5s83.5 -19 118.5 -32s66 -27.167 93 -42.5s49.833 -30 68.5 -44s33.334 -26.333 44.001 -37l21 -21l-34 -30
c-0.666992 0.666992 -10.334 9.16699 -29.001 25.5s-45 34.333 -79 54s-75 37.667 -123 54s-101.333 24.5 -160 24.5c-59.333 0 -113.833 -8.33301 -163.5 -25s-92.5 -39.834 -128.5 -69.501s-64.167 -64.834 -84.5 -105.501s-30.5 -85 -30.5 -133
c0 -56.667 15.667 -108.167 47 -154.5s74.833 -86 130.5 -119s121.334 -58.667 197.001 -77s158.167 -27.5 247.5 -27.5h48l103.5 196.5c34.333 65 69.5 127 105.5 186s73.333 113.833 112 164.5s79.667 94.5 123 131.5s89.666 66 138.999 87s102.333 31.5 159 31.5
c23.333 0 46.5 -3.16699 69.5 -9.5s43.667 -17 62 -32s33.166 -34.667 44.5 -59c11.333 -24.333 17 -54.5 17 -90.5zM1940 1385c-42 0 -82.002 -9.32812 -120.002 -27.9951s-74.333 -44.834 -109 -78.501s-68.334 -73.334 -101.001 -119.001s-64.834 -95.667 -96.501 -150
l-95.5 -172l-98 -183.5c86.667 11.333 165.334 29.666 236.001 54.999s133.334 54.833 188.001 88.5s102 70.167 142 109.5s73 78.666 99 117.999s45.167 77.166 57.5 113.499s18.5 68.833 18.5 97.5c0 21.333 -2.16699 41 -6.5 59s-11.166 33.667 -20.499 47
s-21.666 23.833 -36.999 31.5s-34.333 11.5 -57 11.5z" />
    <glyph glyph-name="T" unicode="T" horiz-adv-x="1562" 
d="M2282 1420c-43.333 -28 -88.5039 -51.5039 -135.504 -70.5039s-95.5 -34.167 -145.5 -45.5s-101.333 -19.333 -154 -24s-106 -7 -160 -7c-68 0 -139.667 3.5 -215 10.5s-150.166 14.5 -224.499 22.5l-215.5 22.5c-69.333 7 -132 10.5 -188 10.5
c-82 0 -156.667 -10.5 -224 -31.5s-125 -50.667 -173 -89s-85.167 -84.333 -111.5 -138s-39.5 -113.5 -39.5 -179.5c0 -46 7.83301 -87.5 23.5 -124.5s38 -68.167 67 -93.5s63.833 -44.833 104.5 -58.5s85.667 -20.5 135 -20.5c42.667 0 86.667 5.16699 132 15.5
s90 25.833 134 46.5l21 -41c-44.667 -26 -96.167 -46.667 -154.5 -62s-117.166 -23 -176.499 -23c-51.333 0 -100.666 7.33301 -147.999 22s-89.5 36.834 -126.5 66.501s-66.5 67 -88.5 112s-33 97.833 -33 158.5c0 60 9 113.833 27 161.5s42.667 90 74 127
s68 68.5 110 94.5s87.167 47.5 135.5 64.5s98.5 29.333 150.5 37s103.667 11.5 155 11.5c61.333 0 127.166 -3.66699 197.499 -11l215.5 -23.5c73.333 -8.33301 147 -16.166 221 -23.499s145.667 -11 215 -11c52 0 103.333 2.16699 154 6.5s99.834 11.833 147.501 22.5
s93.667 24.834 138.001 42.501c44.333 17.667 86.833 39.834 127.5 66.501zM1580 1185c-56.667 -68 -106.833 -139.169 -150.5 -213.502s-84 -148.833 -121 -223.5l-105.5 -221.5c-33.333 -73 -68 -142.333 -104 -208s-74.5 -126.334 -115.5 -182.001
s-87.667 -103.834 -140 -144.501s-112 -72.5 -179 -95.5s-143.833 -34.5 -230.5 -34.5c-76.667 0 -144.5 9.83301 -203.5 29.5s-108.5 46.667 -148.5 81s-70.333 74.666 -91 120.999s-31 96.5 -31 150.5c0 20.667 1.33301 40.334 4 59.001s6.66699 35.667 12 51l50 -15
c-4 -13.333 -7.33301 -28.166 -10 -44.499s-4 -33.166 -4 -50.499c0 -55.333 11.667 -103.666 35 -144.999s54 -75.666 92 -102.999s81.333 -47.833 130 -61.5s98.334 -20.5 149.001 -20.5c73.333 0 138.5 12.667 195.5 38s108.833 59.833 155.5 103.5
s89.167 94.834 127.5 153.501s75.5 121.667 111.5 189l108.5 210c36.333 72.667 75.666 144.667 117.999 216s88.833 140.166 139.5 206.499s108.667 126.833 174 181.5z" />
    <glyph glyph-name="U" unicode="U" horiz-adv-x="2374" 
d="M2411 345c-15.333 -25.333 -33.335 -53.166 -54.002 -83.499s-43.667 -61.166 -69 -92.499s-52.833 -61.666 -82.5 -90.999s-61.167 -55.333 -94.5 -78s-68 -40.834 -104 -54.501s-73.333 -20.5 -112 -20.5c-34.667 0 -64.667 5.5 -90 16.5s-46.333 25.667 -63 44
s-29 39.5 -37 63.5s-12 49.333 -12 76c0 38 6 79.667 18 125c-58.667 -69.333 -114.334 -129.666 -167.001 -180.999s-104.834 -93.833 -156.501 -127.5s-104 -58.834 -157 -75.501s-109.5 -25 -169.5 -25c-37.333 0 -72.166 5 -104.499 15s-60.5 24.833 -84.5 44.5
s-43 44.167 -57 73.5s-21 63.666 -21 102.999c0 49.333 11.667 99.5 35 150.5s52.333 102 87 153s72.5 102.167 113.5 153.5s78.833 102.333 113.5 153s63.667 101 87 151s35 99.333 35 148c0 42.667 -8.83301 84.167 -26.5 124.5s-45.5 75.833 -83.5 106.5
s-86.667 55.334 -146 74.001s-130.666 28 -213.999 28c-70 0 -134 -6.66699 -192 -20s-110 -31.666 -156 -54.999s-86 -50.833 -120 -82.5s-62.333 -65.5 -85 -101.5s-39.5 -73.667 -50.5 -113s-16.5 -78.333 -16.5 -117c0 -51.333 9.33301 -94.666 28 -129.999
s42.834 -63.833 72.501 -85.5s63.167 -37.334 100.5 -47.001s74.666 -14.5 111.999 -14.5c40 0 78 4.66699 114 14s67.5 19.666 94.5 30.999s48.5 21.666 64.5 30.999s24.333 14.333 25 15l26 -38c-52.667 -42 -111.834 -74.667 -177.501 -98s-131.167 -35 -196.5 -35
c-47.333 0 -93.666 6.83301 -138.999 20.5s-85.666 34.834 -120.999 63.501s-63.833 65.5 -85.5 110.5s-32.5 98.5 -32.5 160.5c0 71.333 17.5 139.833 52.5 205.5s84.5 123.5 148.5 173.5s141.333 90 232 120s191.667 45 303 45c78 0 150.5 -9.66699 217.5 -29
s125 -47.166 174 -83.499s87.5 -80.166 115.5 -131.499s42.333 -109 43 -173c0.666992 -58 -10.333 -115.333 -33 -172s-51.167 -112.334 -85.5 -167.001s-71.5 -107.667 -111.5 -159l-111.5 -147.5c-34.333 -47 -63 -91.333 -86 -133s-34.5 -80.167 -34.5 -115.5
c0 -20.667 3.83301 -40.834 11.5 -60.501s19.834 -37 36.501 -52s37.5 -27.167 62.5 -36.5s55.167 -14 90.5 -14c77.333 0 151 20 221 60s138.333 94.5 205 163.5s132.5 149.667 197.5 242l199 296l210.5 325.5c72.667 112 149.667 222 231 330l45 -25l-126.5 -229.5
l-137 -240.5l-132.5 -234.5c-42.667 -76.333 -80.5 -146.833 -113.5 -211.5s-59.333 -121.834 -79 -171.501s-29.5 -87.834 -29.5 -114.501c0 -37.333 11.5 -65.166 34.5 -83.499s50.5 -27.5 82.5 -27.5c33.333 0 65.833 6.33301 97.5 19s62.5 29.5 92.5 50.5
s58.667 45 86 72s53.333 55.167 78 84.5s47.667 58.666 69 87.999l58 82z" />
    <glyph glyph-name="V" unicode="V" horiz-adv-x="2216" 
d="M1065 772c-30.667 -53.333 -65.8271 -106.669 -105.494 -160.002s-84 -101.5 -133 -144.5s-103.167 -78 -162.5 -105s-124 -40.5 -194 -40.5c-57.333 0 -111 8.83301 -161 26.5s-93.5 43.834 -130.5 78.501s-66 77.167 -87 127.5s-31.5 108.5 -31.5 174.5
c0 80.667 12.5 154.834 37.5 222.501s58.833 128.667 101.5 183s92.334 102 149.001 143s117 75.333 181 103s129.833 48.334 197.5 62.001s133.5 20.167 197.5 19.5c69.333 -0.666992 137.166 -10.667 203.499 -30s125.333 -48.833 177 -88.5
s93.167 -89.834 124.5 -150.501s47 -132.334 47 -215.001c0 -57.333 -10 -121.5 -30 -192.5s-54.667 -149.5 -104 -235.5l-149 -255.5l-104.5 -177c-27.667 -47.667 -48.167 -85.667 -61.5 -114s-20 -50.833 -20 -67.5c0 -16 7.16699 -28.667 21.5 -38s34.5 -14 60.5 -14
c35.333 0 77 9.33301 125 28s101 46.667 159 84c52.667 33.333 104.667 71.666 156 114.999s101.5 89.5 150.5 138.5s96.333 99.833 142 152.5s88.834 105.167 129.501 157.5s78.334 103.5 113.001 153.5s65.667 97 93 141c-13.333 41.333 -23 80.833 -29 118.5
s-9 73.167 -9 106.5c0 40.667 3.66699 76.834 11 108.501s17.166 58.334 29.499 80.001s27 38.167 44 49.5s35.167 17 54.5 17c16.667 0 31.167 -3.83301 43.5 -11.5s22.5 -17.5 30.5 -29.5s14 -25.667 18 -41s6 -30.666 6 -45.999c0 -23.333 -4 -51.666 -12 -84.999
s-22.667 -72.666 -44 -117.999c-18 -38.667 -43.333 -85.334 -76 -140.001s-71.167 -113.834 -115.5 -177.501s-93.333 -129.5 -147 -197.5s-110.834 -134.5 -171.501 -199.5s-123.834 -126.5 -189.501 -184.5s-132.167 -108.667 -199.5 -152
c-71.333 -46 -132.333 -77.667 -183 -95s-93.334 -26 -128.001 -26c-31.333 0 -57.5 4.66699 -78.5 14s-37.833 21.833 -50.5 37.5s-21.667 33.167 -27 52.5s-8 39 -8 59c0 24 3.66699 49.333 11 76s18.666 52.667 33.999 78l68 110l87.5 142l93.5 162.5
c31.333 57 59.5 114 84.5 171s45.333 112.833 61 167.5s23.5 105.334 23.5 152.001c0 45.333 -10.167 89.333 -30.5 132s-50.333 80.667 -90 114s-88.5 60.166 -146.5 80.499s-125 30.5 -201 30.5c-68 0 -133.5 -8.16699 -196.5 -24.5s-122.167 -39.166 -177.5 -68.499
s-105.833 -64.5 -151.5 -105.5s-84.834 -86 -117.501 -135s-58 -101.333 -76 -157s-27 -112.834 -27 -171.501c0 -56 8.83301 -105.5 26.5 -148.5s41.5 -78.833 71.5 -107.5s64.667 -50.334 104 -65.001s80.666 -22 123.999 -22c46.667 0 93.667 9 141 27s93.5 44 138.5 78
s88.167 75.167 129.5 123.5s79.666 102.5 114.999 162.5zM2193.01 914.997c22.667 38 41.167 71.998 55.5 101.998s25.5 56.667 33.5 80s13.5 43.833 16.5 61.5s4.5 33.167 4.5 46.5c0 8 -0.666992 16.5 -2 25.5s-3.83301 17.333 -7.5 25s-8.66699 13.834 -15 18.501
s-14.833 7 -25.5 7c-12 0 -23 -5.5 -33 -16.5s-18.667 -25.667 -26 -44s-13 -39.666 -17 -63.999s-6 -50.5 -6 -78.5c0 -24 1.66699 -49.667 5 -77s9 -56 17 -86z" />
    <glyph glyph-name="W" unicode="W" horiz-adv-x="2779" 
d="M2333 1214c-33.333 -110.667 -69.9951 -215.668 -109.995 -315.001s-78 -187.333 -114 -264c-41.333 -89.333 -83 -172 -125 -248c-34 -60 -62.5 -112.333 -85.5 -157s-41.5 -82.834 -55.5 -114.501s-24 -58 -30 -79s-9 -38.167 -9 -51.5c0 -14 3 -24.833 9 -32.5
s13.167 -13.5 21.5 -17.5s16.666 -6.5 24.999 -7.5s15.166 -1.5 20.499 -1.5c23.333 0 51.166 6.5 83.499 19.5s67.333 31.333 105 55s77.167 52.334 118.5 86.001s82.333 71.5 123 113.5s80.167 87.5 118.5 136.5s73.5 100.833 105.5 155.5
c51.333 89.333 92.333 172 123 248c-19.333 38 -33.666 77.167 -43 117.5c-9.33301 40.333 -14 78.5 -14 114.5c0 52 8.16699 93.667 24.5 125s39.166 47 68.5 47c16 0 29.5 -4 40.5 -12s19.833 -18.333 26.5 -31s11.5 -26.5 14.5 -41.5s4.5 -29.833 4.5 -44.5
c0 -31.333 -4.5 -67.333 -13.5 -108s-22 -84.5 -39 -131.5s-37.833 -96.667 -62.5 -149s-53 -105.833 -85 -160.5s-67.5 -107.167 -106.5 -157.5s-79.667 -97.5 -122 -141.5s-85.333 -84.167 -129 -120.5s-86 -67.333 -127 -93s-80 -45.667 -117 -60
s-69.5 -21.5 -97.5 -21.5c-52.667 0 -94 12 -124 36s-45 62.333 -45 115c0 28.667 3.83301 57.334 11.5 86.001s19 59.667 34 93s33.5 69.833 55.5 109.5l76 134.5c-66.667 -88.667 -138.5 -174.5 -215.5 -257.5s-159.167 -157.167 -246.5 -222.5
c-39.333 -29.333 -75.333 -53.833 -108 -73.5s-62.5 -35.5 -89.5 -47.5s-51.5 -20.5 -73.5 -25.5s-42 -7.5 -60 -7.5c-26 0 -48.5 3.66699 -67.5 11s-34.667 17.166 -47 29.499s-21.333 27 -27 44s-8.5 35.5 -8.5 55.5c0 33.333 5 65 15 95s24.667 60.667 44 92
c22 34.667 48.167 73 78.5 115l95 132l98 141c32.333 48 61.333 95.667 87 143s46.334 93.333 62.001 138s23.5 86.667 23.5 126c0 62 -12.167 118.667 -36.5 170s-59.166 95.333 -104.499 132s-100.166 65 -164.499 85s-136.5 30 -216.5 30c-110 0 -211 -16 -303 -48
s-171.167 -76.167 -237.5 -132.5s-118 -122.666 -155 -198.999s-55.5 -158.5 -55.5 -246.5c0 -54 8.5 -103.167 25.5 -147.5s41 -82.5 72 -114.5s68.667 -56.833 113 -74.5s93.833 -26.5 148.5 -26.5c63.333 0 122 11.167 176 33.5s103.167 52.833 147.5 91.5
s83.833 84.167 118.5 136.5s64 108.5 88 168.5l45 -16c-64.667 -160.667 -150.334 -282.167 -257.001 -364.5s-233.334 -123.5 -380.001 -123.5c-62 0 -118.333 10.5 -169 31.5s-94 50.333 -130 88s-63.833 82.667 -83.5 135s-29.5 109.833 -29.5 172.5
c0 84.667 14 160.667 42 228s65.167 126.5 111.5 177.5s99 94.5 158 130.5s119.5 65.333 181.5 88s122.667 39.167 182 49.5s112.666 15.5 159.999 15.5c89.333 0 172 -10.833 248 -32.5s141.833 -54 197.5 -97s99.167 -96.167 130.5 -159.5s47 -136.666 47 -219.999
c0 -60.667 -11.5 -127.834 -34.5 -201.501s-62.833 -152.834 -119.5 -237.501c-52 -78 -99.333 -145.667 -142 -203l-109.5 -148.5c-30.333 -41.667 -53.833 -76.5 -70.5 -104.5s-25 -51.333 -25 -70c0 -19.333 7 -35 21 -47s33.333 -18 58 -18
c35.333 0 78.166 12 128.499 36s106.833 59.333 169.5 106c62 46 121.167 96.667 177.5 152s109.666 112.833 159.999 172.5s97.833 120.5 142.5 182.5s86 122.833 124 182.5s72.667 117.334 104 173.001s59 107 83 154s44.333 88.667 61 125s29.334 64.833 38 85.5z
M2684 808.999c15.333 42.667 26.332 81.333 32.999 116s10 64.334 10 89.001c0 4.66699 -0.166992 11.5 -0.5 20.5s-1.66602 17.667 -3.99902 26s-5.83301 15.666 -10.5 21.999s-11 9.5 -19 9.5c-11.333 0 -20.833 -11.333 -28.5 -34s-11.5 -50.334 -11.5 -83.001
c0 -24.667 2.33301 -51.167 7 -79.5s12.667 -57.166 24 -86.499z" />
    <glyph glyph-name="X" unicode="X" horiz-adv-x="2570" 
d="M1199 662c-64 -68.667 -137.168 -120.171 -219.501 -154.504s-166.166 -51.5 -251.499 -51.5c-59.333 0 -115.833 8.33301 -169.5 25s-101.167 41 -142.5 73s-74.166 71.667 -98.499 119s-36.5 102 -36.5 164c0 61.333 9.5 117 28.5 167s44.833 94.667 77.5 134
s70.667 73.333 114 102s89.166 52.5 137.499 71.5s97.666 33.167 147.999 42.5s99.166 14 146.499 14c110 0 205.833 -14.333 287.5 -43s149.334 -67.667 203.001 -117s93.834 -107.166 120.501 -173.499s40 -137.5 40 -213.5c0 -28 -2 -55.333 -6 -82
c70.667 108.667 144.167 200.334 220.5 275.001s151.333 136.334 225 185.001s143.834 86.334 210.5 113.001c66.667 26.667 125.667 46.334 177 59.001s93 20.334 125 23.001s50 4 54 4v-53c-2 0 -13.167 -0.666992 -33.5 -2s-47.666 -5.33301 -81.999 -12
s-74.333 -17 -120 -31s-95 -33.667 -148 -59s-108.667 -57.5 -167 -96.5s-116.833 -86.667 -175.5 -143s-116.834 -122.5 -174.501 -198.5s-112.5 -164 -164.5 -264c-26 -50 -45.5 -99.167 -58.5 -147.5s-19.5 -94.833 -19.5 -139.5c0 -46 6.66699 -89.5 20 -130.5
s34.333 -77.5 63 -109.5s65.5 -58.167 110.5 -78.5s98.833 -32.833 161.5 -37.5c20.667 68.667 46.667 132.667 78 192s67 111 107 155s83.667 78.5 131 103.5s96.666 37.5 148 37.5c22.667 0 42.167 -3.33301 58.5 -10s30 -15.5 41 -26.5s19.167 -23.833 24.5 -38.5
s8 -30.334 8 -47.001c0 -24 -6 -50.5 -18 -79.5s-29 -58.5 -51 -88.5s-48.667 -59.333 -80 -88s-66.166 -54.334 -104.499 -77.001s-79.833 -41.5 -124.5 -56.5s-91.667 -23.833 -141 -26.5c-17.333 -46.667 -32.5 -95 -45.5 -145s-22.833 -101.333 -29.5 -154l-52 9
c0 50 3.16699 99.5 9.5 148.5s15.166 96.833 26.499 143.5c-68 5.33301 -126.833 19.666 -176.5 42.999s-90.667 53 -123 89s-56.333 77.167 -72 123.5s-23.5 95.5 -23.5 147.5c0 14.667 0.5 29.334 1.5 44.001s2.83301 29.667 5.5 45c-54 -68 -117.5 -131 -190.5 -189
s-152.5 -108.167 -238.5 -150.5s-177.333 -75.333 -274 -99s-195.667 -35.5 -297 -35.5c-70 0 -134.333 5.16699 -193 15.5s-109.334 26.166 -152.001 47.499s-75.834 48.5 -99.501 81.5s-35.5 72.167 -35.5 117.5c0 31.333 5 59 15 83s23.167 45 39.5 63
s35.5 33.167 57.5 45.5s45 22.333 69 30s48.333 13.167 73 16.5s48 5 70 5c32.667 0 64.167 -3.5 94.5 -10.5s56.5 -15.833 78.5 -26.5l-22 -39c-16.667 6 -35.167 11.5 -55.5 16.5s-43.833 7.5 -70.5 7.5c-36.667 0 -69.667 -5 -99 -15s-54.166 -23.667 -74.499 -41
s-36 -37.333 -47 -60s-16.5 -46.667 -16.5 -72c0 -65.333 31.333 -117 94 -155s156.334 -57 281.001 -57c79.333 0 155.5 8.83301 228.5 26.5s142.167 41.834 207.5 72.501s126.333 66.667 183 108s108.667 85.5 156 132.5s89.333 95.5 126 145.5s67.667 99.333 93 148
s44.666 95.167 57.999 139.5s20 84.5 20 120.5c0 41.333 -3.5 82.666 -10.5 123.999s-18.667 80.666 -35 117.999s-37.833 72.166 -64.5 104.499s-60 60.333 -100 84s-87.167 42.334 -141.5 56.001s-116.833 20.5 -187.5 20.5c-91.333 0 -171 -13.667 -239 -41
s-124.333 -62.666 -169 -105.999s-78 -92.166 -100 -146.499s-33 -108.833 -33 -163.5c0 -55.333 9.83301 -104 29.5 -146s46.5 -77 80.5 -105s74 -49.167 120 -63.5s95 -21.5 147 -21.5c40.667 0 78.5 4.16699 113.5 12.5s67 18.666 96 30.999s54.833 25.833 77.5 40.5
s41.834 28.334 57.501 41.001s27.5 23.167 35.5 31.5l13 13.5zM2280 330.996c-27.333 0 -57.5 -10.6699 -90.5 -32.0029s-66.5 -51.333 -100.5 -90s-67.5 -84.5 -100.5 -137.5s-62.833 -111.167 -89.5 -174.5c40 4 79 12.833 117 26.5s73.5 30.334 106.5 50.001
s63.167 41.667 90.5 66s50.833 49.333 70.5 75s35 51.334 46 77.001s16.5 49.834 16.5 72.501c0 20 -6.5 36.167 -19.5 48.5s-28.5 18.5 -46.5 18.5z" />
    <glyph glyph-name="Y" unicode="Y" horiz-adv-x="2023" 
d="M620 122c-20 6 -38.3262 10.8291 -54.9932 14.4961s-33.167 6.5 -49.5 8.5s-32.833 3.5 -49.5 4.5s-34.667 1.5 -54 1.5c-63.333 0 -123 -10.667 -179 -32s-104.833 -51.333 -146.5 -90s-74.667 -84.834 -99 -138.501s-36.5 -112.5 -36.5 -176.5
c0 -66.667 13.167 -125.834 39.5 -177.501s62.5 -95.167 108.5 -130.5s100.333 -62.166 163 -80.499s130.667 -27.5 204 -27.5c92 0 176.667 12.167 254 36.5s149.166 58.5 215.499 102.5s128.166 96.333 185.499 157s112.166 127.334 164.499 200.001
s102.833 150.334 151.5 233.001l147 255c-42 -44.667 -83 -84.5 -123 -119.5s-79.667 -64.667 -119 -89s-78.5 -42.833 -117.5 -55.5s-78.833 -19 -119.5 -19c-24 0 -48.833 3.33301 -74.5 10s-48.834 17.834 -69.501 33.501s-37.667 36 -51 61s-20 55.5 -20 91.5
c0 23.333 4.5 47.833 13.5 73.5s22.833 53.5 41.5 83.5s41.834 62.5 69.501 97.5s60.167 73.833 97.5 116.5c44.667 50.667 82 99 112 145s54.333 89.333 73 130s32 78.834 40 114.501s12 68.834 12 99.501c0 60.667 -11.167 112.667 -33.5 156s-52.5 78.666 -90.5 105.999
s-82 47.5 -132 60.5s-102.667 19.5 -158 19.5c-58 0 -116.333 -5.5 -175 -16.5s-115.334 -27.167 -170.001 -48.5s-105.834 -47.666 -153.501 -78.999s-89.167 -67.166 -124.5 -107.499s-63.166 -85 -83.499 -134s-30.5 -102.167 -30.5 -159.5
c0 -45.333 7.66699 -86.666 23 -123.999s37.166 -69.5 65.499 -96.5s62.833 -47.833 103.5 -62.5s86.667 -22 138 -22c34 0 69 4 105 12s71.5 19.5 106.5 34.5s69.333 33.5 103 55.5s65.5 47.333 95.5 76l31 -33c-35.333 -38.667 -73 -72.167 -113 -100.5
s-81 -51.833 -123 -70.5s-84.333 -32.5 -127 -41.5s-84.334 -13.5 -125.001 -13.5c-55.333 0 -107.166 7.5 -155.499 22.5s-90.666 37.667 -126.999 68s-65 68.166 -86 113.499s-31.5 98.333 -31.5 159c0 68 12.833 130.667 38.5 188s60.167 109 103.5 155
s93.666 86.333 150.999 121s117.666 63.667 180.999 87s127.666 40.833 192.999 52.5s128 17.5 188 17.5c72.667 0 138.5 -9.33301 197.5 -28s109.333 -46.334 151 -83.001s73.834 -81.667 96.501 -135s34 -115 34 -185c0 -71.333 -10 -138.166 -30 -200.499
s-45.167 -120.333 -75.5 -174s-63 -103.5 -98 -149.5l-98 -127c-30.333 -38.667 -55.5 -74.167 -75.5 -106.5s-30 -61.833 -30 -88.5c0 -16 2.5 -31.333 7.5 -46s12.667 -27.5 23 -38.5s23.166 -19.833 38.499 -26.5s33.333 -10 54 -10c38 0 80.333 11.833 127 35.5
s95.167 56 145.5 97s101.666 89.167 153.999 144.5s103.5 114.666 153.5 177.999l120.5 203c41.667 67.333 85.334 133.5 131.001 198.5s94 128.5 145 190.5s105.167 121 162.5 177l33 -32c-87.333 -105.333 -166.166 -214.5 -236.5 -327.5
c-70.333 -113 -136.5 -226.333 -198.5 -340l-178.5 -336c-57 -110.333 -115.833 -214.833 -176.5 -313.5s-125.167 -190 -193.5 -274s-144.666 -156.5 -228.999 -217.5s-178.5 -108.667 -282.5 -143s-222.333 -51.5 -355 -51.5c-77.333 0 -152.833 9.33301 -226.5 28
s-139.167 47.334 -196.5 86.001s-103.333 87 -138 145s-52 126.667 -52 206c0 59.333 8.5 112.666 25.5 159.999s39.667 89.333 68 126s61.166 68.334 98.499 95.001s76.333 48.5 117 65.5s81.834 29.5 123.501 37.5s81.167 12 118.5 12c28 0 53 -0.5 75 -1.5
s42.5 -2.83301 61.5 -5.5s37.167 -5.83398 54.5 -9.50098s35.666 -8.5 54.999 -14.5z" />
    <glyph glyph-name="Z" unicode="Z" horiz-adv-x="1517" 
d="M762 45c12.667 -14 26.9961 -33.4971 42.9961 -58.4971s28.333 -57.5 37 -97.5l198.5 106c63 34 122.667 69.667 179 107s109.333 77.833 159 121.5s95.834 93.5 138.501 149.5l37 -28c-40 -54 -83.167 -102.5 -129.5 -145.5s-97.833 -84.167 -154.5 -123.5
s-119.334 -78.333 -188.001 -117l-232 -126c0 -5.33301 0.166992 -10.5 0.5 -15.5s0.5 -10.167 0.5 -15.5c0 -48 -8.66699 -99.167 -26 -153.5s-40.833 -108 -70.5 -161s-63.834 -103.833 -102.501 -152.5s-79.334 -91.5 -122.001 -128.5s-86 -66.5 -130 -88.5
s-85.667 -33 -125 -33c-20.667 0 -39.667 3.66699 -57 11s-32.333 17.5 -45 30.5s-22.5 28 -29.5 45s-10.5 35.5 -10.5 55.5c0 34 8.16699 69 24.5 105s39.166 72.5 68.499 109.5s63.833 73.833 103.5 110.5s82.834 72.167 129.501 106.5s95.834 67.5 147.501 99.5
s104.167 61.667 157.5 89c0 36 -4.83301 69.333 -14.5 100s-21.5 55 -35.5 73c-65.333 -30.667 -131.333 -46 -198 -46c-44 0 -79.667 7.66699 -107 23s-41 36.666 -41 63.999c0 30 13.833 53.667 41.5 71s63.5 26 107.5 26c31.333 0 63.833 -5.5 97.5 -16.5
s64.5 -26.5 92.5 -46.5c52.667 30 100.834 70.833 144.501 122.5s87.167 110.667 130.5 177l135.5 214c47 76.333 100 154 159 233s126.5 157.333 202.5 235s164.333 150.834 265 219.501c-52 -11.333 -103 -19.5 -153 -24.5s-99.333 -7.5 -148 -7.5
c-74 0 -146.5 4.66699 -217.5 14s-140.167 19.5 -207.5 30.5l-194.5 30.5c-62.333 9.33301 -121.833 14 -178.5 14c-74.667 0 -141 -12.333 -199 -37s-107 -56.5 -147 -95.5s-70.5 -82.833 -91.5 -131.5s-31.5 -97 -31.5 -145c0 -52 8.83301 -98.5 26.5 -139.5
s42 -75.667 73 -104s68 -50 111 -65s89.833 -22.5 140.5 -22.5c51.333 0 98 5.16699 140 15.5s78.333 21.666 109 33.999s54.834 24 72.501 35s27.5 17.5 29.5 19.5l30 -43c-24.667 -16.667 -52 -32.5 -82 -47.5s-62.333 -28.333 -97 -40s-71.5 -20.834 -110.5 -27.501
s-79.833 -10 -122.5 -10c-70 0 -132.167 10 -186.5 30s-100 47.167 -137 81.5s-65 74.333 -84 120s-28.5 94.5 -28.5 146.5c0 72.667 14.5 138.667 43.5 198s69.833 110 122.5 152s115.667 74.333 189 97s154 34 242 34c54.667 0 112.834 -4.66699 174.501 -14
s125.834 -19.833 192.501 -31.5s135.5 -22.167 206.5 -31.5s142.833 -14 215.5 -14c69.333 0 139.5 5.33301 210.5 16s145.5 29.667 223.5 57l23 -46c-85.333 -60 -159.833 -120.667 -223.5 -182s-121.667 -124.333 -174 -189s-101.166 -131.834 -146.499 -201.501
l-140 -220.5c-79.333 -128.667 -156.833 -234.5 -232.5 -317.5s-150.5 -145.833 -224.5 -188.5zM757.996 -214.997c-80 -42 -154.831 -87.501 -224.498 -136.501s-130.334 -98.167 -182.001 -147.5s-92.334 -97.5 -122.001 -144.5s-44.5 -89.833 -44.5 -128.5
c0 -8 1.16699 -16.333 3.5 -25s6 -16.5 11 -23.5s11.167 -12.833 18.5 -17.5s16 -7 26 -7c20 0 45.333 9.16699 76 27.5s63.667 43 99 74s71.333 67.333 108 109s70.667 85.834 102 132.501s58.5 94.5 81.5 143.5s38.833 96.833 47.5 143.5zM662.998 65.002
c-19.333 11.333 -41.168 21.332 -65.501 29.999s-52.166 13 -83.499 13c-24.667 0 -46.334 -4.16699 -65.001 -12.5s-28 -19.166 -28 -32.499c0 -11.333 6.83301 -21 20.5 -29s35.5 -12 65.5 -12s57.833 4 83.5 12s49.834 18.333 72.501 31z" />
    <glyph glyph-name="bracketleft" unicode="[" horiz-adv-x="702" 
d="M-263 -470l842 1914h352l-24 -55h-238l-795 -1804h239l-24 -55h-352z" />
    <glyph glyph-name="backslash" unicode="\" horiz-adv-x="584" 
d="M322 -99l-122 1543h62l122 -1543h-62z" />
    <glyph glyph-name="bracketright" unicode="]" horiz-adv-x="702" 
d="M891 1444l-842 -1914h-352l24 55h238l795 1804h-239l24 55h352z" />
    <glyph glyph-name="asciicircum" unicode="^" horiz-adv-x="1024" 
d="M710 878l-28 469l-355 -469h-85l438 566h62l42 -566h-74z" />
    <glyph glyph-name="underscore" unicode="_" horiz-adv-x="617" 
d="M-200 -300l36 75h591l-36 -75h-591z" />
    <glyph glyph-name="grave" unicode="`" horiz-adv-x="500" 
d="M333 856l-155 194h125l78 -194h-48z" />
    <glyph glyph-name="a" unicode="a" horiz-adv-x="905" 
d="M795 665c-8.66699 -17.333 -20.8369 -40 -36.5039 -68l-50.5 -92.5l-54.5 -105.5c-18.333 -36.667 -35 -72.5 -50 -107.5s-27.333 -68 -37 -99s-14.5 -57.167 -14.5 -78.5s4.16699 -35.166 12.5 -41.499s19.166 -9.5 32.499 -9.5c19.333 0 39.166 5.66699 59.499 17
s40.333 26 60 44s38.834 38.333 57.501 61s36.167 45.5 52.5 68.5s31.166 45 44.499 66l34 53.5l36 -28c-11.333 -21.333 -24.666 -44.333 -39.999 -69s-32.166 -49.5 -50.499 -74.5s-38.166 -49.167 -59.499 -72.5s-43.833 -44 -67.5 -62s-48.5 -32.333 -74.5 -43
s-52.667 -16 -80 -16c-40 0 -69.333 12 -88 36s-28 55 -28 93c0 2.66699 0.166992 8.5 0.5 17.5s1.16602 16.167 2.49902 21.5c-33.333 -42 -65.166 -76.667 -95.499 -104s-59.666 -49 -87.999 -65s-55.666 -27.167 -81.999 -33.5s-51.5 -9.5 -75.5 -9.5
c-25.333 0 -49.166 4.16699 -71.499 12.5s-42 20.5 -59 36.5s-30.333 35.667 -40 59s-14.5 50.333 -14.5 81c0 38 8.5 81.5 25.5 130.5s47.167 101.833 90.5 158.5c36.667 48.667 74.834 89.667 114.501 123s78.667 60.166 117 80.499s74.833 34.833 109.5 43.5
s65.667 13 93 13c61.333 0 107.666 -10.167 138.999 -30.5s50.333 -51.5 57 -93.5l42 50l45 51zM487.997 285l32.002 53.502l40 67l41 66.5l35 54c0 6 -0.833008 15.667 -2.5 29s-6.16699 26.833 -13.5 40.5s-19 25.5 -35 35.5s-38.333 15 -67 15
c-20.667 0 -43.834 -3.16699 -69.501 -9.5s-53 -17 -82 -32s-58.833 -34.833 -89.5 -59.5s-61.334 -55.334 -92.001 -92.001c-46 -55.333 -81.5 -110.833 -106.5 -166.5s-37.5 -105.834 -37.5 -150.501c0 -38 8.66699 -67.333 26 -88s42 -31 74 -31
c36.667 0 71 8.16699 103 24.5s62 37.5 90 63.5s54.667 54.833 80 86.5z" />
    <glyph glyph-name="b" unicode="b" horiz-adv-x="719" 
d="M570 454c-25.333 6 -47.1699 14.5029 -65.5029 25.5029s-33.166 23.5 -44.499 37.5s-19.666 28.833 -24.999 44.5s-8 31.167 -8 46.5c0 33.333 9.33301 59.166 28 77.499s42 27.5 70 27.5c18.667 0 34.667 -4.83301 48 -14.5s24.333 -22.5 33 -38.5s15 -34.5 19 -55.5
s6 -42.833 6 -65.5c0 -15.333 -0.666992 -30.5 -2 -45.5s-3.66602 -30.167 -6.99902 -45.5c-16 -72 -39.5 -137.167 -70.5 -195.5s-66 -108.333 -105 -150s-80.5 -73.667 -124.5 -96s-87 -33.5 -129 -33.5c-28.667 0 -55.834 4 -81.501 12s-48.334 21.333 -68.001 40
s-35.167 43.167 -46.5 73.5s-17 67.833 -17 112.5c0 55.333 10.833 121.333 32.5 198s58.5 166.667 110.5 270c74.667 144.667 149.667 274.334 225 389.001c32 48.667 65.667 96.334 101 143.001s70.833 88.334 106.5 125.001s71 66.167 106 88.5s68.167 33.5 99.5 33.5
c4 0 11.167 -0.666992 21.5 -2s20.833 -4.83301 31.5 -10.5s20.167 -14.334 28.5 -26.001s12.5 -27.834 12.5 -48.501c0 -24.667 -6.5 -55.834 -19.5 -93.501s-32.333 -79.334 -58 -125.001s-57.334 -94.334 -95.001 -146.001s-81 -103.5 -130 -155.5
s-103.333 -103 -163 -153s-124.5 -96.667 -194.5 -140c-23.333 -50.667 -42.833 -96.5 -58.5 -137.5s-28.167 -78 -37.5 -111s-16 -62.167 -20 -87.5s-6 -47.333 -6 -66c0 -26 3.5 -47.5 10.5 -64.5s16.5 -30.333 28.5 -40s25.667 -16.5 41 -20.5s31.333 -6 48 -6
c31.333 0 61.833 8 91.5 24s57.834 36.833 84.501 62.5s51.167 54.5 73.5 86.5s41.833 63.833 58.5 95.5s30.334 61.667 41.001 90s17.334 51.833 20.001 70.5zM236.996 649.003c61.333 42 117.833 86.334 169.5 133.001s98.5 93.5 140.5 140.5s79 93 111 138
s58.667 87.167 80 126.5s37.5 74.5 48.5 105.5s16.5 56.167 16.5 75.5c0 17.333 -6.33301 26 -19 26c-24 0 -52.833 -13 -86.5 -39s-72.667 -68.333 -117 -127s-95 -135.334 -152 -230.001s-120.833 -211 -191.5 -349zM576.996 506.004
c0.666992 6 1.16602 12.002 1.49902 18.002s0.5 11.667 0.5 17c0 36 -4.66699 65 -14 87s-22.666 33 -39.999 33c-4 0 -8.5 -0.5 -13.5 -1.5s-10 -3.33301 -15 -7s-9.16699 -8.83398 -12.5 -15.501s-5 -15.334 -5 -26.001c0 -27.333 9.5 -49.833 28.5 -67.5
s42.167 -30.167 69.5 -37.5z" />
    <glyph glyph-name="c" unicode="c" horiz-adv-x="693" 
d="M564 607c4 10.667 5.99902 22.0029 5.99902 34.0029c0 21.333 -8.5 38.166 -25.5 50.499s-43.833 18.5 -80.5 18.5c-30 0 -60.167 -6.5 -90.5 -19.5s-59.5 -30.833 -87.5 -53.5s-54.167 -49.667 -78.5 -81s-45.333 -65.333 -63 -102s-31.667 -75.5 -42 -116.5
s-15.5 -82.167 -15.5 -123.5c0 -33.333 3.66699 -61.666 11 -84.999s17.666 -42.333 30.999 -57s29.333 -25.167 48 -31.5s39.667 -9.5 63 -9.5c46 0 90.667 10.333 134 31s84.5 47.5 123.5 80.5s75 69.833 108 110.5s62.167 80.667 87.5 120l37 -28
c-36 -60.667 -74.333 -113.834 -115 -159.501s-82.334 -83.834 -125.001 -114.501s-86 -53.667 -130 -69s-87 -23 -129 -23c-33.333 0 -65.166 5 -95.499 15s-57 25.167 -80 45.5s-41.333 46.5 -55 78.5s-20.5 70 -20.5 114c0 52 7.5 101.167 22.5 147.5
s35 89.166 60 128.499s53.833 74.833 86.5 106.5s66.834 58.5 102.501 80.5s71.667 38.833 108 50.5s70.5 17.5 102.5 17.5c32.667 0 59.334 -4.5 80.001 -13.5s37 -19.833 49 -32.5s20.167 -26 24.5 -40s6.5 -26 6.5 -36c0 -16 -2.33301 -33 -7 -51
s-11.167 -34.5 -19.5 -49.5s-18.666 -27.5 -30.999 -37.5s-25.833 -15 -40.5 -15s-27.334 4.83301 -38.001 14.5s-16 21.834 -16 36.501c0 0.666992 0.5 4.66699 1.5 12s4.16699 15.166 9.5 23.499s13.5 15.833 24.5 22.5s26.5 10 46.5 10h12v0z" />
    <glyph glyph-name="d" unicode="d" horiz-adv-x="927" 
d="M1115 1314l-36.001 -53l-58 -88l-71.5 -113l-77 -128l-75 -133.5c-24.333 -45 -45.833 -88.167 -64.5 -129.5c-29.333 -64 -53.5 -121.167 -72.5 -171.5s-34 -95.166 -45 -134.499s-18.667 -73.5 -23 -102.5s-6.5 -53.833 -6.5 -74.5c0 -38 5.83301 -64.333 17.5 -79
s27.5 -22 47.5 -22c20.667 0 40.5 5.33301 59.5 16s37.333 24.334 55 41.001s34.334 35.667 50.001 57s30.334 42.666 44.001 63.999l37.5 61c11.333 19.333 21.333 35.666 30 48.999l36 -28c-7.33301 -12 -16.5 -27.833 -27.5 -47.5l-37.5 -64.5
c-14 -23.333 -30 -46.833 -48 -70.5s-37.833 -45.167 -59.5 -64.5s-45.667 -35.166 -72 -47.499s-54.833 -18.5 -85.5 -18.5c-14.667 0 -30.167 2 -46.5 6s-31.5 11 -45.5 21s-26.333 23.833 -37 41.5s-17.667 40.167 -21 67.5c-50 -54 -98.667 -94.833 -146 -122.5
s-92 -41.5 -134 -41.5c-21.333 0 -44.833 3.66699 -70.5 11s-49.834 20 -72.501 38s-41.667 41.833 -57 71.5s-23 66.5 -23 110.5c0 49.333 7.66699 96.333 23 141s36 86.167 62 124.5s55.833 73 89.5 104s68.834 57.333 105.501 79s73.5 38.5 110.5 50.5
s71.833 18 104.5 18c43.333 0 77.333 -5.33301 102 -16s43.334 -21.334 56.001 -32.001c9.33301 18.667 22 42.5 38 71.5l56 97l71 114c26 40.333 53.667 81 83 122s60.166 81.5 92.499 121.5s65.166 77.333 98.499 112zM481.999 243
c3.33301 49.333 14.832 107.498 34.499 174.498s49.834 144.167 90.501 231.5c-9.33301 14 -22.5 24.833 -39.5 32.5s-36.167 11.5 -57.5 11.5c-32.667 0 -65.834 -6.66699 -99.501 -20s-66 -31.333 -97 -54s-60.167 -49.5 -87.5 -80.5s-51.166 -64.167 -71.499 -99.5
s-36.333 -72.166 -48 -110.499s-17.5 -76.166 -17.5 -113.499c0 -50 10.5 -89 31.5 -117s49.167 -42 84.5 -42c16.667 0 35 3.33301 55 10s41.833 17.5 65.5 32.5s48.5 34.333 74.5 58s53.333 52.5 82 86.5z" />
    <glyph glyph-name="e" unicode="e" horiz-adv-x="730" 
d="M76 228c-1.33301 -8 -2.33301 -16.002 -3 -24.002s-1 -16 -1 -24c0 -24 3.5 -46.833 10.5 -68.5s17.333 -40.667 31 -57s30.667 -29.166 51 -38.499s43.5 -14 69.5 -14c87.333 0 171.666 29.667 252.999 89s162.333 153.333 243 282l34 -30
c-44 -73.333 -88.667 -135.166 -134 -185.499s-90.5 -91.166 -135.5 -122.499s-89.167 -54 -132.5 -68s-84.666 -21 -123.999 -21c-28.667 0 -59 4 -91 12s-61.5 21.333 -88.5 40s-49.333 43.667 -67 75s-26.5 70.333 -26.5 117c0 50 8.5 98.167 25.5 144.5
s39.167 89.5 66.5 129.5s58.666 76.5 93.999 109.5s71.166 61.167 107.499 84.5s71.833 41.5 106.5 54.5s65.334 19.5 92.001 19.5c17.333 0 35 -2.66699 53 -8s34.167 -13.666 48.5 -24.999s26 -26.333 35 -45s13.5 -41 13.5 -67c0 -35.333 -8.16699 -68.5 -24.5 -99.5
s-38.166 -59.667 -65.499 -86s-59 -50 -95 -71s-73.667 -38.833 -113 -53.5s-79 -26.334 -119 -35.001s-78 -13.334 -114 -14.001zM84 270.998c44.667 4.66699 86.668 13.999 126.001 27.999s75.333 31.167 108 51.5s61.834 42.5 87.501 66.5s47.167 48.333 64.5 73
s30.666 48.334 39.999 71.001s14 43 14 61s-4.83301 32.333 -14.5 43s-21.167 16 -34.5 16c-29.333 0 -62.333 -10.5 -99 -31.5s-73.334 -50 -110.001 -87s-71.167 -80.5 -103.5 -130.5s-58.5 -103.667 -78.5 -161z" />
    <glyph glyph-name="f" unicode="f" horiz-adv-x="534" 
d="M11 71c21.333 -16.667 49.667 -25.001 85 -25.001c38 0 73.833 6 107.5 18s65.167 27.833 94.5 47.5s56.333 41.5 81 65.5s46.834 48.167 66.501 72.5s37 47.333 52 69s27.167 39.834 36.5 54.501h56c-9.33301 -16 -22.166 -36.5 -38.499 -61.5
s-35.666 -51.5 -57.999 -79.5s-47.5 -56.167 -75.5 -84.5s-58.833 -53.833 -92.5 -76.5s-69.5 -41.167 -107.5 -55.5s-78.333 -21.5 -121 -21.5c-18.667 0 -36.834 2.16699 -54.501 6.5s-34.834 11.166 -51.501 20.499l-64.5 -159l-60 -148l-52.5 -129l-42 -102.5l-28 -69
c-6.66699 -17 -10.334 -25.833 -11.001 -26.5l-105 52l91.5 220l75 187l65 163.5l61.5 148.5c-10.667 15.333 -18.5 30.333 -23.5 45s-8.16699 26.667 -9.5 36c-1.33301 15.333 2.83398 28.166 12.501 38.499s22.167 15.5 37.5 15.5c12.667 0 24.334 -4.33301 35.001 -13
l53.5 126.5l39.5 91.5l32 75c58 136.667 111.833 254.834 161.5 354.501s95.5 184.334 137.5 254.001s80.333 126 115 169s66.167 76.5 94.5 100.5s53.833 40.167 76.5 48.5s43 12.5 61 12.5c29.333 0 54.166 -6.5 74.499 -19.5s31.833 -35.167 34.5 -66.5
c2.66699 -30.667 -2.83301 -69.334 -16.5 -116.001s-32.334 -96.167 -56.001 -148.5s-51.167 -105.166 -82.5 -158.499s-63.333 -102.333 -96 -147c-62 -84 -118.167 -153.667 -168.5 -209s-94.5 -100 -132.5 -134s-69.667 -59.167 -95 -75.5s-44 -27.5 -56 -33.5z
M791.001 1411c-0.666992 11.333 -3.16797 21.165 -7.50098 29.498s-13.166 12.5 -26.499 12.5c-8 0 -18.333 -1.83301 -31 -5.5s-27.5 -11.5 -44.5 -23.5s-36.167 -29.667 -57.5 -53s-45.166 -54.666 -71.499 -93.999s-55 -88 -86 -146s-64.167 -128 -99.5 -210l-81 -189.5
l-101 -241.5c31.333 22 64.166 49.5 98.499 82.5s69 69.333 104 109s69.5 81.834 103.5 126.501s66.333 90 97 136s58.834 91.667 84.501 137s47.667 88.5 66 129.5s32.166 78.667 41.499 113s13 63.5 11 87.5z" />
    <glyph glyph-name="g" unicode="g" horiz-adv-x="924" 
d="M381 34c-34.667 -23.333 -70.4961 -42.1699 -107.496 -56.5029s-72.5 -21.5 -106.5 -21.5c-25.333 0 -50.666 3.66699 -75.999 11s-48.333 19.5 -69 36.5s-37.5 39.5 -50.5 67.5s-19.5 62.667 -19.5 104c0 50 9 98 27 144s42 88.833 72 128.5s64.333 75.834 103 108.501
s78.5 60.5 119.5 83.5s81.833 40.833 122.5 53.5s77.667 19 111 19c32.667 0 60.5 -3.5 83.5 -10.5s42.5 -15.667 58.5 -26s28.667 -21.5 38 -33.5s17 -23.333 23 -34l54 71l33 -22c0 -0.666992 -5.33301 -11.167 -16 -31.5l-42 -81.5l-60.5 -119.5l-72 -145.5l-76 -159
l-73.5 -161c60.667 34.667 114 68 160 100s87.167 64.333 123.5 97s69.166 66.667 98.499 102s57.666 73.666 84.999 114.999l37 -28c-26.667 -43.333 -55.5 -83.5 -86.5 -120.5s-67.333 -73.667 -109 -110s-90.334 -73.666 -146.001 -111.999
s-121.834 -80.5 -198.501 -126.5c-63.333 -155.333 -124.333 -283.833 -183 -385.5s-114.167 -182.167 -166.5 -241.5s-101 -101 -146 -125s-85.5 -36 -121.5 -36c-14.667 0 -30.5 1.83301 -47.5 5.5s-32.833 10.834 -47.5 21.501s-26.834 25.334 -36.501 44.001
s-14.5 42.667 -14.5 72c0 56 14.833 111.333 44.5 166s72.667 109 129 163s125.333 107.667 207 161s174.167 107 277.5 161l35 81.5zM433.004 143.996l53.4971 100.499l55 99l61 101.5c21.667 34.667 45.834 70.667 72.501 108c-1.33301 10 -4.66602 20.333 -9.99902 31
s-12.666 20.5 -21.999 29.5s-21.333 16.5 -36 22.5s-32 9 -52 9c-22.667 0 -48.5 -3 -77.5 -9s-59.5 -16.333 -91.5 -31s-64.5 -34.334 -97.5 -59.001s-65.167 -55.667 -96.5 -93c-46 -54.667 -81.333 -109.167 -106 -163.5s-37 -103.833 -37 -148.5
c0 -43.333 11 -76.166 33 -98.499s52 -33.5 90 -33.5c40 0 82.5 12.333 127.5 37s89.5 57.334 133.5 98.001zM-195.999 -861.005c25.333 0 51.666 9.33008 78.999 27.9971s55 44.167 83 76.5s55.667 69.833 83 112.5s54.333 88.167 81 136.5s52.167 97.833 76.5 148.5
l69.5 149c-99.333 -52 -184.166 -106.167 -254.499 -162.5s-127.833 -110.166 -172.5 -161.499s-77.167 -97.666 -97.5 -138.999s-30.5 -73 -30.5 -95c0 -27.333 6 -49.666 18 -66.999s33.667 -26 65 -26z" />
    <glyph glyph-name="h" unicode="h" horiz-adv-x="859" 
d="M136 391c35.333 48 71.999 92.168 109.999 132.501s76.333 75.166 115 104.499s76.834 52.166 114.501 68.499s74.167 24.5 109.5 24.5c24 0 43.833 -3.66699 59.5 -11s28 -16.833 37 -28.5s15.333 -24.5 19 -38.5s5.5 -28 5.5 -42c0 -24 -5 -49.833 -15 -77.5
s-22.5 -56.5 -37.5 -86.5s-31.167 -60.667 -48.5 -92s-33.5 -62 -48.5 -92s-27.5 -59.167 -37.5 -87.5s-15 -54.833 -15 -79.5c0 -15.333 3.5 -29.5 10.5 -42.5s19.5 -19.5 37.5 -19.5c21.333 0 45 10.833 71 32.5s52.5 49.334 79.5 83.001s54 71.167 81 112.5
s52.167 81.666 75.5 120.999l36 -28c-7.33301 -10 -17.333 -26.167 -30 -48.5l-44.5 -75c-17 -27.667 -36 -56.167 -57 -85.5s-43.333 -56.166 -67 -80.499s-48.5 -44.333 -74.5 -60s-52.333 -23.5 -79 -23.5c-17.333 0 -34.666 2 -51.999 6s-33 11.333 -47 22
s-25.333 25.167 -34 43.5s-13 41.5 -13 69.5c0 32.667 5.5 65.834 16.5 99.501s24.667 67 41 100s34.166 65 53.499 96l53.5 87.5c16.333 27.333 30 52.166 41 74.499s16.5 41.166 16.5 56.499c0 27.333 -13.333 41 -40 41c-38 0 -78.167 -12.5 -120.5 -37.5
s-84.833 -57.5 -127.5 -97.5s-84.667 -84.833 -126 -134.5s-80 -99.167 -116 -148.5l-152 -286l-91 36l244.5 547.5l241.5 534.5c12.667 27.333 27.5 57 44.5 89s35.333 64 55 96s40.834 62.667 63.501 92s46 55.333 70 78s48.833 40.834 74.5 54.501s51.5 20.5 77.5 20.5
c29.333 0 52.166 -8.16699 68.499 -24.5s24.5 -39.5 24.5 -69.5c0 -31.333 -8.33301 -66.833 -25 -106.5s-39 -81.5 -67 -125.5s-60.5 -89.333 -97.5 -136s-76 -93 -117 -139l-124.5 -133.5l-121 -119.5zM721.999 1459c-30 0 -57.499 -11.499 -82.499 -34.499
s-52.167 -60.833 -81.5 -113.5s-63 -121.334 -101 -206.001l-139 -312c73.333 71.333 137.5 140.5 192.5 207.5s100.833 128.167 137.5 183.5s64.167 103.5 82.5 144.5s27.5 71.5 27.5 91.5c0 12 -3.33301 21.5 -10 28.5s-15.334 10.5 -26.001 10.5z" />
    <glyph glyph-name="i" unicode="i" horiz-adv-x="372" 
d="M449 887c0 -13.333 -3.33203 -27.1689 -9.99902 -41.502s-15.167 -27.166 -25.5 -38.499s-21.833 -20.666 -34.5 -27.999s-25.334 -11 -38.001 -11c-11.333 0 -20 4.16699 -26 12.5s-9 18.5 -9 30.5c0 10.667 2 23.334 6 38.001s10 28.5 18 41.5s17.667 24.167 29 33.5
s24.333 14 39 14c14 0 26 -5.33301 36 -16s15 -22.334 15 -35.001zM262.001 664.997c-8.66699 -17.333 -20.835 -40.1689 -36.502 -68.502l-50.5 -93l-55 -106c-18.667 -37 -35.5 -73 -50.5 -108s-27.167 -67.833 -36.5 -98.5s-14 -56.667 -14 -78
c0 -19.333 4 -32.5 12 -39.5s19.333 -10.5 34 -10.5c27.333 0 54 9 80 27s51.833 41.5 77.5 70.5s50.834 62.167 75.501 99.5l74 113l36 -28c-19.333 -34.667 -41.166 -71.667 -65.499 -111s-51.5 -75.833 -81.5 -109.5s-63 -61.5 -99 -83.5s-75.333 -33 -118 -33
c-40 0 -70.667 12 -92 36s-32 55 -32 93c0 44.667 10.333 91.334 31 140.001s46.5 96.834 77.5 144.501s64.667 93.5 101 137.5l100.5 120z" />
    <glyph glyph-name="j" unicode="j" horiz-adv-x="549" 
d="M426 662c-26 -47.333 -52.999 -99.1709 -80.999 -155.504l-84.5 -175.5l-85 -185l-83.5 -184c62.667 34.667 117.834 69.334 165.501 104.001s89.5 69.167 125.5 103.5s67.333 68.5 94 102.5s50.667 67.667 72 101l36 -28c-30 -45.333 -62.167 -88.166 -96.5 -128.499
s-72.833 -79.5 -115.5 -117.5s-90.5 -75.667 -143.5 -113s-112.5 -75.666 -178.5 -114.999l-69 -148.5l-62 -125.5c-33.333 -63.333 -70 -122.666 -110 -177.999s-80.833 -103.5 -122.5 -144.5s-82.834 -73.333 -123.501 -97s-78.334 -35.5 -113.001 -35.5
c-14 0 -27.5 2.33301 -40.5 7s-24.833 11.667 -35.5 21s-19.167 21.5 -25.5 36.5s-9.5 33.167 -9.5 54.5c0 56 13.5 111.333 40.5 166s66 108.167 117 160.5s113.667 103.333 188 153s158.833 97.167 253.5 142.5l61 127l57 116l60.5 114.5l71 123.5l89 143l114.5 172z
M-545.999 -805.005c34.667 0 68.835 14 102.502 42s68 67.667 103 119s71.333 112.833 109 184.5l120.5 238.5l-43 -23c-69.333 -37.333 -131.833 -78.833 -187.5 -124.5s-102.834 -91.5 -141.501 -137.5s-68.334 -90 -89.001 -132s-31 -77.333 -31 -106
c0 -17.333 4.5 -31.833 13.5 -43.5s23.5 -17.5 43.5 -17.5zM565.002 834.995c-13.333 -19.333 -28 -35.3311 -44 -47.998s-31 -19 -45 -19c-11.333 0 -20 4.16699 -26 12.5s-9 18.166 -9 29.499c0 10.667 2.33301 23.334 7 38.001s11.167 28.667 19.5 42
s18.166 24.666 29.499 33.999s23.333 14 36 14c14.667 0 26.834 -5.33301 36.501 -16s14.5 -22 14.5 -34c0 -16.667 -6.33301 -34.334 -19 -53.001z" />
    <glyph glyph-name="k" unicode="k" horiz-adv-x="863" 
d="M120 351c34.667 48 71.5 94.168 110.5 138.501s78.5 83.666 118.5 117.999s80.333 61.833 121 82.5s80.334 31 119.001 31c24 0 43.667 -3.66699 59 -11s27.5 -16.666 36.5 -27.999s15.333 -24.166 19 -38.499s5.5 -28.5 5.5 -42.5c0 -20 -3.83301 -41.667 -11.5 -65
s-19.334 -46.833 -35.001 -70.5s-35.5 -46.334 -59.5 -68.001s-52.667 -41.167 -86 -58.5c7.33301 -17.333 11 -38.333 11 -63c0 -15.333 -2 -30.833 -6 -46.5s-8.33301 -31.167 -13 -46.5s-9 -30.833 -13 -46.5s-6 -31.5 -6 -47.5c0 -8 0.5 -15.667 1.5 -23s3 -14 6 -20
s7.66699 -10.833 14 -14.5s15.166 -5.5 26.499 -5.5c13.333 0 28.666 5.5 45.999 16.5s35.666 25.5 54.999 43.5s39.166 38.833 59.499 62.5s40.166 48.5 59.499 74.5l56 77.5l49 72.5l37 -28l-99.5 -145c-32.333 -46 -64.666 -86.333 -96.999 -121
s-65.166 -62.334 -98.499 -83.001s-67.666 -31 -102.999 -31c-14 0 -28.5 2 -43.5 6s-28.667 10.5 -41 19.5s-22.5 20.833 -30.5 35.5s-12 32.667 -12 54c0 25.333 6.33301 55 19 89c11.333 32 19.666 58.833 24.999 80.5s8.33301 39.834 9 54.501
c-14 -3.33301 -28.833 -6.33301 -44.5 -9s-30.5 -4 -44.5 -4c-7.33301 0 -15.333 0.833008 -24 2.5s-16.667 4.5 -24 8.5s-13.5 9.16699 -18.5 15.5s-7.5 14.5 -7.5 24.5s3.16699 19.5 9.5 28.5s15 17 26 24s24.167 12.5 39.5 16.5s32.333 6 51 6
c34.667 0 64.334 -9.33301 89.001 -28c24 18.667 43.833 39 59.5 61s27.834 43.333 36.501 64s14.667 39.167 18 55.5s5 28.5 5 36.5c0 22 -4 37.167 -12 45.5s-17.667 12.5 -29 12.5c-21.333 0 -45.166 -7 -71.499 -21s-53.666 -33 -81.999 -57s-57.333 -51.667 -87 -83
s-58.667 -64.333 -87 -99l-82 -105l-72.5 -100c-20 -33.333 -37.833 -64.333 -53.5 -93l-39.5 -74c-10.667 -20.667 -19 -36.334 -25 -47.001s-9.33301 -14.334 -10 -11.001l-99 26l239 538l255 544l45.5 87.5c17 31.667 35.333 63.334 55 95.001s40.667 62.5 63 92.5
s45.333 56.5 69 79.5s47.834 41.333 72.501 55s49.334 20.5 74.001 20.5c26 0 47.167 -7.33301 63.5 -22s24.5 -38 24.5 -70c0 -44 -11.833 -97.5 -35.5 -160.5s-58.834 -129.833 -105.501 -200.5s-104.834 -142.167 -174.501 -214.5s-150.834 -139.5 -243.501 -201.5z
M295 739.001c80.667 62.667 150.165 127.17 208.498 193.503s106.333 130.166 144 191.499s65.334 118.166 83.001 170.499s26.5 96.166 26.5 131.499c0 10 -2.66699 18 -8 24s-13.666 9 -24.999 9c-24.667 0 -50 -12.167 -76 -36.5s-55.5 -64.5 -88.5 -120.5
s-70.833 -130 -113.5 -222zM422.998 349.004c-3.33301 7.33301 -8.83203 13.833 -16.499 19.5s-16.167 8.5 -25.5 8.5c-19.333 0 -36.333 -4 -51 -12s-22 -15.667 -22 -23c0 -5.33301 3.16699 -8.83301 9.5 -10.5s12.166 -2.5 17.499 -2.5c17.333 0 33.333 2 48 6
s28 8.66699 40 14z" />
    <glyph glyph-name="l" unicode="l" horiz-adv-x="562" 
d="M724 1455c23.333 0 42.8301 -5.66699 58.4971 -17s23.5 -32 23.5 -62c0 -20.667 -4.16699 -45.334 -12.5 -74.001s-19.666 -59.834 -33.999 -93.501s-31.166 -69 -50.499 -106s-40.166 -73.833 -62.499 -110.5s-45.666 -72.334 -69.999 -107.001s-48.5 -66.667 -72.5 -96
l-124.5 -150l-90.5 -103.5c-25.333 -28.333 -46.666 -51.333 -63.999 -69l-46 -45.5l-37 -34.5c-11.333 -10.333 -23 -21.833 -35 -34.5c-5.33301 -25.333 -7.83301 -49.5 -7.5 -72.5s0.5 -44.167 0.5 -63.5c0 -58 9.33301 -101 28 -129s45 -42 79 -42
c22.667 0 45.5 5.83301 68.5 17.5s45.833 26.834 68.5 45.501s44.667 39.834 66 63.501s41.5 47.667 60.5 72s36.167 47.833 51.5 70.5l40 59l37 -28c-2 -2.66699 -8.5 -13.167 -19.5 -31.5s-25.5 -40.5 -43.5 -66.5s-39.333 -53.833 -64 -83.5
s-51.334 -57.167 -80.001 -82.5s-58.834 -46.333 -90.501 -63s-63.834 -25 -96.501 -25c-27.333 0 -53.5 5.16699 -78.5 15.5s-47 26.666 -66 48.999s-34.333 50.833 -46 85.5s-17.5 76.334 -17.5 125.001c0 60.667 7.16699 124.167 21.5 190.5s33.833 133 58.5 200
s53.667 133.167 87 198.5s68.833 127.5 106.5 186.5s77 113.667 118 164s81.333 93.833 121 130.5s77.834 65.334 114.501 86.001s70 31 100 31zM124.997 441l164.498 178.5c53 60.333 102.667 120 149 179s88.833 116.333 127.5 172s71.667 108.167 99 157.5
s48.666 94.333 63.999 135s23 75.667 23 105c0 5.33301 -2.66699 12.5 -8 21.5s-11.666 13.5 -18.999 13.5c-20.667 0 -48 -13.667 -82 -41s-70.833 -64.5 -110.5 -111.5s-80.667 -101.833 -123 -164.5s-82.166 -129.667 -119.499 -201s-70.666 -145 -99.999 -221
s-51 -150.333 -65 -223z" />
    <glyph glyph-name="m" unicode="m" horiz-adv-x="1342" 
d="M832 544c19.333 22.667 39.3311 43.666 59.998 62.999s41.334 36 62.001 50s41.167 24.833 61.5 32.5s39.833 11.5 58.5 11.5c14.667 0 29.167 -2.5 43.5 -7.5s27.166 -12.667 38.499 -23s20.333 -23.5 27 -39.5s10 -35 10 -57c0 -32 -4.33301 -63.5 -13 -94.5
s-19.667 -61.167 -33 -90.5s-27.5 -57.666 -42.5 -84.999l-42.5 -78.5c-13.333 -25 -24.333 -48.667 -33 -71s-13 -42.833 -13 -61.5c0 -14.667 3.83301 -25.167 11.5 -31.5s15.834 -9.5 24.501 -9.5c17.333 0 37.833 10 61.5 30s48.5 45.667 74.5 77
s52.167 65.833 78.5 103.5l75.5 110.5l36 -28l-33.5 -55.5c-13.667 -23 -29.5 -47.667 -47.5 -74s-37.667 -53 -59 -80s-43.833 -51.333 -67.5 -73s-48.167 -39.334 -73.5 -53.001s-50.666 -20.5 -75.999 -20.5c-14 0 -27.5 2 -40.5 6s-24.5 10.5 -34.5 19.5
s-18 20.833 -24 35.5s-9 32.667 -9 54c0 29.333 5 58 15 86s22.667 55.667 38 83s31.833 54.5 49.5 81.5s34.167 53.833 49.5 80.5s28 53.5 38 80.5s15 54.5 15 82.5c0 14 -2.66699 25.167 -8 33.5s-15.333 12.5 -30 12.5c-23.333 0 -48 -9.5 -74 -28.5s-53 -44.5 -81 -76.5
s-56.667 -69.167 -86 -111.5s-58.5 -87 -87.5 -134l-86 -143l-81.5 -139.5l-84 44c35.333 72.667 68.5 137.667 99.5 195l81.5 155.5c23.333 46.333 41.666 88.666 54.999 126.999s20 74.5 20 108.5c0 6.66699 -0.666992 13.5 -2 20.5s-4 13.167 -8 18.5
s-9.16699 9.83301 -15.5 13.5s-14.5 5.5 -24.5 5.5c-22.667 0 -45.667 -10.5 -69 -31.5s-48 -49.667 -74 -86s-53.833 -78.666 -83.5 -126.999l-96 -153.5c-34.333 -54 -71.5 -109.5 -111.5 -166.5s-83.667 -112.167 -131 -165.5l-69 46l67.5 101.5l70 108.5l66 109.5
c21 36.333 39.5 70.833 55.5 103.5s28.667 62.667 38 90s14 50.666 14 69.999c0 22.667 -5.66699 39 -17 49s-26 15 -44 15c-21.333 0 -42.166 -7.66699 -62.499 -23s-41.666 -37 -63.999 -65s-46.333 -61.5 -72 -100.5l-87.5 -128.5l-36 28l95.5 148
c28.333 42.667 55.166 78.334 80.499 107.001s50.5 50.334 75.5 65.001s52.167 22 81.5 22c8.66699 0 19.834 -1.66699 33.501 -5s27.167 -9.33301 40.5 -18s25.166 -20.667 35.499 -36s16.5 -35 18.5 -59c37.333 48 76.333 86.333 117 115s79 43 115 43
c26 0 48 -5.16699 66 -15.5s32.5 -23.833 43.5 -40.5s19 -35.5 24 -56.5s7.5 -42.167 7.5 -63.5c0 -5.33301 -0.166992 -11 -0.5 -17s-0.833008 -12 -1.5 -18z" />
    <glyph glyph-name="n" unicode="n" horiz-adv-x="1027" 
d="M835 519c0 -28.667 -4.99902 -57.832 -14.999 -87.499s-22.667 -59.334 -38 -89.001s-31.666 -58.834 -48.999 -87.501l-49 -83c-15.333 -26.667 -28 -52.167 -38 -76.5s-15 -46.5 -15 -66.5c0 -15.333 3.33301 -25.666 10 -30.999s14 -8 22 -8
c25.333 0 53.666 12.5 84.999 37.5s63.166 56.5 95.499 94.5s64.5 79.333 96.5 124s61 87 87 127l36 -28c-5.33301 -8 -15 -23.833 -29 -47.5s-31.333 -50.667 -52 -81s-43.834 -62 -69.501 -95s-53.167 -63.333 -82.5 -91s-59.5 -50.5 -90.5 -68.5s-62.167 -27 -93.5 -27
c-18 0 -34.333 3 -49 9s-27.167 14.333 -37.5 25s-18.5 23.167 -24.5 37.5s-9 29.5 -9 45.5c0 26 5.83301 54.167 17.5 84.5s26.167 61.5 43.5 93.5s36.333 64.167 57 96.5l57 92.5c17.333 29.333 31.833 56.5 43.5 81.5s17.5 46.5 17.5 64.5c0 20.667 -5.5 38 -16.5 52
s-26.5 21 -46.5 21c-21.333 0 -46 -8.83301 -74 -26.5s-59.333 -43.5 -94 -77.5s-72.5 -75.833 -113.5 -125.5l-133.5 -169.5l-80 -106l-34 -45l-34 -45.5l-32 -43l-27 -35.5l-88 36l117 161l51 73l51.5 80.5c17 27.667 33.167 55.5 48.5 83.5l43 82
c19.333 40 32.666 73.167 39.999 99.5s11 47.5 11 63.5c0 18 -3.33301 29.833 -10 35.5s-16 8.5 -28 8.5c-12.667 0 -27.167 -6.5 -43.5 -19.5s-33.166 -29.667 -50.499 -50s-34.833 -43.333 -52.5 -69l-50.5 -76.5l-45 -72l-35 -55l-36 28l92.5 146.5
c27.667 44.333 54.334 82.5 80.001 114.5s50.667 56.833 75 74.5s50.166 26.5 77.499 26.5c14.667 0 28.834 -3 42.501 -9s25.667 -14.833 36 -26.5s18.5 -25.834 24.5 -42.501s9 -36 9 -58c0 -17.333 -2 -35.333 -6 -54c29.333 28.667 56.666 52.334 81.999 71.001
s48.666 33.5 69.999 44.5s41 18.833 59 23.5s34.333 7 49 7c12.667 0 27.334 -2.33301 44.001 -7s32.334 -13.334 47.001 -26.001s27.167 -30.167 37.5 -52.5s15.5 -51.166 15.5 -86.499z" />
    <glyph glyph-name="o" unicode="o" horiz-adv-x="747" 
d="M564 272c2.66699 -0.666992 5.3291 -0.99707 7.99609 -0.99707h9c18.667 0 35.667 1.83301 51 5.5s29.5 9.5 42.5 17.5s25.5 18.5 37.5 31.5s23.667 28.833 35 47.5l36 -28c-32 -45.333 -65 -77 -99 -95s-70 -27 -108 -27c-14 0 -26.333 1.33301 -37 4
c-28.667 -48 -59.334 -88.833 -92.001 -122.5s-66 -61.167 -100 -82.5s-67.667 -36.833 -101 -46.5s-64.333 -14.5 -93 -14.5c-29.333 0 -56.5 5.16699 -81.5 15.5s-46.5 25.166 -64.5 44.499s-32 42.333 -42 69s-15 56.667 -15 90s5.33301 67.333 16 102
s25.167 69 43.5 103s39.833 66.833 64.5 98.5s51.334 61.167 80.001 88.5s58.334 52 89.001 74s61.334 40 92.001 54l32 -42c-35.333 -25.333 -71.166 -57.333 -107.499 -96s-69.333 -81 -99 -127s-54 -93.833 -73 -143.5s-28.5 -97.834 -28.5 -144.501
c0 -42 9.33301 -74.5 28 -97.5s47 -34.5 85 -34.5c29.333 0 58.333 6 87 18s56.667 28.333 84 49s53.666 45.167 78.999 73.5s49.333 58.5 72 90.5c-19.333 11.333 -36.333 26.5 -51 45.5s-27 40.667 -37 65s-17.5 50.5 -22.5 78.5s-7.5 56.667 -7.5 86s3.66699 57 11 83
s17.5 48.833 30.5 68.5s28.167 35.167 45.5 46.5s36.333 17 57 17c18.667 0 35.334 -4.83301 50.001 -14.5s27 -23 37 -40s17.667 -37.167 23 -60.5s8 -48.333 8 -75c0 -20 -1.66699 -42 -5 -66s-8.16602 -48.167 -14.499 -72.5s-14 -48.333 -23 -72
s-19.5 -44.834 -31.5 -63.501zM427.995 521.003c0 -19.333 1.66797 -40.335 5.00098 -63.002s8.66602 -44.667 15.999 -66s16.666 -41.166 27.999 -59.499s25.333 -32.833 42 -43.5c12 23.333 22.167 47.166 30.5 71.499s15.333 47.833 21 70.5s9.66699 43.834 12 63.501
s3.5 36.834 3.5 51.501c0 20 -1.66699 38.333 -5 55s-7.83301 31.167 -13.5 43.5s-12.667 22 -21 29s-17.5 10.5 -27.5 10.5c-13.333 0 -25.666 -4.5 -36.999 -13.5s-21 -21 -29 -36s-14.167 -32.333 -18.5 -52s-6.5 -40.167 -6.5 -61.5z" />
    <glyph glyph-name="p" unicode="p" horiz-adv-x="813" 
d="M349 872l-227 -455.991c40 51.333 82 99.166 126 143.499s89 80.5 135 108.5c34 20 64 33.833 90 41.5s50.667 11.5 74 11.5c22.667 0 41.334 -3.66699 56.001 -11s26.334 -17 35.001 -29s14.667 -25.167 18 -39.5s5 -28.5 5 -42.5c0 -31.333 -5.33301 -62.333 -16 -93
s-23.834 -61 -39.501 -91s-32.834 -59.5 -51.501 -88.5s-35.834 -57.333 -51.501 -85s-28.834 -54.834 -39.501 -81.501s-16 -52.334 -16 -77.001c0 -12 1.5 -21.833 4.5 -29.5s7 -13.667 12 -18s10.5 -7.16602 16.5 -8.49902s12 -2 18 -2c12.667 0 27.5 5.83301 44.5 17.5
s35.167 27 54.5 46s39.166 40.667 59.499 65s40 49.333 59 75s36.833 51 53.5 76l44 68.5l37 -28c-7.33301 -14.667 -18.166 -34 -32.499 -58s-31.166 -49.833 -50.499 -77.5s-40.5 -55.334 -63.5 -83.001s-47.167 -52.834 -72.5 -75.501s-51.166 -41.167 -77.499 -55.5
s-52.166 -21.5 -77.499 -21.5c-17.333 0 -34 2.66699 -50 8s-30 13.5 -42 24.5s-21.667 25.167 -29 42.5s-11 38 -11 62c0 28.667 5.83301 61.667 17.5 99s34.167 80 67.5 128c27.333 39.333 51 72.166 71 98.499s36.5 49.333 49.5 69s22.5 37.667 28.5 54s9 34.5 9 54.5
c0 17.333 -5 30.666 -15 39.999s-21.333 14 -34 14c-34 0 -69 -9.66699 -105 -29s-71.667 -44.833 -107 -76.5s-70 -67.834 -104 -108.501s-66.167 -82.167 -96.5 -124.5s-58.333 -83.833 -84 -124.5s-47.834 -77.167 -66.501 -109.5s-33.167 -58.333 -43.5 -78
s-15.833 -29.834 -16.5 -30.501l-82 -166.5l-75.5 -152.5l-65.5 -131.5l-52 -103.5l-34.5 -69c-8.33301 -16.667 -12.833 -25.334 -13.5 -26.001l-109 62l148 280l126 235.5l118 214.5l123 217.5l141.5 244l174.5 294.5z" />
    <glyph glyph-name="q" unicode="q" horiz-adv-x="914" 
d="M707 596l21.501 34.498l20.5 32.5l35 -15c-0.666992 -0.666992 -5 -9.83398 -13 -27.501l-33 -71l-49.5 -105l-60.5 -129.5l-67 -144l-69 -149l24.5 12c15 7.33301 34 18 57 32s49.167 31.167 78.5 51.5s59.5 43.333 90.5 69s61.333 54.167 91 85.5s56.5 65 80.5 101
l36 -28c-36.667 -56 -75.834 -104.833 -117.501 -146.5s-81.834 -77.167 -120.501 -106.5s-73.667 -52.833 -105 -70.5s-55 -30.167 -71 -37.5c1.33301 -19.333 2.5 -39 3.5 -59s1.5 -40 1.5 -60c0 -60.667 -3.5 -121.167 -10.5 -181.5s-17 -118 -30 -173
s-28.5 -106.167 -46.5 -153.5s-38 -88.333 -60 -123s-45.667 -62 -71 -82s-51.666 -30 -78.999 -30c-30 0 -55.333 5.16699 -76 15.5s-37.5 24 -50.5 41s-22.5 36.667 -28.5 59s-9 45.5 -9 69.5c0 38.667 7 81.834 21 129.501s34 101.334 60 161.001
s57.167 126.5 93.5 200.5l121.5 248c-36 -28 -72.833 -50 -110.5 -66s-77.5 -24 -119.5 -24c-21.333 0 -44.5 3.66699 -69.5 11s-48.333 19.166 -70 35.499s-39.834 37.5 -54.501 63.5s-22 58 -22 96c0 40.667 7.33301 82.334 22 125.001s34.834 84.334 60.501 125.001
s56.167 79 91.5 115s73.833 67.5 115.5 94.5s85.5 48.333 131.5 64s92.667 23.5 140 23.5c37.333 0 68.5 -3.5 93.5 -10.5s45.667 -16 62 -27s29 -23.167 38 -36.5s16.5 -26.333 22.5 -39zM667.001 543.998c-2 12 -5.16992 24 -9.50293 36s-11 22.833 -20 32.5
s-21 17.5 -36 23.5s-34.5 9 -58.5 9c-39.333 0 -79.166 -7.16699 -119.499 -21.5s-79.166 -34 -116.499 -59s-72.333 -54 -105 -87s-61 -68.167 -85 -105.5s-43 -75.833 -57 -115.5s-21 -78.5 -21 -116.5c0 -42 10.333 -74.333 31 -97s50.334 -34 89.001 -34
c42 0 86.667 11.833 134 35.5s94 58.167 140 103.5l116.5 199.5zM481.998 -0.00195312l-102.5 -211.497l-94.5 -191.5c-34 -66.667 -59.667 -128.334 -77 -185.001s-26 -104.334 -26 -143.001c0 -12 1 -23.5 3 -34.5s5.16699 -21 9.5 -30s10 -16.167 17 -21.5
s15.5 -8 25.5 -8c21.333 0 42.333 11.167 63 33.5s40.167 52.166 58.5 89.499s35.5 80.5 51.5 129.5s29.667 100.167 41 153.5s20.333 107 27 161s10 105 10 153c0 17.333 -0.666992 34.5 -2 51.5z" />
    <glyph glyph-name="r" unicode="r" horiz-adv-x="594" 
d="M631 345c-10 -14.667 -21.8262 -34.5 -35.4932 -59.5s-29.5 -52 -47.5 -81s-37.833 -58.5 -59.5 -88.5s-45.334 -57 -71.001 -81s-53.5 -43.667 -83.5 -59s-62 -23 -96 -23c-18.667 0 -36.334 2.83301 -53.001 8.5s-31.334 14.5 -44.001 26.5s-22.667 26.833 -30 44.5
s-11 38.5 -11 62.5c0 32.667 6.5 66.834 19.5 102.501s28.167 70.167 45.5 103.5s34.666 63.833 51.999 91.5s30 49.834 38 66.501s12 31 12 43c0 8.66699 -2.83301 16.334 -8.5 23.001s-12.667 13.167 -21 19.5l-26 20c-9 7 -16.5 15.5 -22.5 25.5l-51 -81l-50 -78.5
l-52 -85.5l-36 28l214 335l29 -15l-6.5 -19c-3 -8.66699 -4.5 -18 -4.5 -28c0 -7.33301 1.16699 -14.5 3.5 -21.5s7.16602 -13.5 14.499 -19.5l63 -55.5c15.333 -13 26.5 -23.333 33.5 -31s11.333 -14 13 -19s2.5 -11.5 2.5 -19.5s-1.33301 -17.667 -4 -29
s-7.16699 -25 -13.5 -41s-15 -34.833 -26 -56.5s-24.833 -46.834 -41.5 -75.501l-29.5 -52.5c-9.66699 -17.667 -18.334 -35.5 -26.001 -53.5s-13.834 -36 -18.501 -54s-7 -35.333 -7 -52c0 -12.667 1.83301 -22.834 5.5 -30.501s8.5 -13.5 14.5 -17.5
s12.5 -6.66699 19.5 -8s13.833 -2 20.5 -2c22 0 43.833 6.5 65.5 19.5s43 29.833 64 50.5s41.333 44.167 61 70.5s38.5 53.166 56.5 80.499l50 78.5l41 65.5z" />
    <glyph glyph-name="s" unicode="s" horiz-adv-x="560" 
d="M321 785c-3.33301 -6 -7.66895 -12.499 -13.002 -19.499s-10.5 -15 -15.5 -24s-9.33301 -19.5 -13 -31.5s-5.5 -26.333 -5.5 -43c0 -14 3.5 -33 10.5 -57s14.5 -51.5 22.5 -82.5s15.5 -64.667 22.5 -101s10.5 -73.833 10.5 -112.5c0 -56.667 -7.66699 -106.667 -23 -150
s-35.666 -80.333 -60.999 -111c52 28 103 68.167 153 120.5s100.333 118.833 151 199.5l34 -30c-28.667 -47.333 -61.167 -94.166 -97.5 -140.499s-76.166 -88 -119.499 -125s-90 -67 -140 -90s-103 -34.5 -159 -34.5c-50 0 -92.167 11.833 -126.5 35.5
s-55.5 59.167 -63.5 106.5l36 7c0 -4 1.83301 -10.5 5.5 -19.5s9.5 -17.833 17.5 -26.5s18.833 -16.334 32.5 -23.001s30.5 -10 50.5 -10c26.667 0 50.334 6.16699 71.001 18.5s38.667 28.5 54 48.5s28.333 42.833 39 68.5s19.167 52.167 25.5 79.5s10.833 54 13.5 80
s4 49.667 4 71s-0.833008 45 -2.5 71s-3.5 50.833 -5.5 74.5s-3.83301 44.334 -5.5 62.001s-2.5 29.167 -2.5 34.5v2c-8.66699 -9.33301 -19 -23 -31 -41l-38.5 -59l-41 -65l-37 -60l-27 -44.5c-7 -11.667 -10.5 -17.834 -10.5 -18.501l-36 28c0.666992 0.666992 9 15 25 43
l63.5 106.5l89.5 143c33.333 52.333 67.666 103.166 102.999 152.499l40 -33v0z" />
    <glyph glyph-name="t" unicode="t" horiz-adv-x="546" 
d="M203 825l35.5 59c17 28 37 59 60 93s48 68.167 75 102.5s53.5 63.5 79.5 87.5l45 -27l-88 -150.5l-89 -164.5h326l-20 -52h-333c-30 -60 -58.167 -119.667 -84.5 -179s-49.5 -116 -69.5 -170s-35.667 -104.5 -47 -151.5s-17 -87.833 -17 -122.5
c0 -43.333 10 -74.5 30 -93.5s44.667 -28.5 74 -28.5c26 0 52.667 7.83301 80 23.5s54.166 35.5 80.499 59.5s51.333 50.333 75 79s44.667 55.667 63 81s33.5 47.5 45.5 66.5s19.333 30.833 22 35.5l37 -28c-23.333 -38.667 -49.666 -79.667 -78.999 -123
s-61.833 -83.5 -97.5 -120.5s-74.5 -67.667 -116.5 -92s-87.333 -36.5 -136 -36.5c-30 0 -56.167 5.33301 -78.5 16s-41.166 25.5 -56.499 44.5s-26.833 41.5 -34.5 67.5s-11.5 54.333 -11.5 85c0 20 3.16699 48.333 9.5 85s17.166 80.167 32.499 130.5
s35.833 106.833 61.5 169.5s58.167 130 97.5 202h-166l20 52h175z" />
    <glyph glyph-name="u" unicode="u" horiz-adv-x="888" 
d="M466 218c-30.667 -36 -61 -69.1631 -91 -99.4961s-59.833 -56.333 -89.5 -78s-59.167 -38.667 -88.5 -51s-59 -18.5 -89 -18.5c-25.333 0 -48.166 4.5 -68.499 13.5s-38 21.667 -53 38s-26.5 36.333 -34.5 60s-12 50.167 -12 79.5c0 46 10.167 93.333 30.5 142
s46 96 77 142s65.333 89.667 103 131s73.5 78 107.5 110l43 -30l-80.5 -120c-29.667 -44.667 -57.667 -90.834 -84 -138.501s-48.5 -95.334 -66.5 -143.001s-27 -91.834 -27 -132.501c0 -27.333 5.16699 -50.666 15.5 -69.999s30.166 -29 59.499 -29
c32 0 67.167 12.667 105.5 38s77.666 58.333 117.999 99s80.666 86.5 120.999 137.5s78.5 102.5 114.5 154.5s68.833 101.667 98.5 149s53.834 87.666 72.501 120.999l73 -36l-111.5 -212.5l-95 -177c-27.667 -52.333 -49.667 -97.833 -66 -136.5
s-24.5 -69.334 -24.5 -92.001c0 -9.33301 2 -17 6 -23s10.333 -9 19 -9c24.667 -0.666992 51.834 10 81.501 32s59.667 49.667 90 83s60 69.833 89 109.5l78.5 111.5l36 -28l-25 -41c-12.667 -20.667 -28.334 -44.334 -47.001 -71.001s-40 -54.667 -64 -84
s-49.333 -56.166 -76 -80.499s-54.334 -44.333 -83.001 -60s-57 -23.5 -85 -23.5c-17.333 0 -32.833 3 -46.5 9s-25.167 14 -34.5 24s-16.666 21.667 -21.999 35s-8 27.333 -8 42c0 17.333 2.83301 36.333 8.5 57s13.834 42.667 24.501 66z" />
    <glyph glyph-name="v" unicode="v" horiz-adv-x="716" 
d="M529 383c-10.667 23.333 -18.8311 47.6689 -24.498 73.002s-8.5 51.666 -8.5 78.999c0 35.333 3.16699 65.166 9.5 89.499s14.166 44 23.499 59s19.5 25.833 30.5 32.5s21.5 10 31.5 10c8.66699 0 16.834 -1.83301 24.501 -5.5s14.5 -9.83398 20.5 -18.501
s10.833 -20 14.5 -34s5.5 -31.333 5.5 -52c0 -48 -9.5 -97.333 -28.5 -148s-44.333 -99.667 -76 -147s-68.167 -92 -109.5 -134s-84 -79 -128 -111c-12 -8.66699 -25.833 -17.834 -41.5 -27.501s-32.334 -18.667 -50.001 -27s-36 -15.333 -55 -21s-37.5 -8.5 -55.5 -8.5
c-44.667 0 -81.167 16.833 -109.5 50.5s-42.5 80.834 -42.5 141.501c0 28 4 58 12 90s19 64.833 33 98.5s30.333 67.5 49 101.5s38.5 66.5 59.5 97.5s42.833 60.167 65.5 87.5s45 51.333 67 72l44 -29c-38.667 -58.667 -72 -115.5 -100 -170.5
s-51.167 -106.833 -69.5 -155.5s-32 -93.167 -41 -133.5s-13.5 -75.166 -13.5 -104.499c0 -34 4.5 -58.167 13.5 -72.5s21.833 -21.5 38.5 -21.5c16 0 38.167 5.83301 66.5 17.5s61.166 30.5 98.499 56.5c47.333 33.333 92.5 72.833 135.5 118.5s79.833 94.5 110.5 146.5z
M561.003 433.003c13.333 30 23.8359 61.167 31.5029 93.5s11.5 62.833 11.5 91.5c0 20 -1.66699 34.333 -5 43s-6 13.667 -8 15c-0.666992 0 -3.33398 -2 -8.00098 -6s-9.83398 -11.167 -15.501 -21.5s-10.667 -24.666 -15 -42.999s-6.5 -41.833 -6.5 -70.5
c0 -16.667 1.16699 -34.334 3.5 -53.001s6.16602 -35 11.499 -49z" />
    <glyph glyph-name="w" unicode="w" horiz-adv-x="1011" 
d="M277 665c-38 -58 -70.332 -113.159 -96.999 -165.492s-48.667 -100.833 -66 -145.5s-30 -85.334 -38 -122.001s-12 -68.334 -12 -95.001c0 -61.333 17.667 -92 53 -92c21.333 0 45.833 10.667 73.5 32s55.834 49.666 84.501 84.999s56.667 76 84 122
s51.333 93.667 72 143l1 -1c19.333 48 40.5 95 63.5 141s46.5 88 70.5 126l45 -28l-41 -114c-16 -44.667 -31.167 -91.5 -45.5 -140.5s-26.666 -97.833 -36.999 -146.5s-15.5 -92.667 -15.5 -132c0 -11.333 0.5 -22.166 1.5 -32.499s2.83301 -19.5 5.5 -27.5
s6.66699 -14.333 12 -19s12 -7 20 -7c22.667 0 48.5 10 77.5 30s58 45.833 87 77.5s56.667 66.667 83 105s48.5 75.5 66.5 111.5c-26.667 49.333 -40 105.333 -40 168c0 34.667 3.16699 64 9.5 88s14.166 43.5 23.499 58.5s19.666 25.667 30.999 32s21.666 9.5 30.999 9.5
c17.333 0 32.5 -8.66699 45.5 -26s19.5 -48.333 19.5 -93c0 -32 -5.66699 -68.5 -17 -109.5s-27 -83.5 -47 -127.5c12 -17.333 26.667 -31.333 44 -42s37.666 -16.334 60.999 -17.001l-9 -48c-24 1.33301 -46 7.16602 -66 17.499s-37.667 24.166 -53 41.499
c-22 -42 -47.5 -82.833 -76.5 -122.5s-60 -74.834 -93 -105.501s-67.5 -55.334 -103.5 -74.001s-72.333 -28 -109 -28c-15.333 0 -29.833 3 -43.5 9s-25.834 15 -36.501 27s-19 27.333 -25 46s-9 40.667 -9 66c0 9.33301 0.333008 19.333 1 30s2 21.667 4 33
c-19.333 -30 -39.166 -58 -59.499 -84s-41.166 -48.333 -62.499 -67s-43.5 -33.334 -66.5 -44.001s-46.5 -16 -70.5 -16c-26 0 -48.333 4.5 -67 13.5s-34 21.667 -46 38s-20.833 35.5 -26.5 57.5s-8.5 46 -8.5 72c0 46 7.5 93 22.5 141s35.167 95 60.5 141
s54.5 89.333 87.5 130s67.5 76.667 103.5 108zM853.001 431.008c12.667 30 22.3311 60.334 28.998 91.001s10 60.667 10 90c0 22 -1.66699 37.667 -5 47s-6 14.666 -8 15.999c-0.666992 0 -3.16699 -1.83301 -7.5 -5.5s-9.16602 -10.5 -14.499 -20.5
s-10.166 -23.833 -14.499 -41.5s-6.5 -40.5 -6.5 -68.5c0 -19.333 1.5 -38.333 4.5 -57s7.16699 -35.667 12.5 -51z" />
    <glyph glyph-name="x" unicode="x" horiz-adv-x="968" 
d="M425 319c-1.33301 48 -1.66406 92.8301 -0.99707 134.497s-0.5 78 -3.5 109s-9.16699 55.5 -18.5 73.5s-24.333 27 -45 27c-18 0 -37 -5.5 -57 -16.5s-40 -25.333 -60 -43s-40 -37.834 -60 -60.501s-38.833 -45.834 -56.5 -69.501s-34 -46.667 -49 -69
s-27.833 -42.166 -38.5 -59.499l-36 28l37 57c14.667 22.667 31.167 46.667 49.5 72s38.166 50.666 59.499 75.999s43.666 48.166 66.999 68.499s47.333 36.833 72 49.5s49.667 19 75 19c24 0 45.833 -3.33301 65.5 -10s36.834 -19.5 51.501 -38.5
s26.834 -45.667 36.501 -80s16.167 -78.833 19.5 -133.5l99.5 121c29 34 55.667 62 80 84s46.833 38.333 67.5 49s41 16 61 16c20.667 0 37 -3.33301 49 -10s21.333 -14.5 28 -23.5s11 -18.167 13 -27.5s3 -17 3 -23c0 -17.333 -4.66699 -32.666 -14 -45.999
s-22.666 -20 -39.999 -20c-16.667 0 -30 5.83301 -40 17.5s-15 25.167 -15 40.5c0 3.33301 0.5 9 1.5 17s3.16699 16 6.5 24c-14.667 0 -31.5 -7 -50.5 -21s-40.667 -34 -65 -60s-51.5 -57.5 -81.5 -94.5l-100 -124.5c1.33301 -64.667 2.83301 -120.667 4.5 -168
s4.66699 -86.5 9 -117.5s11 -54.167 20 -69.5s21.5 -23 37.5 -23c20 0 41.167 6.66699 63.5 20s44.833 30.833 67.5 52.5s45.167 46.167 67.5 73.5s43.5 55 63.5 83s38.5 55.167 55.5 81.5l43.5 68.5l36 -28l-28 -47c-14 -23.333 -31.333 -50.166 -52 -80.499
s-44.334 -62.166 -71.001 -95.499s-54.667 -63.833 -84 -91.5s-59.666 -50.5 -90.999 -68.5s-62 -27 -92 -27c-26.667 0 -49.334 4.5 -68.001 13.5s-34.334 24.833 -47.001 47.5s-22.334 53.334 -29.001 92.001s-11.334 87.667 -14.001 147l-104 -124.5
c-32 -37 -62.667 -68.333 -92 -94s-57.5 -45.334 -84.5 -59.001s-53.5 -20.5 -79.5 -20.5c-36 0 -64 9.83301 -84 29.5s-30 44.5 -30 74.5c0 14 4.5 27.5 13.5 40.5s21.833 19.5 38.5 19.5c14.667 0 27.834 -6.33301 39.501 -19s17.5 -27.667 17.5 -45
c0 -7.33301 -1 -15.666 -3 -24.999s-5.33301 -17.666 -10 -24.999c2 -1.33301 4.66699 -2.16602 8 -2.49902s6.66602 -0.5 9.99902 -0.5c22.667 0 47.5 8.66699 74.5 26s55.5 41 85.5 71s61.5 65 94.5 105l102.5 129v4z" />
    <glyph glyph-name="y" unicode="y" horiz-adv-x="887" 
d="M443 223c-26 -28.667 -52.334 -55.1689 -79.001 -79.502s-53 -45.5 -79 -63.5s-51.5 -32.167 -76.5 -42.5s-49.167 -15.5 -72.5 -15.5c-26 0 -49.5 4.83301 -70.5 14.5s-39 23.5 -54 41.5s-26.5 39.333 -34.5 64s-12 52 -12 82c0 40 8.33301 81.667 25 125
s38.167 85.5 64.5 126.5s55.666 79.833 87.999 116.5s63.833 68.334 94.5 95.001l43 -30l-33 -47c-14 -20 -29 -43.167 -45 -69.5s-32.167 -54.833 -48.5 -85.5s-31.166 -62 -44.499 -94s-24.166 -64 -32.499 -96s-12.5 -62 -12.5 -90
c0 -13.333 1.16699 -26.166 3.5 -38.499s6.33301 -23.166 12 -32.499s13.167 -16.666 22.5 -21.999s21.333 -8 36 -8c23.333 0 48.833 7.16699 76.5 21.5s56.334 34 86.001 59s60 54.167 91 87.5s61.5 69 91.5 107s59 77.167 87 117.5s54 80.166 78 119.499l64 106.5
l64 104.5l47 -24l-18.5 -37.5l-46.5 -96l-67.5 -140l-81.5 -169l-87.5 -183.5l-86.5 -183c94 52 179.167 113.667 255.5 185s141.833 146 196.5 224l37 -28c-58 -88.667 -130 -170.5 -216 -245.5s-189.667 -146.833 -311 -215.5c-55.333 -118.667 -109.5 -227 -162.5 -325
s-106 -182 -159 -252s-106 -124.167 -159 -162.5s-106.833 -57.5 -161.5 -57.5c-36 0 -66 12 -90 36s-36 58.333 -36 103c0 37.333 8.33301 75.666 25 114.999s39.667 78.833 69 118.5s64.166 79 104.499 118s84.333 76.5 132 112.5s97.667 70.333 150 103
s105.5 62.667 159.5 90l45 92.5l47 94l44.5 86c14.333 27 26.833 49.5 37.5 67.5zM222.999 -214.002c-76.667 -47.333 -147.833 -97.8369 -213.5 -151.504s-122.667 -106.667 -171 -159s-86.166 -101.5 -113.499 -147.5s-41 -85 -41 -117
c0 -21.333 6.16699 -38.333 18.5 -51s28.166 -19 47.499 -19c26 0 52.833 8.83301 80.5 26.5s55.334 41.834 83.001 72.501s55.167 66.834 82.5 108.501s54.166 86.334 80.499 134.001s51.833 97.334 76.5 149.001s48 103.167 70 154.5z" />
    <glyph glyph-name="z" unicode="z" horiz-adv-x="760" 
d="M278 22l18 -34.5039c8 -15.667 14 -34.167 18 -55.5c41.333 26 81.833 53.833 121.5 83.5s78.167 62.334 115.5 98.001s73.5 74.834 108.5 117.501s68.5 90 100.5 142l36 -28c-34 -56 -69.333 -106.5 -106 -151.5s-74.834 -86.167 -114.501 -123.5
s-81 -71.833 -124 -103.5s-87.833 -61.834 -134.5 -90.501c-2.66699 -62 -16.334 -124.5 -41.001 -187.5s-56.167 -123.833 -94.5 -182.5s-81.666 -113.5 -129.999 -164.5s-97.333 -95.5 -147 -133.5s-98 -68 -145 -90s-88.5 -33 -124.5 -33c-26 0 -47.833 4.5 -65.5 13.5
s-31.834 20.5 -42.501 34.5s-18.334 29.333 -23.001 46s-7 32.667 -7 48c0 38.667 12 80.167 36 124.5s59.5 90.333 106.5 138s105.167 96.167 174.5 145.5s149 98.333 239 147l93 51l92 52c0 3.33301 0.166992 6.83301 0.5 10.5s0.5 7.16699 0.5 10.5
c0 20 -1.5 37.167 -4.5 51.5s-7.16699 26.5 -12.5 36.5c-36.667 -14.667 -67.667 -22 -93 -22c-24.667 0 -45.334 5.83301 -62.001 17.5s-25 27.5 -25 47.5c0 21.333 9.33301 37.833 28 49.5s41 17.5 67 17.5c34.667 0 67 -11.333 97 -34
c30.667 24 60.334 54.833 89.001 92.5s54 78.334 76 122.001s39.667 88.334 53 134.001s20 88.5 20 128.5c0 22 -2.83301 40.667 -8.5 56s-13.167 27.833 -22.5 37.5s-20 16.834 -32 21.501s-24.667 7 -38 7c-27.333 0 -53.5 -6.66699 -78.5 -20s-48.5 -30.5 -70.5 -51.5
s-42.5 -44.167 -61.5 -69.5s-36.333 -50 -52 -74l-41.5 -65.5c-12 -19.667 -22 -34.167 -30 -43.5l-37 28c8 10.667 18.167 26.5 30.5 47.5s26.833 44.5 43.5 70.5s35.334 52.667 56.001 80s43.334 52.166 68.001 74.499s51.5 40.666 80.5 54.999s59.833 21.5 92.5 21.5
c31.333 0 59.5 -5.16699 84.5 -15.5s46.333 -24.666 64 -42.999s31.334 -40.5 41.001 -66.5s14.5 -55 14.5 -87c0 -46.667 -8 -93.667 -24 -141s-37.5 -92.5 -64.5 -135.5s-58.5 -82.667 -94.5 -119s-74 -67.166 -114 -92.499zM24 -524.004l62.001 82.001
c20.667 28.667 40 57.834 58 87.501s34.167 59.334 48.5 89.001s25.5 58.5 33.5 86.5l-147 -83c-85.333 -47.333 -157.833 -91.833 -217.5 -133.5s-109 -80.334 -148 -116.001s-69.5 -67.834 -91.5 -96.501s-38.5 -54 -49.5 -76s-17.667 -40.167 -20 -54.5
s-3.5 -24.833 -3.5 -31.5c0 -9.33301 1 -18.833 3 -28.5s5.83301 -18.167 11.5 -25.5s13.167 -13.333 22.5 -18s21.666 -7 36.999 -7c16.667 0 37.167 4.66699 61.5 14s52.833 26.166 85.5 50.499s70 57.5 112 99.5s89.333 95.667 142 161zM193.001 39.9971
c-9.33301 6 -19.334 10.5 -30.001 13.5s-19.667 4.5 -27 4.5c-28.667 0 -43 -6.33301 -43 -19s12.333 -19 37 -19c6.66699 0 16.334 1.5 29.001 4.5s24 8.16699 34 15.5z" />
    <glyph glyph-name="braceleft" unicode="{" horiz-adv-x="702" 
d="M238 541c19.333 -6 34.835 -20.168 46.502 -42.501s17.5 -45.833 17.5 -70.5c0 -27.333 -6.33301 -58.666 -19 -93.999s-28.5 -72.833 -47.5 -112.5s-39.667 -80.334 -62 -122.001s-43 -83 -62 -124s-34.833 -80.833 -47.5 -119.5s-19 -74 -19 -106
c0 -20 3.33301 -39.833 10 -59.5s18.167 -37.334 34.5 -53.001s38.166 -28.334 65.499 -38.001s61.666 -14.5 102.999 -14.5l-26 -55c-56 0 -103 7 -141 21s-68.333 32 -91 54s-38.834 46.167 -48.501 72.5s-14.5 51.833 -14.5 76.5c0 32.667 6.5 69 19.5 109
s29.333 81.5 49 124.5s40.834 86.333 63.501 130l63.5 125.5c19.667 40 36 77.333 49 112s19.5 64.667 19.5 90c0 56 -24.667 84 -74 84h-55l27 55h78c38.667 0 73.5 17.333 104.5 52s59.167 80.334 84.5 137.001s48.5 121.334 69.5 194.001s40.833 146.667 59.5 222
c16 64 38.333 113.333 67 148s62.167 59.834 100.5 75.501s80.333 24.834 126 27.501s93.167 4 142.5 4l-24 -55c-33.333 0 -65.833 -2.33301 -97.5 -7s-61 -14.5 -88 -29.5s-51 -36.833 -72 -65.5s-37.5 -67.334 -49.5 -116.001l-58.5 -223
c-19 -70 -41.5 -132.667 -67.5 -188s-57.667 -102 -95 -140s-84.333 -64.333 -141 -79z" />
    <glyph glyph-name="bar" unicode="|" horiz-adv-x="1024" 
d="M32 -263l858 1759h102l-858 -1759h-102z" />
    <glyph glyph-name="braceright" unicode="}" horiz-adv-x="702" 
d="M370 433c-19.333 6 -34.834 20.168 -46.501 42.501s-17.5 45.833 -17.5 70.5c0 27.333 6.33301 58.666 19 93.999s28.5 72.833 47.5 112.5s39.667 80.334 62 122.001s43 83 62 124s34.833 80.667 47.5 119s19 73.833 19 106.5c0 20 -3.33301 39.833 -10 59.5
s-18.167 37.334 -34.5 53.001s-38.166 28.334 -65.499 38.001s-61.666 14.5 -102.999 14.5l26 55c56 0 103 -7 141 -21s68.333 -32 91 -54s38.834 -46.167 48.501 -72.5s14.5 -51.833 14.5 -76.5c0 -32.667 -6.5 -69 -19.5 -109s-29.333 -81.5 -49 -124.5
s-40.834 -86.333 -63.501 -130l-63.5 -125.5c-19.667 -40 -36 -77.5 -49 -112.5s-19.5 -64.833 -19.5 -89.5c0 -56 24.667 -84 74 -84h55l-27 -55h-78c-38.667 0 -73.5 -17.333 -104.5 -52s-59.167 -80.334 -84.5 -137.001s-48.5 -121.334 -69.5 -194.001
s-40.833 -146.667 -59.5 -222c-16 -64 -38.333 -113.333 -67 -148s-62.167 -59.834 -100.5 -75.501s-80.333 -24.834 -126 -27.501s-93.167 -4 -142.5 -4l24 55c33.333 0 65.666 2.33301 96.999 7s60.5 14.5 87.5 29.5s51.167 36.833 72.5 65.5s38 67.334 50 116.001
l58.5 223c19 70 41.5 132.667 67.5 188s57.667 102 95 140s84.333 64.333 141 79z" />
    <glyph glyph-name="asciitilde" unicode="~" 
d="M331 717c-19.333 0 -38.1641 -6.33203 -56.4971 -18.999s-35.166 -26.667 -50.499 -42c-17.333 -17.333 -34 -37.333 -50 -60l-44 29c18 26.667 38 51 60 73c18.667 18 40.667 34.667 66 50s53 23 83 23c24 0 45.667 -6.33301 65 -19s37.5 -26.5 54.5 -41.5
s33.667 -28.833 50 -41.5s34.166 -19 53.499 -19s38.166 6.16699 56.499 18.5s35.166 26.166 50.499 41.499c17.333 17.333 34 37.666 50 60.999l44 -29c-18 -27.333 -38 -51.666 -60 -72.999c-19.333 -18.667 -41.5 -35.5 -66.5 -50.5s-52.5 -22.5 -82.5 -22.5
c-24 0 -45.667 6.33301 -65 19s-37.5 26.5 -54.5 41.5s-33.833 28.833 -50.5 41.5s-34.334 19 -53.001 19z" />
    <glyph glyph-name="nonbreakingspace" unicode="&#xa0;" horiz-adv-x="600" 
 />
    <glyph glyph-name="exclamdown" unicode="&#xa1;" horiz-adv-x="761" 
d="M467 770l43 -17l-553 -1235l-116 53zM506 950c0 20 7.16699 37.167 21.5 51.5s31.833 21.5 52.5 21.5c19.333 0 36.166 -7.16699 50.499 -21.5s21.5 -31.5 21.5 -51.5c0 -19.333 -7.16699 -36.166 -21.5 -50.499s-31.166 -21.5 -50.499 -21.5
c-20.667 0 -38.167 7.16699 -52.5 21.5s-21.5 31.166 -21.5 50.499z" />
    <glyph glyph-name="cent" unicode="&#xa2;" horiz-adv-x="786" 
d="M109 -81l135 280c-41.333 16.667 -75 44 -101 82s-39 88.333 -39 151c0 52 7.5 101.167 22.5 147.5s35 89.166 60 128.499s53.833 74.833 86.5 106.5s66.834 58.5 102.501 80.5s71.667 38.833 108 50.5s70.5 17.5 102.5 17.5c4.66699 0 9 -0.166992 13 -0.5
s8 -0.833008 12 -1.5l117 242l42 -18l-112 -233c17.333 -6 31.666 -13.5 42.999 -22.5s20.333 -18.833 27 -29.5s11.334 -21.167 14.001 -31.5s4 -19.5 4 -27.5c0 -16 -2.33301 -33 -7 -51s-11.167 -34.5 -19.5 -49.5s-18.666 -27.5 -30.999 -37.5s-25.833 -15 -40.5 -15
s-27.334 4.83301 -38.001 14.5s-16 21.834 -16 36.501c0 0.666992 0.5 4.66699 1.5 12s4.16699 15.166 9.5 23.499s13.5 15.833 24.5 22.5s26.5 10 46.5 10h12c4 10.667 6 22 6 34c0 16 -4.83301 29.5 -14.5 40.5s-24.5 18.833 -44.5 23.5l-321 -669
c7.33301 -2 15.166 -3.33301 23.499 -4s17.166 -1 26.499 -1c30.667 0 60.667 4.66699 90 14s57.833 22.333 85.5 39s54.334 35.834 80.001 57.501s50.167 45.167 73.5 70.5l37 -37c-60 -65.333 -122 -114.333 -186 -147s-127 -49 -189 -49c-23.333 0 -45.333 2 -66 6
l-137 -285zM211 414c0 -40.667 5.16797 -73.832 15.501 -99.499s25.166 -45.167 44.499 -58.5l315 654c-30 -0.666992 -60.167 -7.5 -90.5 -20.5s-59.333 -31 -87 -54s-53.5 -50 -77.5 -81s-44.833 -64.833 -62.5 -101.5s-31.667 -75.334 -42 -116.001
s-15.5 -81.667 -15.5 -123z" />
    <glyph glyph-name="sterling" unicode="&#xa3;" horiz-adv-x="1493" 
d="M817 583c-46 -78.667 -94.8389 -154.002 -146.506 -226.002s-108.167 -136 -169.5 -192c42.667 -13.333 84 -27.333 124 -42l114.5 -40.5c36.333 -12.333 70.833 -22.5 103.5 -30.5s63 -12 91 -12c42.667 0 83.834 7.33301 123.501 22s79.167 40.667 118.5 78l41 -32
c-0.666992 -0.666992 -4.33398 -4.83398 -11.001 -12.501s-16.667 -17 -30 -28s-30 -22.667 -50 -35s-43.5 -23.833 -70.5 -34.5s-57.667 -19.5 -92 -26.5s-72.5 -10.5 -114.5 -10.5s-82.667 3.66699 -122 11s-78 16.833 -116 28.5s-75.167 24.5 -111.5 38.5l-108.5 42
c-48 -30.667 -98.833 -54.667 -152.5 -72s-110.834 -26 -171.501 -26c-54 0 -95.333 9.66699 -124 29s-43 45 -43 77c0 42 23.333 74.333 70 97s117.334 34 212.001 34c40.667 0 80.334 -2.83301 119.001 -8.5s76.667 -13.167 114 -22.5
c54 50.667 103.333 109.834 148 177.501s87.334 139.834 128.001 216.501h-300l27 55h302l97.5 192c31.667 64.667 63.834 126.834 96.501 186.501s66.167 115.5 100.5 167.5s70.833 97.333 109.5 136s79.834 69 123.501 91s90.834 33 141.501 33
c24 0 46.333 -3.83301 67 -11.5s38.667 -19.334 54 -35.001s27.333 -35.5 36 -59.5s13 -52 13 -84c0 -32.667 -4.16699 -66.5 -12.5 -101.5s-20.166 -70.833 -35.499 -107.5l-50 20c14.667 33.333 25.834 65.833 33.501 97.5s11.5 62.5 11.5 92.5c0 24.667 -3 45.5 -9 62.5
s-14.167 30.833 -24.5 41.5s-22.333 18.334 -36 23.001s-28.167 7 -43.5 7c-31.333 0 -61.833 -10 -91.5 -30s-59 -47.667 -88 -83s-57.833 -77 -86.5 -125s-57.834 -99.833 -87.501 -155.5l-92 -174.5l-98.5 -183h305l-27 -55h-310zM60.9941 34.998
c48 0 92.667 6.49707 134 19.4971s81 31.167 119 54.5c-38.667 13.333 -77 24.333 -115 33s-76.667 13 -116 13c-45.333 0 -78.5 -6.66699 -99.5 -20s-31.5 -28.666 -31.5 -45.999c0 -5.33301 1.5 -11.166 4.5 -17.499s8.5 -12.166 16.5 -17.499s19 -9.83301 33 -13.5
s32.333 -5.5 55 -5.5z" />
    <glyph glyph-name="currency" unicode="&#xa4;" 
d="M640 791c18.667 -26.667 32.168 -52.833 40.501 -78.5s12.5 -51.5 12.5 -77.5c0 -27.333 -4 -53.5 -12 -78.5s-21.667 -50.833 -41 -77.5l107 -107l-46 -47l-108 108c-24.667 -16 -51 -28.5 -79 -37.5s-53.667 -13.5 -77 -13.5c-26 0 -51.833 4 -77.5 12
s-51.167 21.333 -76.5 40l-108 -108c-2.66699 3.33301 -6.33398 7.33301 -11.001 12l-15 14.5l-20 19.5l109 109c-18.667 25.333 -32.167 50.833 -40.5 76.5s-12.5 51.5 -12.5 77.5c0 26.667 4 52.667 12 78s21.667 51.333 41 78l-109 108l45 45l109 -108
c25.333 17.333 51.833 30.333 79.5 39s53.834 13 78.501 13c26 0 51.667 -3.66699 77 -11s50.666 -20.333 75.999 -39l105 107l48 -46zM302.001 497.001c18.667 -18.667 39.668 -32 63.001 -40s47.333 -12 72 -12c24 0 47.5 4.16699 70.5 12.5s43.667 20.5 62 36.5
s33 35.667 44 59s16.5 50.333 16.5 81c0 26 -5.16699 50.5 -15.5 73.5s-24.166 43.167 -41.499 60.5s-37.833 31.166 -61.5 41.499s-48.5 15.5 -74.5 15.5c-27.333 0 -52.5 -5.33301 -75.5 -16s-42.833 -24.834 -59.5 -42.501s-29.834 -38 -39.501 -61
s-14.5 -46.833 -14.5 -71.5c0 -25.333 4.16699 -49.666 12.5 -72.999s22.166 -44.666 41.499 -63.999z" />
    <glyph glyph-name="yen" unicode="&#xa5;" horiz-adv-x="887" 
d="M550 293c-43.333 -85.333 -86.833 -163.004 -130.5 -233.004s-87.667 -130.167 -132 -180.5s-89 -89.333 -134 -117s-90.833 -41.5 -137.5 -41.5c-36 0 -66 12 -90 36s-36 58.333 -36 103c0 50 14.667 101.833 44 155.5s69 106.834 119 159.501l31 -82
c-44 -49.333 -78.167 -95.5 -102.5 -138.5s-36.5 -79.5 -36.5 -109.5c0 -21.333 6.16699 -38.333 18.5 -51s28.166 -19 47.499 -19c34.667 0 70.5 15.167 107.5 45.5s73.5 70 109.5 119s71 104.333 105 166s65.667 124.167 95 187.5h-356l27 55h354l45 102h-359l27 55h358
l46 95l49 97.5l46 89.5c14.667 28 27.667 51.333 39 70c-26 -28.667 -52.333 -55.167 -79 -79.5s-53 -45.5 -79 -63.5s-51.5 -32.167 -76.5 -42.5s-49.167 -15.5 -72.5 -15.5c-26 0 -49.5 4.83301 -70.5 14.5s-39 23.5 -54 41.5s-26.5 39.333 -34.5 64s-12 52 -12 82
c0 40 8.33301 81.667 25 125s38.167 85.5 64.5 126.5s55.666 79.833 87.999 116.5s63.833 68.334 94.5 95.001l43 -30l-33 -47c-14 -20 -29 -43.167 -45 -69.5s-32.167 -54.833 -48.5 -85.5s-31.166 -62 -44.499 -94s-24.166 -64 -32.499 -96s-12.5 -62 -12.5 -90
c0 -13.333 1.16699 -26.166 3.5 -38.499s6.33301 -23.166 12 -32.499s13.167 -16.666 22.5 -21.999s21.333 -8 36 -8c23.333 0 48.833 7.16699 76.5 21.5s56.334 34 86.001 59s60 54.167 91 87.5s61.5 69 91.5 107s59 77.167 87 117.5s54 80.166 78 119.499l64 106.5
l64 104.5l47 -24c-0.666992 -0.666992 -7.83398 -15.167 -21.501 -43.5l-54 -112l-77.5 -161l-91.5 -191l-96 -201.5l-91.5 -193h250l-27 -55h-248l-25 -51.5c-8 -17 -16.333 -33.833 -25 -50.5h258l-27 -55h-258z" />
    <glyph glyph-name="brokenbar" unicode="&#xa6;" horiz-adv-x="1024" 
d="M32 -263l356 729h102l-356 -729h-102zM534 767l356 729h102l-356 -729h-102z" />
    <glyph glyph-name="section" unicode="&#xa7;" horiz-adv-x="1034" 
d="M688 504c0 -49.333 -5.00098 -94.1689 -15.001 -134.502s-24.167 -76.166 -42.5 -107.499s-40.5 -58.333 -66.5 -81s-54.667 -40.334 -86 -53.001c7.33301 -34.667 11 -63 11 -85c0 -66 -9 -124 -27 -174s-42.667 -92 -74 -126s-68.333 -59.667 -111 -77
s-89 -26 -139 -26c-73.333 0 -135.833 18.667 -187.5 56s-91.5 88.333 -119.5 153l50 23c14.667 -29.333 30.334 -55.333 47.001 -78s35.334 -41.667 56.001 -57s43.667 -27 69 -35s54.333 -12 87 -12c40.667 0 76.5 7.83301 107.5 23.5s57 36.5 78 62.5
s36.833 56.333 47.5 91s16 71 16 109c0 21.333 -2.83301 45.833 -8.5 73.5s-12.834 57.167 -21.501 88.5l-28 97.5c-10 33.667 -19.333 67.334 -28 101.001s-15.834 66.834 -21.501 99.501s-8.5 63.334 -8.5 92.001c0 56.667 5.5 106.667 16.5 150s26.167 81 45.5 113
s41.833 58.5 67.5 79.5s53.5 37.167 83.5 48.5c-1.33301 12 -2.33301 23.833 -3 35.5s-1 23.167 -1 34.5c0 75.333 9.66699 139.333 29 192s44.833 95.5 76.5 128.5s67.667 56.833 108 71.5s81.833 22 124.5 22c26 0 51 -3.33301 75 -10s46.5 -15.834 67.5 -27.501
s40 -25.167 57 -40.5s31.5 -32 43.5 -50l-44 -34c-7.33301 14 -17.833 27.667 -31.5 41s-29.167 25.166 -46.5 35.499s-36.166 18.833 -56.499 25.5s-40.833 10 -61.5 10c-26.667 0 -54.167 -4.5 -82.5 -13.5s-54.333 -24.833 -78 -47.5s-43 -53.5 -58 -92.5
s-22.5 -88.5 -22.5 -148.5c0 -23.333 2.66699 -50.166 8 -80.499s11.833 -62.166 19.5 -95.499s16.167 -67.5 25.5 -102.5s17.833 -68.833 25.5 -101.5s14.167 -63.334 19.5 -92.001s8 -53.667 8 -75zM587.999 436.997c0 24.667 -3.50098 53.667 -10.501 87
s-15.333 68.666 -25 105.999l-30.5 115.5c-10.667 39.667 -19.667 78.5 -27 116.5c-16.667 -9.33301 -32.5 -21.666 -47.5 -36.999s-28 -34 -39 -56s-19.667 -47.833 -26 -77.5s-9.5 -63.5 -9.5 -101.5c0 -25.333 3.16699 -54.333 9.5 -87s14.166 -67 23.499 -103
s19.333 -72.5 30 -109.5s20.334 -72.5 29.001 -106.5c40.667 25.333 71.334 60.333 92.001 105s31 94 31 148z" />
    <glyph glyph-name="dieresis" unicode="&#xa8;" horiz-adv-x="500" 
d="M499 950c0 -19.333 -7.16699 -36.166 -21.5 -50.499s-31.166 -21.5 -50.499 -21.5c-20.667 0 -38 7.16699 -52 21.5s-21 31.166 -21 50.499c0 20.667 7 38.167 21 52.5s31.333 21.5 52 21.5c19.333 0 36.166 -7.16699 50.499 -21.5s21.5 -31.833 21.5 -52.5zM286 950
c0 -19.333 -7.16699 -36.166 -21.5 -50.499s-31.833 -21.5 -52.5 -21.5c-19.333 0 -36 7.16699 -50 21.5s-21 31.166 -21 50.499c0 20.667 7 38.167 21 52.5s30.667 21.5 50 21.5c20.667 0 38.167 -7.16699 52.5 -21.5s21.5 -31.833 21.5 -52.5z" />
    <glyph glyph-name="copyright" unicode="&#xa9;" horiz-adv-x="1638" 
d="M739 762l21.4971 -15.4971c7 -5 15 -9.33301 24 -13s19.333 -6.66699 31 -9s25.5 -3.5 41.5 -3.5c28.667 0 55.834 5.5 81.501 16.5s49.5 25.5 71.5 43.5s41.667 38.5 59 61.5s32 46.667 44 71s21.333 48.333 28 72s10 44.834 10 63.501c0 22 -3.16699 41.167 -9.5 57.5
s-15 30 -26 41s-23.833 19.167 -38.5 24.5s-30.334 8 -47.001 8c-47.333 0 -93.166 -10.833 -137.499 -32.5s-86.333 -50.334 -126 -86.001s-76 -76.5 -109 -122.5s-61.5 -93.167 -85.5 -141.5s-42.667 -95.833 -56 -142.5s-20 -88.667 -20 -126
c0 -32 3.5 -62.167 10.5 -90.5s18.5 -53 34.5 -74s36.833 -37.667 62.5 -50s57.167 -18.5 94.5 -18.5c33.333 0 68 5.33301 104 16s72.333 27.667 109 51s72.834 53.666 108.501 90.999s69.834 82.666 102.501 135.999l30 -24c-36 -58.667 -73.5 -108 -112.5 -148
s-78 -72.167 -117 -96.5s-77.167 -41.666 -114.5 -51.999s-73 -15.5 -107 -15.5c-53.333 0 -98.833 8.66699 -136.5 26s-68.5 40.166 -92.5 68.499s-41.667 60.5 -53 96.5s-17 72.667 -17 110c0 42 7.5 87.667 22.5 137s35.833 98.666 62.5 147.999
s58.834 96.833 96.501 142.5s79 86.167 124 121.5s93.333 63.666 145 84.999s104.834 32 159.501 32c25.333 0 49.666 -3.5 72.999 -10.5s43.833 -18.333 61.5 -34s31.667 -35.667 42 -60s15.5 -53.5 15.5 -87.5c0 -22 -3.5 -46.167 -10.5 -72.5s-17 -52.666 -30 -78.999
s-28.833 -51.666 -47.5 -75.999s-40 -46 -64 -65s-50.333 -34.167 -79 -45.5s-59.334 -17 -92.001 -17c-34 0 -64.667 5.66699 -92 17s-51.333 26.666 -72 45.999zM936.997 1395c-67.333 0 -133.168 -9.99805 -197.501 -29.998s-125 -47.833 -182 -83.5
s-109.333 -77.834 -157 -126.501s-88.667 -101.667 -123 -159s-61.166 -118 -80.499 -182s-29 -129 -29 -195c0 -81.333 13.167 -157 39.5 -227s64.333 -130.833 114 -182.5s110 -92.167 181 -121.5s151.5 -44 241.5 -44c66 0 131 9.83301 195 29.5s124.667 47 182 82
s110.333 76.667 159 125s90.667 101 126 158s63 117.167 83 180.5s30 127.666 30 192.999c0 82 -13.333 158.5 -40 229.5s-65.167 132.667 -115.5 185s-111.5 93.5 -183.5 123.5s-153 45 -243 45zM950.995 1456c92.667 0 177.832 -16.1709 255.499 -48.5039
s144.834 -76.666 201.501 -132.999s100.834 -123 132.501 -200s47.5 -159.833 47.5 -248.5c0 -77.333 -11 -151.833 -33 -223.5s-52.667 -138.667 -92 -201s-85.833 -119.166 -139.5 -170.499s-112.167 -95.333 -175.5 -132s-130.333 -65 -201 -85
s-142.334 -30 -215.001 -30c-92.667 0 -177.667 16 -255 48s-144 76.167 -200 132.5s-99.5 122.833 -130.5 199.5s-46.5 159.334 -46.5 248.001c0 77.333 10.833 151.833 32.5 223.5s51.667 138.834 90 201.501s84 119.667 137 171s111 95.333 174 132
s129.833 65.167 200.5 85.5s143 30.5 217 30.5z" />
    <glyph glyph-name="ordfeminine" unicode="&#xaa;" horiz-adv-x="724" 
d="M857 1020c-22.667 -23.333 -46.8311 -42.667 -72.498 -58s-52.834 -23 -81.501 -23c-30 0 -51.667 8.66699 -65 26s-20 40 -20 68v7.5c0 3.66699 0.333008 7.5 1 11.5c-24 -29.333 -46.667 -53.333 -68 -72s-42 -33.5 -62 -44.5s-39.333 -18.5 -58 -22.5
s-36.667 -6 -54 -6c-18.667 0 -36.167 3 -52.5 9s-30.666 14.833 -42.999 26.5s-22 26 -29 43s-10.5 36.5 -10.5 58.5c0 28.667 5.66699 58.5 17 89.5s26.833 61.167 46.5 90.5s42.5 57.166 68.5 83.499s53.833 49.333 83.5 69s60 35.334 91 47.001s61.167 17.5 90.5 17.5
c41.333 0 73.5 -7.83301 96.5 -23.5s38.167 -36.5 45.5 -62.5c9.33301 11.333 19.333 22.833 30 34.5l32 34.5l25 -10c-3.33301 -7.33301 -7.66602 -16.333 -12.999 -27s-11.333 -21.667 -18 -33l-45 -85.5c-16.667 -31.667 -32.334 -63.167 -47.001 -94.5s-27 -61 -37 -89
s-15 -51 -15 -69c0 -14 2.83301 -23.167 8.5 -27.5s13.167 -6.5 22.5 -6.5c17.333 0 35.166 6 53.499 18s36.166 27.333 53.499 46zM642.003 1141l23.4971 38l29.5 47.5l29.5 48c9.66699 15.667 18.167 28.834 25.5 39.501c0 6 -1 13.667 -3 23s-5.83301 18.5 -11.5 27.5
s-14 16.667 -25 23s-25.833 9.5 -44.5 9.5c-25.333 0 -51.166 -5.5 -77.499 -16.5s-52.166 -25.833 -77.499 -44.5s-49.166 -40.334 -71.499 -65.001s-41.833 -50.5 -58.5 -77.5s-30 -54.5 -40 -82.5s-15 -54.333 -15 -79c0 -26 6 -46.167 18 -60.5s29.333 -21.5 52 -21.5
c26 0 50.333 5.83301 73 17.5s44 26.667 64 45s39 38.833 57 61.5z" />
    <glyph glyph-name="guillemotleft" unicode="&#xab;" horiz-adv-x="990" 
d="M135 372l433 282l-8 -78l-347 -204l147 -206l-67 -77zM425 372l433 282l-8 -78l-347 -204l147 -206l-67 -77z" />
    <glyph glyph-name="logicalnot" unicode="&#xac;" 
d="M644 517h-63l104 216h-522l27 55h585z" />
    <glyph glyph-name="uni00AD" unicode="&#xad;" 
d="M100 385l37 75h502l-37 -75h-502z" />
    <glyph glyph-name="registered" unicode="&#xae;" horiz-adv-x="1024" 
d="M633 1324c55.333 0 106.333 -9.66699 153 -29s87 -45.833 121 -79.5s60.5 -73.5 79.5 -119.5s28.5 -95.667 28.5 -149c0 -68.667 -14.333 -133.334 -43 -194.001s-66.667 -113.5 -114 -158.5s-101.333 -80.667 -162 -107s-123.334 -39.5 -188.001 -39.5
c-55.333 0 -106.166 9.66699 -152.499 29s-86.166 45.666 -119.499 78.999s-59.333 72.833 -78 118.5s-28 95.167 -28 148.5c0 68.667 14 133.334 42 194.001s65.333 113.834 112 159.501s100.167 81.667 160.5 108s123.166 39.5 188.499 39.5zM626 1263
c-57.333 0 -111.831 -12.334 -163.498 -37.001s-97.334 -57.167 -137.001 -97.5s-71.167 -86.666 -94.5 -138.999s-35 -106.166 -35 -161.499c0 -45.333 7.33301 -87.333 22 -126s35.667 -72.334 63 -101.001s60.666 -51.167 99.999 -67.5s84 -24.5 134 -24.5
c56 0 110 12 162 36s98 56 138 96s72.167 85.833 96.5 137.5s36.5 105.167 36.5 160.5c0 46 -7.33301 88.667 -22 128s-36 73.5 -64 102.5s-61.833 51.833 -101.5 68.5s-84.5 25 -134.5 25zM780.002 678.999c-10 -8 -20.4951 -14.001 -31.4951 -18.001s-24.833 -6 -41.5 -6
c-5.33301 0 -11.333 0.833008 -18 2.5s-12.834 4.66699 -18.501 9s-10.334 9.83301 -14.001 16.5s-5.5 15 -5.5 25c0 8.66699 1.33301 18 4 28s5.66699 20 9 30s6.33301 20.167 9 30.5s4 20.833 4 31.5c0 9.33301 -0.833008 18.166 -2.5 26.499s-3.83398 15.5 -6.50098 21.5
c-11.333 0 -22.333 1.16699 -33 3.5s-16 9.5 -16 21.5c0 5.33301 2.33301 10.166 7 14.499s10.667 6.5 18 6.5s14 -1.33301 20 -4s13.667 -7 23 -13c19.333 8.66699 35.333 22 48 40s19 39.667 19 65c0 18 -2.5 33.667 -7.5 47s-11.833 24.333 -20.5 33
s-18.334 15.334 -29.001 20.001s-21.334 7.66699 -32.001 9c-11.333 -24.667 -21.833 -53.334 -31.5 -86.001l-29.5 -100.5c-10 -34.333 -21 -68 -33 -101s-25.667 -62.667 -41 -89s-33.333 -47.5 -54 -63.5s-45 -24 -73 -24c-14.667 0 -28.667 3 -42 9
s-25.166 15 -35.499 27s-18.5 26.833 -24.5 44.5s-9 38.5 -9 62.5c0 18.667 2.5 40.334 7.5 65.001s13 49.834 24 75.501s25.5 51 43.5 76s39.833 47.333 65.5 67s55.5 35.5 89.5 47.5s72.667 18 116 18c9.33301 9.33301 19.166 18.666 29.499 27.999
s21.5 18.666 33.5 27.999l13 -17c-7.33301 -4.66699 -14 -10.667 -20 -18s-11.667 -15.666 -17 -24.999c17.333 -3.33301 34.833 -8.5 52.5 -15.5s33.5 -16 47.5 -27s25.5 -24.5 34.5 -40.5s13.5 -34.667 13.5 -56c0 -16.667 -3.16699 -31.5 -9.5 -44.5s-15 -24.5 -26 -34.5
s-23.5 -18.167 -37.5 -24.5s-28.667 -11.166 -44 -14.499c10 -9.33301 19.167 -20 27.5 -32s12.5 -25.667 12.5 -41c0 -8 -1.33301 -17.833 -4 -29.5s-5.66699 -23 -9 -34l-9 -30.5c-2.66699 -9.33301 -4 -15.666 -4 -18.999c0 -13.333 5.33301 -20 16 -20
c5.33301 0 10.333 1.66699 15 5s10 8 16 14zM398.007 686.998c18 0 32.667 6.33301 44 19s21 30 29 52s15.5 47.333 22.5 76s15.5 59 25.5 91s22.5 64.667 37.5 98s34.5 65.333 58.5 96c-51.333 -4.66699 -95 -19.167 -131 -43.5s-65.333 -53.333 -88 -87
s-39.167 -69.167 -49.5 -106.5s-15.5 -71 -15.5 -101c0 -30.667 6.66699 -54 20 -70s29 -24 47 -24z" />
    <glyph glyph-name="macron" unicode="&#xaf;" horiz-adv-x="500" 
d="M145 925l21 69h358l-21 -69h-358z" />
    <glyph glyph-name="degree" unicode="&#xb0;" horiz-adv-x="400" 
d="M562 1323c0 -16.667 -3.16699 -32.333 -9.5 -47s-14.833 -27.5 -25.5 -38.5s-23.5 -19.667 -38.5 -26s-30.833 -9.5 -47.5 -9.5c-17.333 0 -33.333 3 -48 9s-27.334 14.5 -38.001 25.5s-19.167 23.833 -25.5 38.5s-9.5 30.667 -9.5 48c0 16.667 3.16699 32.5 9.5 47.5
s14.833 27.833 25.5 38.5s23.334 19.167 38.001 25.5s30.667 9.5 48 9.5c16.667 0 32.5 -3 47.5 -9s27.833 -14.5 38.5 -25.5s19.167 -23.833 25.5 -38.5s9.5 -30.667 9.5 -48zM514 1323c0 20.667 -7 38.167 -21 52.5s-31.333 21.5 -52 21.5s-38.167 -7.16699 -52.5 -21.5
s-21.5 -31.833 -21.5 -52.5s7.16699 -38.167 21.5 -52.5s31.833 -21.5 52.5 -21.5s38 7.5 52 22.5s21 32.167 21 51.5z" />
    <glyph glyph-name="plusminus" unicode="&#xb1;" 
d="M463 655l-131 -269h-63l131 269h-270l27 55h270l130 267h63l-130 -267h269l-27 -55h-269zM-19 202l27 55h592l-27 -55h-592z" />
    <glyph glyph-name="twosuperior" unicode="&#xb2;" horiz-adv-x="881" 
d="M676 969c-12 -5.33301 -25.835 -10.335 -41.502 -15.002s-32 -8.83398 -49 -12.501s-34.167 -6.5 -51.5 -8.5s-33.666 -3 -48.999 -3c-30.667 0 -59.667 2.83301 -87 8.5s-51.333 14.834 -72 27.501s-37 29.167 -49 49.5s-18 44.833 -18 73.5
c0 32 7.16699 63.167 21.5 93.5s34 58.833 59 85.5s54.167 51.167 87.5 73.5s69 41.5 107 57.5s77.333 28.5 118 37.5s80.667 13.5 120 13.5c40 0 77.5 -4 112.5 -12s65.667 -21 92 -39s47 -41.5 62 -70.5s22.5 -64.167 22.5 -105.5c0 -52 -14.667 -105 -44 -159
s-67.833 -106 -115.5 -156s-101.667 -96.667 -162 -140s-121.166 -80.333 -182.499 -111c32 -13.333 63.5 -24.666 94.5 -33.999s61.833 -14 92.5 -14c11.333 0 23.166 0.666992 35.499 2s25.833 4.33301 40.5 9l13 -41c-34 -8 -64 -12 -90 -12
c-44.667 0 -86.667 6.66699 -126 20s-77.666 28 -114.999 44c-42 -17.333 -82.333 -31 -121 -41s-74 -15 -106 -15s-59.5 6 -82.5 18s-34.5 31.333 -34.5 58c0 8 2.16699 16.833 6.5 26.5s11.666 18.667 21.999 27s24.166 15.333 41.499 21s38.666 8.5 63.999 8.5
c36 0 69.667 -5 101 -15s63.333 -21.667 96 -35c38 19.333 76.5 41.833 115.5 67.5s76.833 53.5 113.5 83.5s70.834 61.667 102.501 95s59.5 67.5 83.5 102.5s42.833 70 56.5 105s20.5 69.5 20.5 103.5c0 32 -5.66699 58.667 -17 80s-26.666 38.5 -45.999 51.5
s-42 22.167 -68 27.5s-54 8 -84 8c-51.333 0 -102.166 -9.66699 -152.499 -29s-95.333 -44.333 -135 -75s-71.834 -64.667 -96.501 -102s-37 -74 -37 -110c0 -22 4.16699 -40.5 12.5 -55.5s19.5 -27.333 33.5 -37s29.833 -16.5 47.5 -20.5s35.834 -6 54.501 -6
c42 0 76 3.33301 102 10s48.667 13.334 68 20.001zM271.998 615.998c22.667 0 47.3311 3.83398 73.998 11.501s56 18.167 88 31.5c-25.333 9.33301 -49.166 17.333 -71.499 24s-45.166 10 -68.499 10c-33.333 0 -56.5 -4.83301 -69.5 -14.5s-19.5 -18.834 -19.5 -27.501
c0 -9.33301 5.33301 -17.5 16 -24.5s27.667 -10.5 51 -10.5z" />
    <glyph glyph-name="threesuperior" unicode="&#xb3;" horiz-adv-x="751" 
d="M976 1391l-76.999 -83.001l-110.5 -118c-39.667 -41.333 -80.167 -79 -121.5 -113c22 -9.33301 42.667 -21 62 -35s36 -30.5 50 -49.5s25.167 -40.167 33.5 -63.5s12.5 -49 12.5 -77c0 -56 -12.5 -107.5 -37.5 -154.5s-58.167 -87.333 -99.5 -121
s-89 -59.834 -143 -78.501s-110.333 -28 -169 -28c-38.667 0 -75.167 4.66699 -109.5 14s-64.166 23.333 -89.499 42s-45.5 41.334 -60.5 68.001s-22.5 57.667 -22.5 93c0 30 7.66699 59.333 23 88s35.666 54.667 60.999 78l31 -30
c-20.667 -19.333 -37.167 -40.666 -49.5 -63.999s-18.5 -47.333 -18.5 -72c0 -26 5.16699 -48.833 15.5 -68.5s24.666 -36 42.999 -49s40.166 -22.667 65.499 -29s53 -9.5 83 -9.5c52.667 0 103.334 9 152.001 27s91.5 42.833 128.5 74.5s66.5 68.667 88.5 111
s33 88.166 33 137.499c0 42 -11.167 76.667 -33.5 104s-51.5 48 -87.5 62c-30 -22.667 -59.667 -40.834 -89 -54.501s-57 -20.5 -83 -20.5c-21.333 0 -36.666 5.83301 -45.999 17.5s-14 22.5 -14 32.5c0 9.33301 2.66699 18.833 8 28.5s13.833 18.334 25.5 26.001
s26.5 13.834 44.5 18.501s39.667 7 65 7s50.666 -3 75.999 -9c20 16 40.167 33.333 60.5 52l61 58l60.5 60.5l57 59.5l16 17.5c4 4.33301 9.66699 10.166 17 17.499c-32 -7.33301 -65 -12.833 -99 -16.5s-67 -5.5 -99 -5.5c-40.667 0 -79.667 1.83301 -117 5.5
s-70.5 7.66699 -99.5 12s-52.667 8.33301 -71 12s-28.5 5.83398 -30.5 6.50098l10 43h5c1.33301 0 2.5 -0.166992 3.5 -0.5s2.16699 -0.5 3.5 -0.5h-1l37.5 -7.5c18.333 -3.66699 40.833 -7.5 67.5 -11.5s56.5 -7.5 89.5 -10.5s67.167 -4.5 102.5 -4.5
c44 0 88.833 3.33301 134.5 10s89.5 18.667 131.5 36l21 -27zM462.001 1013c15.333 0 32.501 4.16895 51.501 12.502s39.167 20.166 60.5 35.499c-5.33301 0.666992 -10.833 1.16699 -16.5 1.5s-11.167 0.5 -16.5 0.5c-30 0 -54.167 -3.83301 -72.5 -11.5
s-27.5 -16.5 -27.5 -26.5c0 -2.66699 1.66699 -5.33398 5 -8.00098s8.66602 -4 15.999 -4z" />
    <glyph glyph-name="acute" unicode="&#xb4;" horiz-adv-x="500" 
d="M272 856h-69l178 194h125z" />
    <glyph glyph-name="micro" unicode="&#xb5;" horiz-adv-x="680" 
d="M583 208l-93.4971 -111.502c-24.333 -27.667 -44.833 -48.667 -61.5 -63s-31 -23.666 -43 -27.999s-24.333 -6.5 -37 -6.5c-18 0 -30.333 4.66699 -37 14s-9.83398 20.833 -9.50098 34.5s2.83301 28.5 7.5 44.5l13 45c-32.667 -49.333 -64.667 -84.666 -96 -105.999
s-62 -32 -92 -32c-7.33301 0 -16 1 -26 3s-19.5 6.33301 -28.5 13s-16.333 16.334 -22 29.001s-7.16699 29.667 -4.5 51l-7 -1c-10 -26 -21.167 -57 -33.5 -93l-37 -109l-35.5 -104c-11.333 -32.667 -21 -58.667 -29 -78l-111 2l70 162l90.5 213l113 268l138.5 327h107
l-194 -463c-7.33301 -16 -13.333 -30.667 -18 -44s-7 -25.666 -7 -36.999c0 -15.333 5.5 -26.666 16.5 -33.999s22.167 -11 33.5 -11c18.667 0 36.167 2.66699 52.5 8s32.666 15.666 48.999 30.999s33.5 36.666 51.5 63.999s38.167 62.833 60.5 106.5s47.5 96.5 75.5 158.5
l97 221h107l-13 -30l-24.5 -57.5l-32.5 -76.5l-37 -86l-37 -87l-33.5 -79l-26.5 -61.5l-15 -34.5c-2.66699 -6 -5 -12.333 -7 -19s-3 -12.334 -3 -17.001c0 -8 1.83301 -13.333 5.5 -16s8.5 -4 14.5 -4c4.66699 0 10.167 1.5 16.5 4.5s14.166 8.66699 23.499 17
s20.833 19.833 34.5 34.5s30.167 34 49.5 58z" />
    <glyph glyph-name="paragraph" unicode="&#xb6;" horiz-adv-x="1024" 
d="M144 -286l437.999 963.998c-31.333 -32 -60.333 -58 -87 -78s-52 -35.5 -76 -46.5s-47.167 -18.333 -69.5 -22s-44.5 -5.5 -66.5 -5.5c-25.333 0 -49.166 4.16699 -71.499 12.5s-42 20.5 -59 36.5s-30.333 35.667 -40 59s-14.5 50.333 -14.5 81c0 54 9 105 27 153
s42.667 92.333 74 133s68.166 77.334 110.499 110.001s87.5 60.334 135.5 83.001s97.833 40 149.5 52s102.834 18 153.501 18h392l-28 -56h-76l-680 -1494h-72l680 1494h-68l-680 -1494h-72zM823.999 1208h-37.999c-45.333 0 -91 -7 -137 -21s-90.333 -33.333 -133 -58
s-82.667 -53.5 -120 -86.5s-69.833 -68.333 -97.5 -106s-49.5 -76.834 -65.5 -117.501s-24 -81 -24 -121c0 -38 8.66699 -67.333 26 -88s42 -31 74 -31c24.667 0 49.667 5.33301 75 16s50.166 24.334 74.499 41.001s47.5 35.167 69.5 55.5s41.667 40.5 59 60.5
s32 38.333 44 55s20.333 30 25 40z" />
    <glyph glyph-name="periodcentered" unicode="&#xb7;" horiz-adv-x="350" 
d="M293 659c0 -20 -7.16699 -37.167 -21.5 -51.5s-31.833 -21.5 -52.5 -21.5c-19.333 0 -36.166 7.16699 -50.499 21.5s-21.5 31.5 -21.5 51.5c0 19.333 7.16699 36.166 21.5 50.499s31.166 21.5 50.499 21.5c20.667 0 38.167 -7.16699 52.5 -21.5
s21.5 -31.166 21.5 -50.499z" />
    <glyph glyph-name="cedilla" unicode="&#xb8;" horiz-adv-x="500" 
d="M99 -76c8 2 15.3291 3.16602 21.9961 3.49902s13.334 0.5 20.001 0.5c12.667 0 25.667 -1.83301 39 -5.5s25.5 -9.5 36.5 -17.5s20 -18.167 27 -30.5s10.5 -26.833 10.5 -43.5s-4.5 -32.667 -13.5 -48s-22 -29 -39 -41s-37.333 -21.5 -61 -28.5s-50.5 -10.5 -80.5 -10.5
c-37.333 0 -68.666 5 -93.999 15s-44 18.667 -56 26l20 38l49.5 -21.5c18.333 -7.66699 43.5 -11.5 75.5 -11.5c14 0 27.667 1.5 41 4.5s25.333 7.5 36 13.5s19.334 13.667 26.001 23s10 20.333 10 33c0 10.667 -2.16699 19.667 -6.5 27s-9.5 13.333 -15.5 18
s-12.667 7.83398 -20 9.50098s-14 2.5 -20 2.5c-9.33301 0 -17.666 -0.833008 -24.999 -2.5s-14 -3.5 -20 -5.5l-19 -7l-19 26l84 119h51z" />
    <glyph glyph-name="onesuperior" unicode="&#xb9;" horiz-adv-x="483" 
d="M710 1390l-420.002 -806.999l-85 35l168.5 309.5c55 103.667 114.833 207.167 179.5 310.5c-36.667 -31.333 -72.834 -59.5 -108.501 -84.5l-97.5 -66c-29.333 -19 -54.666 -34.667 -75.999 -47s-35.666 -20.833 -42.999 -25.5l-24 40
c0.666992 0 8.66699 4.16699 24 12.5s35.5 20.166 60.5 35.499s53.5 33.833 85.5 55.5s65.167 45.667 99.5 72s68.333 54.833 102 85.5s64.834 62.667 93.501 96z" />
    <glyph glyph-name="ordmasculine" unicode="&#xba;" horiz-adv-x="598" 
d="M792 1095c-14.667 -10 -29.499 -17.001 -44.499 -21.001s-30.833 -6 -47.5 -6h-13c-4 0 -8 0.666992 -12 2c-20.667 -33.333 -43 -62 -67 -86s-48.333 -43.667 -73 -59s-48.834 -26.666 -72.501 -33.999s-45.834 -11 -66.501 -11c-21.333 0 -41.166 3.83301 -59.499 11.5
s-34 18.334 -47 32.001s-23.167 30.334 -30.5 50.001s-11 41.5 -11 65.5c0 36.667 8.33301 74 25 112s38.334 74.167 65.001 108.5s56.667 65.333 90 93s66.666 49.167 99.999 64.5l26 -34c-26 -18 -52.167 -41 -78.5 -69s-50.166 -58.5 -71.499 -91.5
s-38.833 -67.333 -52.5 -103s-20.5 -70.167 -20.5 -103.5c0 -30 6.66699 -53 20 -69s33 -24 59 -24c20.667 0 41.5 4.66699 62.5 14s41.333 21.5 61 36.5s38.5 32.333 56.5 52s34 39.834 48 60.501c-25.333 19.333 -45.5 46.666 -60.5 81.999s-22.5 74.333 -22.5 117
c0 21.333 2.66699 41.5 8 60.5s12.666 35.5 21.999 49.5s20.333 25.167 33 33.5s26.667 12.5 42 12.5c14 0 26.333 -3.5 37 -10.5s19.667 -16.833 27 -29.5s13 -27.334 17 -44.001s6 -34.667 6 -54c0 -12.667 -1.33301 -27.667 -4 -45s-6.16699 -35 -10.5 -53
s-9.66602 -35.667 -15.999 -53s-13.5 -32.333 -21.5 -45c19.333 0 35.166 1.66699 47.499 5s23.833 8.66602 34.5 15.999zM596.001 1285c0 -14 1.33105 -29 3.99805 -45s6.5 -31.5 11.5 -46.5s11.333 -28.833 19 -41.5s16.834 -23 27.501 -31
c16.667 34 28.834 67.667 36.501 101s11.5 60.333 11.5 81c0 28 -4.33301 51.167 -13 69.5s-20 27.5 -34 27.5c-9.33301 0 -18 -3.16699 -26 -9.5s-14.667 -14.833 -20 -25.5s-9.5 -23 -12.5 -37s-4.5 -28.333 -4.5 -43z" />
    <glyph glyph-name="guillemotright" unicode="&#xbb;" horiz-adv-x="990" 
d="M490 371l-433 -282l8 78l347 204l-147 206l67 77zM780 371l-433 -282l8 78l347 204l-147 206l67 77z" />
    <glyph glyph-name="onequarter" unicode="&#xbc;" horiz-adv-x="1555" 
d="M1167 832c0 -2 -4.49805 -11.499 -13.498 -28.499s-21.667 -39.167 -38 -66.5l-58.5 -94l-74.5 -111l-86.5 -118c-30.667 -40 -62.334 -78.333 -95.001 -115c38 11.333 74.5 19.333 109.5 24s69.167 7 102.5 7c30 0 58.833 -1.66699 86.5 -5l80.5 -10
c9.33301 -1.33301 18.333 -2.5 27 -3.5s17.334 -2.16699 26.001 -3.5l184 424l54 -14l-153 -415c20.667 0.666992 39.834 3 57.501 7s33.167 8.33301 46.5 13s24.333 9 33 13s14.667 7 18 9l22 -34c-0.666992 -0.666992 -5.83398 -3.66699 -15.501 -9
s-22.834 -11 -39.501 -17s-36.667 -11.333 -60 -16s-49.333 -7 -78 -7l-118 -320l-101 20l132 305c-8.66699 1.33301 -17.167 2.5 -25.5 3.5s-16.833 2.16699 -25.5 3.5c-24 3.33301 -48.333 6.5 -73 9.5s-50.667 4.5 -78 4.5c-42.667 0 -87.5 -4.33301 -134.5 -13
s-97.5 -25.334 -151.5 -50.001l-23 31c25.333 32.667 56.666 77 93.999 133l120 189c48 78 104.667 175.333 170 292zM120.002 -19.999l1114 1464h84l-1114 -1464h-84zM710.002 1390l-420.002 -806.999l-85 35l168.5 309.5c55 103.667 114.833 207.167 179.5 310.5
c-36.667 -31.333 -72.834 -59.5 -108.501 -84.5l-97.5 -66c-29.333 -19 -54.666 -34.667 -75.999 -47s-35.666 -20.833 -42.999 -25.5l-24 40c0.666992 0 8.66699 4.16699 24 12.5s35.5 20.166 60.5 35.499s53.5 33.833 85.5 55.5s65.167 45.667 99.5 72
s68.333 54.833 102 85.5s64.834 62.667 93.501 96z" />
    <glyph glyph-name="onehalf" unicode="&#xbd;" horiz-adv-x="1654" 
d="M120 -20l1114 1464h84l-1114 -1464h-84zM710 1390l-420.002 -806.999l-85 35l168.5 309.5c55 103.667 114.833 207.167 179.5 310.5c-36.667 -31.333 -72.834 -59.5 -108.501 -84.5l-97.5 -66c-29.333 -19 -54.666 -34.667 -75.999 -47s-35.666 -20.833 -42.999 -25.5
l-24 40c0.666992 0 8.66699 4.16699 24 12.5s35.5 20.166 60.5 35.499s53.5 33.833 85.5 55.5s65.167 45.667 99.5 72s68.333 54.833 102 85.5s64.834 62.667 93.501 96zM1231 363.001c-12 -5.33301 -25.5059 -10.167 -40.5059 -14.5s-30.833 -8.33301 -47.5 -12
s-33.334 -6.5 -50.001 -8.5s-32.667 -3 -48 -3c-30 0 -58.167 2.83301 -84.5 8.5s-49.5 14.667 -69.5 27s-35.833 28.333 -47.5 48s-17.5 43.5 -17.5 71.5c0 31.333 7 61.666 21 90.999s33 57 57 83s52.333 49.833 85 71.5s67.334 40.167 104.001 55.5
s74.834 27.333 114.501 36s78.5 13 116.5 13c38.667 0 75 -3.83301 109 -11.5s63.667 -20.334 89 -38.001s45.333 -40.5 60 -68.5s22 -62 22 -102c0 -33.333 -6.5 -67.333 -19.5 -102s-31 -69 -54 -103s-50.167 -67.167 -81.5 -99.5s-65 -63.166 -101 -92.499
s-73.833 -56.666 -113.5 -81.999s-79.5 -48 -119.5 -68c30.667 -12.667 61.167 -23.5 91.5 -32.5s60.5 -13.5 90.5 -13.5c10.667 0 22 0.666992 34 2s25.333 4 40 8l12 -42c-33.333 -8 -62.333 -12 -87 -12c-44 0 -85 6.5 -123 19.5s-75 27.167 -111 42.5
c-40.667 -17.333 -79.667 -30.666 -117 -39.999s-71.666 -14 -102.999 -14c-16 0 -30.833 1.33301 -44.5 4s-25.667 7 -36 13s-18.5 13.667 -24.5 23s-9 20.666 -9 33.999c0 8 2.16699 16.833 6.5 26.5s11.5 18.667 21.5 27s23.333 15.333 40 21s37.334 8.5 62.001 8.5
c34.667 0 67.167 -4.66699 97.5 -14s61.5 -20.666 93.5 -33.999c37.333 18.667 74.833 40.334 112.5 65.001s73.834 51.334 108.501 80.001s67.334 59.167 98.001 91.5s57.334 65.333 80.001 99s40.5 67.5 53.5 101.5s19.5 67.333 19.5 100
c0 30.667 -5.16699 56.167 -15.5 76.5s-24.5 36.666 -42.5 48.999s-39.5 21 -64.5 26s-51.833 7.5 -80.5 7.5c-33.333 0 -66.333 -4.33301 -99 -13s-64 -20.334 -94 -35.001s-57.833 -31.834 -83.5 -51.501s-48 -40.667 -67 -63s-33.833 -45.5 -44.5 -69.5
s-16 -47.667 -16 -71c0 -21.333 3.83301 -39.5 11.5 -54.5s18 -27 31 -36s27.833 -15.5 44.5 -19.5s34 -6 52 -6c41.333 0 74.333 3.33301 99 10s46.667 13 66 19zM838.992 24c44 0 96.3311 12.668 156.998 38.001c-24.667 9.33301 -47.667 17.166 -69 23.499
s-43.666 9.5 -66.999 9.5c-32 0 -54 -4.5 -66 -13.5s-18 -17.833 -18 -26.5c0 -9.33301 4.83301 -16.833 14.5 -22.5s25.834 -8.5 48.501 -8.5z" />
    <glyph glyph-name="threequarters" unicode="&#xbe;" horiz-adv-x="1884" 
d="M1005 1392l-141.496 -151.002c-47 -50.667 -98.5 -99.334 -154.5 -146.001c20.667 -9.33301 40.334 -20.833 59.001 -34.5s34.667 -29.834 48 -48.501s24 -39.334 32 -62.001s12 -47.334 12 -74.001c0 -54 -11.833 -103.333 -35.5 -148s-55.5 -83.167 -95.5 -115.5
s-85.833 -57.5 -137.5 -75.5s-105.5 -27 -161.5 -27c-37.333 0 -72.333 4.5 -105 13.5s-61.167 22.333 -85.5 40s-43.666 39.5 -57.999 65.5s-21.5 55.667 -21.5 89c0 28.667 7.5 56.667 22.5 84s34.5 52.333 58.5 75l32 -33c-19.333 -18 -34.833 -37.667 -46.5 -59
s-17.5 -43.666 -17.5 -66.999c0 -50 17.833 -87.167 53.5 -111.5s82.5 -36.5 140.5 -36.5c56 0 107.333 8.5 154 25.5s86.667 40.5 120 70.5s59.166 65.333 77.499 106s27.5 84.667 27.5 132c0 40 -9.5 72.667 -28.5 98s-45.833 44.666 -80.5 57.999
c-28.667 -25.333 -57 -43.666 -85 -54.999s-54.667 -17 -80 -17c-12 0 -21.833 1.83301 -29.5 5.5s-13.834 8 -18.501 13s-8 10.5 -10 16.5s-3 11.333 -3 16c0 8.66699 2.83301 17.834 8.5 27.501s14.167 18.334 25.5 26.001s25.833 14 43.5 19s38.5 7.5 62.5 7.5
c23.333 0 47 -3 71 -9c46.667 36.667 90.5 75.334 131.5 116.001s82.833 84.667 125.5 132c-30.667 -7.33301 -61.334 -12.833 -92.001 -16.5s-61.334 -5.5 -92.001 -5.5c-39.333 0 -76.833 1.66699 -112.5 5s-67.334 7 -95.001 11s-50.334 7.83301 -68.001 11.5
s-27.5 5.83398 -29.5 6.50098l10 45c8.66699 -1.33301 22.167 -3.66602 40.5 -6.99902s40.333 -7 66 -11s54.5 -7.5 86.5 -10.5s66 -4.5 102 -4.5c42 0 85 3 129 9s86 17.667 126 35zM1496 831.998c0 -2 -4.49805 -11.499 -13.498 -28.499s-21.667 -39.167 -38 -66.5
l-58.5 -94l-74.5 -111l-86.5 -118c-30.667 -40 -62.334 -78.333 -95.001 -115c38 11.333 74.5 19.333 109.5 24s69.167 7 102.5 7c30 0 58.833 -1.66699 86.5 -5l80.5 -10c9.33301 -1.33301 18.333 -2.5 27 -3.5s17.334 -2.16699 26.001 -3.5l184 424l54 -14l-153 -415
c20.667 0.666992 39.834 3 57.501 7s33.167 8.33301 46.5 13s24.333 9 33 13s14.667 7 18 9l22 -34c-0.666992 -0.666992 -5.83398 -3.66699 -15.501 -9s-22.834 -11 -39.501 -17s-36.667 -11.333 -60 -16s-49.333 -7 -78 -7l-118 -320l-101 20l132 305
c-8.66699 1.33301 -17.167 2.5 -25.5 3.5s-16.833 2.16699 -25.5 3.5c-24 3.33301 -48.333 6.5 -73 9.5s-50.667 4.5 -78 4.5c-42.667 0 -87.5 -4.33301 -134.5 -13s-97.5 -25.334 -151.5 -50.001l-23 31c25.333 32.667 56.666 77 93.999 133l120 189
c48 78 104.667 175.333 170 292zM449.006 -20.001l1114 1464h84l-1114 -1464h-84zM513.006 1030c14 0 29.502 4.16699 46.502 12.5s35.833 19.5 56.5 33.5c-5.33301 0.666992 -10 1.16699 -14 1.5s-8.66699 0.5 -14 0.5c-28.667 0 -51.834 -3.66699 -69.501 -11
s-26.5 -15.666 -26.5 -24.999c0 -2.66699 1.66699 -5.33398 5 -8.00098s8.66602 -4 15.999 -4z" />
    <glyph glyph-name="questiondown" unicode="&#xbf;" horiz-adv-x="1136" 
d="M730 764c8 -19.333 14.0029 -38.6631 18.0029 -57.9961s6 -37.333 6 -54c0 -47.333 -10.333 -89.333 -31 -126s-47.834 -70 -81.501 -100s-72 -57.833 -115 -83.5l-131.5 -76.5c-44.667 -25.333 -88.5 -51.5 -131.5 -78.5s-81.333 -56.833 -115 -89.5
s-60.834 -69.167 -81.501 -109.5s-31 -86.5 -31 -138.5c0 -44 8.16699 -80.667 24.5 -110s37.5 -52.833 63.5 -70.5s55.167 -30.334 87.5 -38.001s64.5 -11.5 96.5 -11.5c58.667 0 113.834 8.83301 165.501 26.5s96.834 41.334 135.501 71.001s69.167 63.5 91.5 101.5
s33.5 77.333 33.5 118c0 23.333 -4 43.666 -12 60.999s-18.5 31.666 -31.5 42.999s-27.833 19.666 -44.5 24.999s-34 8 -52 8c-30.667 0 -58.667 -2.66699 -84 -8s-46.666 -11.666 -63.999 -18.999l-9 41c22 9.33301 48.833 18 80.5 26s66.5 12 104.5 12
c30 0 58.5 -3.33301 85.5 -10s50.5 -17.334 70.5 -32.001s36 -33.5 48 -56.5s18 -50.5 18 -82.5c0 -33.333 -7 -65.666 -21 -96.999s-33.5 -60.833 -58.5 -88.5s-54.5 -53 -88.5 -76s-71.167 -42.833 -111.5 -59.5s-82.833 -29.5 -127.5 -38.5s-90 -13.5 -136 -13.5
c-51.333 0 -99.666 6.5 -144.999 19.5s-84.833 32.167 -118.5 57.5s-60.167 57 -79.5 95s-29 81.667 -29 131c0 55.333 11.167 104.833 33.5 148.5s51.666 83.167 87.999 118.5s77.666 67.5 123.999 96.5s93.666 56.5 141.999 82.5l142 76
c46.333 24.667 87.666 50.5 123.999 77.5s65.666 56.167 87.999 87.5s33.5 66.333 33.5 105c0 11.333 -1 23.166 -3 35.499s-5.66699 25.166 -11 38.499zM713.003 952.003c0 20 7.16699 37.167 21.5 51.5s31.833 21.5 52.5 21.5c19.333 0 36.166 -7.16699 50.499 -21.5
s21.5 -31.5 21.5 -51.5c0 -19.333 -7.16699 -36.166 -21.5 -50.499s-31.166 -21.5 -50.499 -21.5c-20.667 0 -38.167 7.16699 -52.5 21.5s-21.5 31.166 -21.5 50.499z" />
    <glyph glyph-name="Agrave" unicode="&#xc0;" horiz-adv-x="2330" 
d="M2327 1421c19.333 0 38.1641 -3.16016 56.498 -9.49316c18.333 -6.33301 34.666 -15.333 49 -27c14.333 -11.667 25.833 -26 34.5 -43s13 -36.167 13 -57.5c0 -41.333 -13.333 -88.333 -40 -141s-61.334 -114.334 -104 -185.001c-46 -75.333 -89.333 -150.5 -130 -225.5
l-113.5 -217l-96 -197l-75.5 -165.5c26.667 -3.33301 53.334 -6 80.001 -8s50.667 -2.66699 72.001 -2l2 -52c-4.66699 0 -22.167 0.166992 -52.5 0.5s-71.5 4.16602 -123.5 11.499l-47.5 -112c-11 -26.667 -16.5 -40.667 -16.5 -42l-119 37l60 137
c-44.667 10 -91.667 21.667 -141 35s-99.5 28.5 -150.5 45.5s-101.833 36.167 -152.5 57.5s-99.334 44.666 -146.001 69.999c-43.333 -50 -90.333 -99.167 -141 -147.5s-105 -91.666 -163 -129.999s-119.5 -69.333 -184.5 -93s-133.5 -35.5 -205.5 -35.5
c-64 0 -127.833 9.5 -191.5 28.5s-120.667 46.667 -171 83s-91.166 80.666 -122.499 132.999s-47 111.833 -47 178.5c0 52.667 9.83301 99 29.5 139s46.667 73.333 81 100s74.666 46.834 120.999 60.501s96.166 20.5 149.499 20.5c40.667 0 82.834 -4 126.501 -12
s86.167 -21.333 127.5 -40s80.333 -43.334 117 -74.001s68 -68.667 94 -114l-44 -28c-0.666992 1.33301 -4.5 6.5 -11.5 15.5s-17.333 20 -31 33s-31.167 26.833 -52.5 41.5s-46.833 28.167 -76.5 40.5s-64 22.666 -103 30.999s-83.167 12.5 -132.5 12.5
c-50 0 -93.667 -8.5 -131 -25.5s-68.5 -38.667 -93.5 -65s-43.667 -55.833 -56 -88.5s-18.5 -64.334 -18.5 -95.001c0 -36 6.33301 -68.833 19 -98.5s29.834 -56.5 51.501 -80.5s47 -44.833 76 -62.5s59.667 -32.5 92 -44.5s65.333 -21 99 -27s66.5 -9 98.5 -9
c66 0 129.333 10.833 190 32.5s118 50.334 172 86.001s104.833 76.167 152.5 121.5s91.834 91.666 132.501 138.999c-45.333 27.333 -87.166 56.833 -125.499 88.5s-71.5 65.667 -99.5 102s-49.833 75.333 -65.5 117s-23.5 85.834 -23.5 132.501
c0 38.667 7.16699 75 21.5 109s34 63.833 59 89.5s54.667 46 89 61s71.166 22.5 110.499 22.5c44 0 85.667 -6.83301 125 -20.5s76.666 -32.334 111.999 -56.001s68.5 -51.834 99.5 -84.501s60.167 -68 87.5 -106c74.667 83.333 149.167 161.833 223.5 235.5
s145.833 138.167 214.5 193.5s133.5 99.166 194.5 131.499s116.167 48.5 165.5 48.5zM1560 766.007c31.333 -48 60 -97.6699 86 -149.003s49.5 -101.666 70.5 -150.999s39.667 -96.166 56 -140.499l42.5 -117.5c78 170 161.333 336.667 250 500
s188.334 324.666 299.001 483.999c18 26.667 30.833 48.834 38.5 66.501s11.5 32.834 11.5 45.501c0 21.333 -9 37.5 -27 48.5s-38.667 16.5 -62 16.5c-74 0 -174.833 -50.5 -302.5 -151.5s-281.834 -251.5 -462.501 -451.5zM915.998 749.004
c0 -35.333 6.66602 -68.832 19.999 -100.499s31.666 -62 54.999 -91s51 -56.333 83 -82s66.667 -49.834 104 -72.501l153 183l158 182c-23.333 30.667 -47.5 59.167 -72.5 85.5s-51.167 49.166 -78.5 68.499s-55.666 34.333 -84.999 45s-59.666 16 -90.999 16
c-35.333 0 -68 -6 -98 -18s-56 -28.5 -78 -49.5s-39.167 -45.667 -51.5 -74s-18.5 -59.166 -18.5 -92.499zM1771 179.005c-9.33301 30 -21.834 66.333 -37.501 109s-34 88.5 -55 137.5s-44.667 99.167 -71 150.5s-55.166 100.333 -86.499 147l-143 -164l-154 -183
c46.667 -26 95.5 -49.5 146.5 -70.5s100.667 -39.667 149 -56s94.333 -30.5 138 -42.5s81.5 -21.333 113.5 -28zM2421 1521l-155 194h125l78 -194h-48z" />
    <glyph glyph-name="Aacute" unicode="&#xc1;" horiz-adv-x="2330" 
d="M2327 1421c19.333 0 38.1641 -3.16016 56.498 -9.49316c18.333 -6.33301 34.666 -15.333 49 -27c14.333 -11.667 25.833 -26 34.5 -43s13 -36.167 13 -57.5c0 -41.333 -13.333 -88.333 -40 -141s-61.334 -114.334 -104 -185.001c-46 -75.333 -89.333 -150.5 -130 -225.5
l-113.5 -217l-96 -197l-75.5 -165.5c26.667 -3.33301 53.334 -6 80.001 -8s50.667 -2.66699 72.001 -2l2 -52c-4.66699 0 -22.167 0.166992 -52.5 0.5s-71.5 4.16602 -123.5 11.499l-47.5 -112c-11 -26.667 -16.5 -40.667 -16.5 -42l-119 37l60 137
c-44.667 10 -91.667 21.667 -141 35s-99.5 28.5 -150.5 45.5s-101.833 36.167 -152.5 57.5s-99.334 44.666 -146.001 69.999c-43.333 -50 -90.333 -99.167 -141 -147.5s-105 -91.666 -163 -129.999s-119.5 -69.333 -184.5 -93s-133.5 -35.5 -205.5 -35.5
c-64 0 -127.833 9.5 -191.5 28.5s-120.667 46.667 -171 83s-91.166 80.666 -122.499 132.999s-47 111.833 -47 178.5c0 52.667 9.83301 99 29.5 139s46.667 73.333 81 100s74.666 46.834 120.999 60.501s96.166 20.5 149.499 20.5c40.667 0 82.834 -4 126.501 -12
s86.167 -21.333 127.5 -40s80.333 -43.334 117 -74.001s68 -68.667 94 -114l-44 -28c-0.666992 1.33301 -4.5 6.5 -11.5 15.5s-17.333 20 -31 33s-31.167 26.833 -52.5 41.5s-46.833 28.167 -76.5 40.5s-64 22.666 -103 30.999s-83.167 12.5 -132.5 12.5
c-50 0 -93.667 -8.5 -131 -25.5s-68.5 -38.667 -93.5 -65s-43.667 -55.833 -56 -88.5s-18.5 -64.334 -18.5 -95.001c0 -36 6.33301 -68.833 19 -98.5s29.834 -56.5 51.501 -80.5s47 -44.833 76 -62.5s59.667 -32.5 92 -44.5s65.333 -21 99 -27s66.5 -9 98.5 -9
c66 0 129.333 10.833 190 32.5s118 50.334 172 86.001s104.833 76.167 152.5 121.5s91.834 91.666 132.501 138.999c-45.333 27.333 -87.166 56.833 -125.499 88.5s-71.5 65.667 -99.5 102s-49.833 75.333 -65.5 117s-23.5 85.834 -23.5 132.501
c0 38.667 7.16699 75 21.5 109s34 63.833 59 89.5s54.667 46 89 61s71.166 22.5 110.499 22.5c44 0 85.667 -6.83301 125 -20.5s76.666 -32.334 111.999 -56.001s68.5 -51.834 99.5 -84.501s60.167 -68 87.5 -106c74.667 83.333 149.167 161.833 223.5 235.5
s145.833 138.167 214.5 193.5s133.5 99.166 194.5 131.499s116.167 48.5 165.5 48.5zM1560 766.007c31.333 -48 60 -97.6699 86 -149.003s49.5 -101.666 70.5 -150.999s39.667 -96.166 56 -140.499l42.5 -117.5c78 170 161.333 336.667 250 500
s188.334 324.666 299.001 483.999c18 26.667 30.833 48.834 38.5 66.501s11.5 32.834 11.5 45.501c0 21.333 -9 37.5 -27 48.5s-38.667 16.5 -62 16.5c-74 0 -174.833 -50.5 -302.5 -151.5s-281.834 -251.5 -462.501 -451.5zM915.998 749.004
c0 -35.333 6.66602 -68.832 19.999 -100.499s31.666 -62 54.999 -91s51 -56.333 83 -82s66.667 -49.834 104 -72.501l153 183l158 182c-23.333 30.667 -47.5 59.167 -72.5 85.5s-51.167 49.166 -78.5 68.499s-55.666 34.333 -84.999 45s-59.666 16 -90.999 16
c-35.333 0 -68 -6 -98 -18s-56 -28.5 -78 -49.5s-39.167 -45.667 -51.5 -74s-18.5 -59.166 -18.5 -92.499zM1771 179.005c-9.33301 30 -21.834 66.333 -37.501 109s-34 88.5 -55 137.5s-44.667 99.167 -71 150.5s-55.166 100.333 -86.499 147l-143 -164l-154 -183
c46.667 -26 95.5 -49.5 146.5 -70.5s100.667 -39.667 149 -56s94.333 -30.5 138 -42.5s81.5 -21.333 113.5 -28zM2360 1521h-69l178 194h125z" />
    <glyph glyph-name="Acircumflex" unicode="&#xc2;" horiz-adv-x="2330" 
d="M2327 1421c19.333 0 38.1641 -3.16016 56.498 -9.49316c18.333 -6.33301 34.666 -15.333 49 -27c14.333 -11.667 25.833 -26 34.5 -43s13 -36.167 13 -57.5c0 -41.333 -13.333 -88.333 -40 -141s-61.334 -114.334 -104 -185.001c-46 -75.333 -89.333 -150.5 -130 -225.5
l-113.5 -217l-96 -197l-75.5 -165.5c26.667 -3.33301 53.334 -6 80.001 -8s50.667 -2.66699 72.001 -2l2 -52c-4.66699 0 -22.167 0.166992 -52.5 0.5s-71.5 4.16602 -123.5 11.499l-47.5 -112c-11 -26.667 -16.5 -40.667 -16.5 -42l-119 37l60 137
c-44.667 10 -91.667 21.667 -141 35s-99.5 28.5 -150.5 45.5s-101.833 36.167 -152.5 57.5s-99.334 44.666 -146.001 69.999c-43.333 -50 -90.333 -99.167 -141 -147.5s-105 -91.666 -163 -129.999s-119.5 -69.333 -184.5 -93s-133.5 -35.5 -205.5 -35.5
c-64 0 -127.833 9.5 -191.5 28.5s-120.667 46.667 -171 83s-91.166 80.666 -122.499 132.999s-47 111.833 -47 178.5c0 52.667 9.83301 99 29.5 139s46.667 73.333 81 100s74.666 46.834 120.999 60.501s96.166 20.5 149.499 20.5c40.667 0 82.834 -4 126.501 -12
s86.167 -21.333 127.5 -40s80.333 -43.334 117 -74.001s68 -68.667 94 -114l-44 -28c-0.666992 1.33301 -4.5 6.5 -11.5 15.5s-17.333 20 -31 33s-31.167 26.833 -52.5 41.5s-46.833 28.167 -76.5 40.5s-64 22.666 -103 30.999s-83.167 12.5 -132.5 12.5
c-50 0 -93.667 -8.5 -131 -25.5s-68.5 -38.667 -93.5 -65s-43.667 -55.833 -56 -88.5s-18.5 -64.334 -18.5 -95.001c0 -36 6.33301 -68.833 19 -98.5s29.834 -56.5 51.501 -80.5s47 -44.833 76 -62.5s59.667 -32.5 92 -44.5s65.333 -21 99 -27s66.5 -9 98.5 -9
c66 0 129.333 10.833 190 32.5s118 50.334 172 86.001s104.833 76.167 152.5 121.5s91.834 91.666 132.501 138.999c-45.333 27.333 -87.166 56.833 -125.499 88.5s-71.5 65.667 -99.5 102s-49.833 75.333 -65.5 117s-23.5 85.834 -23.5 132.501
c0 38.667 7.16699 75 21.5 109s34 63.833 59 89.5s54.667 46 89 61s71.166 22.5 110.499 22.5c44 0 85.667 -6.83301 125 -20.5s76.666 -32.334 111.999 -56.001s68.5 -51.834 99.5 -84.501s60.167 -68 87.5 -106c74.667 83.333 149.167 161.833 223.5 235.5
s145.833 138.167 214.5 193.5s133.5 99.166 194.5 131.499s116.167 48.5 165.5 48.5zM1560 766.007c31.333 -48 60 -97.6699 86 -149.003s49.5 -101.666 70.5 -150.999s39.667 -96.166 56 -140.499l42.5 -117.5c78 170 161.333 336.667 250 500
s188.334 324.666 299.001 483.999c18 26.667 30.833 48.834 38.5 66.501s11.5 32.834 11.5 45.501c0 21.333 -9 37.5 -27 48.5s-38.667 16.5 -62 16.5c-74 0 -174.833 -50.5 -302.5 -151.5s-281.834 -251.5 -462.501 -451.5zM915.998 749.004
c0 -35.333 6.66602 -68.832 19.999 -100.499s31.666 -62 54.999 -91s51 -56.333 83 -82s66.667 -49.834 104 -72.501l153 183l158 182c-23.333 30.667 -47.5 59.167 -72.5 85.5s-51.167 49.166 -78.5 68.499s-55.666 34.333 -84.999 45s-59.666 16 -90.999 16
c-35.333 0 -68 -6 -98 -18s-56 -28.5 -78 -49.5s-39.167 -45.667 -51.5 -74s-18.5 -59.166 -18.5 -92.499zM1771 179.005c-9.33301 30 -21.834 66.333 -37.501 109s-34 88.5 -55 137.5s-44.667 99.167 -71 150.5s-55.166 100.333 -86.499 147l-143 -164l-154 -183
c46.667 -26 95.5 -49.5 146.5 -70.5s100.667 -39.667 149 -56s94.333 -30.5 138 -42.5s81.5 -21.333 113.5 -28zM2495 1521l-59 120l-165 -120h-69l217 194h85l39 -194h-48z" />
    <glyph glyph-name="Atilde" unicode="&#xc3;" horiz-adv-x="2330" 
d="M2327 1421c19.333 0 38.1641 -3.16016 56.498 -9.49316c18.333 -6.33301 34.666 -15.333 49 -27c14.333 -11.667 25.833 -26 34.5 -43s13 -36.167 13 -57.5c0 -41.333 -13.333 -88.333 -40 -141s-61.334 -114.334 -104 -185.001c-46 -75.333 -89.333 -150.5 -130 -225.5
l-113.5 -217l-96 -197l-75.5 -165.5c26.667 -3.33301 53.334 -6 80.001 -8s50.667 -2.66699 72.001 -2l2 -52c-4.66699 0 -22.167 0.166992 -52.5 0.5s-71.5 4.16602 -123.5 11.499l-47.5 -112c-11 -26.667 -16.5 -40.667 -16.5 -42l-119 37l60 137
c-44.667 10 -91.667 21.667 -141 35s-99.5 28.5 -150.5 45.5s-101.833 36.167 -152.5 57.5s-99.334 44.666 -146.001 69.999c-43.333 -50 -90.333 -99.167 -141 -147.5s-105 -91.666 -163 -129.999s-119.5 -69.333 -184.5 -93s-133.5 -35.5 -205.5 -35.5
c-64 0 -127.833 9.5 -191.5 28.5s-120.667 46.667 -171 83s-91.166 80.666 -122.499 132.999s-47 111.833 -47 178.5c0 52.667 9.83301 99 29.5 139s46.667 73.333 81 100s74.666 46.834 120.999 60.501s96.166 20.5 149.499 20.5c40.667 0 82.834 -4 126.501 -12
s86.167 -21.333 127.5 -40s80.333 -43.334 117 -74.001s68 -68.667 94 -114l-44 -28c-0.666992 1.33301 -4.5 6.5 -11.5 15.5s-17.333 20 -31 33s-31.167 26.833 -52.5 41.5s-46.833 28.167 -76.5 40.5s-64 22.666 -103 30.999s-83.167 12.5 -132.5 12.5
c-50 0 -93.667 -8.5 -131 -25.5s-68.5 -38.667 -93.5 -65s-43.667 -55.833 -56 -88.5s-18.5 -64.334 -18.5 -95.001c0 -36 6.33301 -68.833 19 -98.5s29.834 -56.5 51.501 -80.5s47 -44.833 76 -62.5s59.667 -32.5 92 -44.5s65.333 -21 99 -27s66.5 -9 98.5 -9
c66 0 129.333 10.833 190 32.5s118 50.334 172 86.001s104.833 76.167 152.5 121.5s91.834 91.666 132.501 138.999c-45.333 27.333 -87.166 56.833 -125.499 88.5s-71.5 65.667 -99.5 102s-49.833 75.333 -65.5 117s-23.5 85.834 -23.5 132.501
c0 38.667 7.16699 75 21.5 109s34 63.833 59 89.5s54.667 46 89 61s71.166 22.5 110.499 22.5c44 0 85.667 -6.83301 125 -20.5s76.666 -32.334 111.999 -56.001s68.5 -51.834 99.5 -84.501s60.167 -68 87.5 -106c74.667 83.333 149.167 161.833 223.5 235.5
s145.833 138.167 214.5 193.5s133.5 99.166 194.5 131.499s116.167 48.5 165.5 48.5zM1560 766.007c31.333 -48 60 -97.6699 86 -149.003s49.5 -101.666 70.5 -150.999s39.667 -96.166 56 -140.499l42.5 -117.5c78 170 161.333 336.667 250 500
s188.334 324.666 299.001 483.999c18 26.667 30.833 48.834 38.5 66.501s11.5 32.834 11.5 45.501c0 21.333 -9 37.5 -27 48.5s-38.667 16.5 -62 16.5c-74 0 -174.833 -50.5 -302.5 -151.5s-281.834 -251.5 -462.501 -451.5zM915.998 749.004
c0 -35.333 6.66602 -68.832 19.999 -100.499s31.666 -62 54.999 -91s51 -56.333 83 -82s66.667 -49.834 104 -72.501l153 183l158 182c-23.333 30.667 -47.5 59.167 -72.5 85.5s-51.167 49.166 -78.5 68.499s-55.666 34.333 -84.999 45s-59.666 16 -90.999 16
c-35.333 0 -68 -6 -98 -18s-56 -28.5 -78 -49.5s-39.167 -45.667 -51.5 -74s-18.5 -59.166 -18.5 -92.499zM1771 179.005c-9.33301 30 -21.834 66.333 -37.501 109s-34 88.5 -55 137.5s-44.667 99.167 -71 150.5s-55.166 100.333 -86.499 147l-143 -164l-154 -183
c46.667 -26 95.5 -49.5 146.5 -70.5s100.667 -39.667 149 -56s94.333 -30.5 138 -42.5s81.5 -21.333 113.5 -28zM2338 1648c-14.667 0 -28.5 -5.33105 -41.5 -15.998s-24.167 -22.334 -33.5 -35.001c-12 -14.667 -22.667 -31.334 -32 -50.001l-34 16
c11.333 29.333 25 55.333 41 78c6.66699 10 14.167 19.667 22.5 29s17.5 17.666 27.5 24.999s20.667 13.166 32 17.499s23.666 6.5 37 6.5c20.667 0 37.5 -6.16699 50.5 -18.5s24.667 -26 35 -41l29.5 -41c9.33301 -12.333 20.333 -18.5 33 -18.5
c14.667 0 28.334 5.16699 41 15.5c12.667 10.333 24 21.833 34 34.5c11.333 14.667 22 31.667 32 51l34 -16c-11.333 -29.333 -25 -55.333 -41 -78c-6.66699 -10 -14.167 -19.667 -22.5 -29s-17.5 -17.666 -27.5 -24.999s-20.833 -13.166 -32.5 -17.499
s-23.834 -6.5 -36.5 -6.5c-20 0 -36.667 6.16699 -50 18.5s-25.166 26 -35.5 41l-29.5 41c-9.33301 12.333 -20.333 18.5 -33 18.5z" />
    </font>
</defs>
</svg>
