<svg xmlns="http://www.w3.org/2000/svg" viewBox="0 0 446.47 283.08"><defs><style></style></defs><title>Logo_PalaceResorts_Weddings</title><g id="Capa_2" data-name="Capa 2"><g id="Layer_1" data-name="Layer 1"><path class="cls-1" d="M28,176.86a12.62,12.62,0,0,1-5.74,1.94l8.89,14.82H27.43L18.58,178.8H3.29v14.82H0v-35.1H20.65c3.52,0,4.57.29,6.64,1.41,2.91,1.59,4.6,5.65,4.6,8.7A10.63,10.63,0,0,1,28,176.86Zm-2.21-14c-1.23-.75-2.5-1.07-6.54-1.07H3.29v13.82h16c3.72,0,5.36-.23,6.78-1.26a7.33,7.33,0,0,0,2.67-5.83A6.32,6.32,0,0,0,25.78,162.84Z"/><path class="cls-1" d="M65.88,193.62V158.56H94.8v3.3H69v12H83.09v3.2H69v13.31H95.93v3.21Z"/><path class="cls-1" d="M142.9,194.41A26.26,26.26,0,0,1,134,192.9c-3.58-1.27-5.61-3.05-8.28-5.68l2.21-2.31c4.51,4.61,8.88,6.25,15.28,6.25,4.71,0,13.46-1.22,13.46-7.57,0-4.56-4.66-6.39-7.9-6.68-1.93-.19-6.59-.14-9.28-.19-5.32-.09-11.23-2.2-11.23-8.46,0-5.27,4.41-8.37,9-9.64a24.57,24.57,0,0,1,6.63-.85c5.46,0,9.65,1.78,14,5l-2,2.4c-4.28-2.72-7.33-4.28-12.56-4.28a18.69,18.69,0,0,0-4.51.47c-3.29.76-7.38,2.92-7.38,6.82,0,4.32,4.61,5.23,8,5.31,2.79.1,7,.1,9.56.29,5.87.47,10.86,3.77,10.86,9.74C159.88,192.15,149.67,194.41,142.9,194.41Z"/><path class="cls-1" d="M208.72,194.37c-10.49,0-19-7.68-19-18.34,0-10.45,8.51-18.22,18.76-18.22,10.44,0,19,7.63,19,18.3S219.07,194.37,208.72,194.37Zm0-33.4c-8.47,0-15.8,6.2-15.8,14.95,0,9,6.9,15.24,15.7,15.24,8.61,0,15.72-6.1,15.72-14.95S217.32,161,208.68,161Z"/><path class="cls-1" d="M288.52,176.86a12.62,12.62,0,0,1-5.74,1.94l8.89,14.82H288l-8.84-14.82H263.83v14.82h-3.29v-35.1h20.65c3.53,0,4.56.29,6.63,1.41,2.91,1.59,4.6,5.65,4.6,8.7S291,175.13,288.52,176.86Zm-2.21-14c-1.22-.75-2.5-1.07-6.54-1.07H263.83v13.82h15.94c3.72,0,5.36-.23,6.78-1.26a7.33,7.33,0,0,0,2.67-5.83A6.32,6.32,0,0,0,286.31,162.84Z"/><path class="cls-1" d="M339.68,161.72v31.9h-3.2v-31.9H323v-3.2h29.91v3.2Z"/><path class="cls-1" d="M399.05,194.41a26.3,26.3,0,0,1-8.93-1.51c-3.57-1.27-5.6-3.05-8.27-5.68l2.2-2.31c4.52,4.61,8.89,6.25,15.28,6.25,4.72,0,13.46-1.22,13.46-7.57,0-4.56-4.66-6.39-7.9-6.68-1.93-.19-6.59-.14-9.26-.19-5.32-.09-11.25-2.2-11.25-8.46,0-5.27,4.42-8.37,9-9.64a24.42,24.42,0,0,1,6.63-.85c5.45,0,9.65,1.78,14,5l-2,2.4c-4.28-2.72-7.34-4.28-12.56-4.28a18.77,18.77,0,0,0-4.52.47c-3.29.76-7.38,2.92-7.38,6.82,0,4.32,4.61,5.23,8.05,5.31,2.77.1,6.94.1,9.54.29,5.87.47,10.87,3.77,10.87,9.74C416,192.15,405.83,194.41,399.05,194.41Z"/><polygon class="cls-1" points="175.34 0 184.27 25.16 192.24 12.07 175.34 0"/><path class="cls-1" d="M183.74,23.59l2.57,7.35q10.59-.51,21.55-.52,11.38,0,22.4.55l2.29-7.35c-8-.51-16.28-.78-24.69-.78q-12.31,0-24.12.75M79.38,51.45c27-10.38,62-17.78,101.07-20.19L177.92,24c-41.71,3.32-77.06,13.45-98.54,27.44M238.31,24l-2.25,7.25c39,2.46,73.76,9.84,100.6,20.16-21.17-14-56.54-24.06-98.35-27.41"/><polygon class="cls-1" points="240.8 0.07 231.86 25.65 223.9 12.13 240.8 0.07"/><polygon class="cls-1" points="212.92 5.02 207.95 10.01 202.96 5.02 207.95 0.04 212.92 5.02"/><rect class="cls-1" x="197.44" y="8.59" width="7.05" height="7.05" transform="translate(50.32 145.68) rotate(-45.01)"/><rect class="cls-1" x="211.63" y="8.59" width="7.05" height="7.05" transform="translate(54.49 155.72) rotate(-45.01)"/><path class="cls-1" d="M35.5,109.32h-26v25.47H.7V74.84H35.5C46.11,74.84,53,81.19,53,92,53,102.57,46,109.32,35.5,109.32Zm0-25.72h-26v16.88H35.5c5.63,0,8.83-2.74,8.83-8.52C44.33,86,41.29,83.6,35.5,83.6Z"/><path class="cls-1" d="M118.4,134.79,109.8,115H82.88L74,134.79H64.47L91.72,74.68h9.65l26.84,60.11Zm-22-49.5-9.5,20.9h19Z"/><path class="cls-1" d="M147.36,134.79V74.36h8.76V126h36.49v8.76Z"/><path class="cls-1" d="M263.67,134.79,255.07,115H228.15l-8.93,19.77h-9.47L237,74.68h9.64l26.84,60.11Zm-22-49.5-9.49,20.9h19Z"/><path class="cls-1" d="M319.18,136.24c-18.49,0-33.76-12.37-33.76-31.58,0-18.16,14.07-31.27,32-31.27,11.1,0,21.06,4.66,28.94,12.3l-6.51,5.55c-6.43-5.39-13.34-9.09-21.94-9.09-13.18,0-23.87,9.09-23.87,22.66,0,14.55,12.22,22.59,25.72,22.59,9.4,0,15.27-3.13,21.79-9.65l5.79,6.27C340.07,132.54,330.18,136.24,319.18,136.24Z"/><path class="cls-1" d="M364.48,134.79v-60h49.33V83.6H373.23V99.27h20.41V108H373.23V126h42.11v8.76Z"/><path class="cls-1" d="M427.45,166.13a9.16,9.16,0,0,1,.76-3.69,9.68,9.68,0,0,1,5.06-5.06,9.45,9.45,0,0,1,7.38,0,9.68,9.68,0,0,1,5.06,5.06,9.36,9.36,0,0,1,0,7.39,9.61,9.61,0,0,1-5.06,5,9.34,9.34,0,0,1-7.38,0,9.61,9.61,0,0,1-5.06-5A9.21,9.21,0,0,1,427.45,166.13Zm1.38,0a7.82,7.82,0,0,0,.65,3.17,8.07,8.07,0,0,0,1.73,2.58,8.26,8.26,0,0,0,2.58,1.74,8.17,8.17,0,0,0,6.34,0,8.15,8.15,0,0,0,4.32-4.32,8.17,8.17,0,0,0,0-6.34,8.38,8.38,0,0,0-1.74-2.58,8.07,8.07,0,0,0-2.58-1.73,8.17,8.17,0,0,0-6.34,0,8.07,8.07,0,0,0-2.58,1.73,8.18,8.18,0,0,0-1.73,2.58A7.89,7.89,0,0,0,428.83,166.13Zm6.06,5.45h-1.38v-11h4.22a3.68,3.68,0,0,1,2.65.78,3,3,0,0,1,.8,2.26A3.58,3.58,0,0,1,441,165a2.49,2.49,0,0,1-.6.9,2.89,2.89,0,0,1-.88.59,4.2,4.2,0,0,1-1.06.32l3.27,4.81h-1.56l-3.27-4.81h-2Zm0-6h1.76c.38,0,.75,0,1.13,0a3.18,3.18,0,0,0,1-.23,1.79,1.79,0,0,0,.73-.57,1.76,1.76,0,0,0,.28-1.06,1.69,1.69,0,0,0-.22-.88,1.64,1.64,0,0,0-.56-.55,2.75,2.75,0,0,0-.79-.29,4.56,4.56,0,0,0-.89-.09h-2.45Z"/><path class="cls-1" d="M87.59,282.5H84l-4.88-17-4.72,17h-3.8l-7.16-24H67l5.4,17.77,4.91-17.77h3.41l5,17.77,5.3-17.77h3.67Z"/><path class="cls-1" d="M112,282.5v-24H131.7v3.54H115.48v6.26h8.16v3.47h-8.16V279h16.83v3.5Z"/><path class="cls-1" d="M170.23,279.32a9.45,9.45,0,0,1-7.65,3.18H150.91v-24h11.57c6.52,0,11.31,5.4,11.31,11.89A13.26,13.26,0,0,1,170.23,279.32ZM162.51,262h-8.16v17h8.23c4.66,0,7.68-3.86,7.68-8.32C170.26,266.05,167.46,262,162.51,262Z"/><path class="cls-1" d="M211.54,279.32a9.42,9.42,0,0,1-7.65,3.18H192.23v-24H203.8c6.52,0,11.31,5.4,11.31,11.89A13.23,13.23,0,0,1,211.54,279.32ZM203.83,262h-8.16v17h8.22c4.66,0,7.68-3.86,7.68-8.32C211.57,266.05,208.78,262,203.83,262Z"/><path class="cls-1" d="M232.61,282.5v-24h3.44v24Z"/><path class="cls-1" d="M274.85,282.5,260.4,264.25V282.5H257v-24h3.4l14.43,18.32V258.53h3.53v24Z"/><path class="cls-1" d="M310.33,282.53a15.69,15.69,0,0,1-4.27.55c-7.23,0-13.14-5.21-13.14-12.6s6-12.49,13.21-12.49a13.2,13.2,0,0,1,10.18,4.37l-2.41,2.47a9.29,9.29,0,0,0-7.58-3.37c-5.37,0-10,3.4-10,9.06s4.56,9.06,9.92,9.06a11.66,11.66,0,0,0,2.77-.32c1.67-.42,4.4-1.64,4.4-3.7v-2.7H305.8v-3.47h11.06v6.4C316.86,279.38,313.45,281.67,310.33,282.53Z"/><path class="cls-1" d="M341.25,283.05a15.47,15.47,0,0,1-12-4.92l2.45-2.34c3.08,2.86,5.84,3.72,10,3.72,2.67,0,7.42-.83,7.42-4.3a3.16,3.16,0,0,0-1.6-2.73c-1.26-.81-2.45-.87-6-.93l-3.6-.07c-3.73-.06-7.13-2-7.13-6.14,0-3.5,2.92-5.84,6-6.84a14,14,0,0,1,4.15-.61,16.35,16.35,0,0,1,10,3.28L349,264c-2.6-1.6-4.43-2.5-7.55-2.5-2.35,0-7,.74-7,3.85,0,2.35,2.16,2.77,4.05,2.77H342c2.67,0,4.85,0,7.23,1.44a6.82,6.82,0,0,1,3.37,6C352.59,281.31,345.94,283.05,341.25,283.05Z"/></g></g></svg>